<?xml version="1.0" standalone="no"?>
<!DOCTYPE svg PUBLIC "-//W3C//DTD SVG 20010904//EN"
 "http://www.w3.org/TR/2001/REC-SVG-20010904/DTD/svg10.dtd">
<svg version="1.0" xmlns="http://www.w3.org/2000/svg"
 width="960.000000pt" height="960.000000pt" viewBox="0 0 960.000000 960.000000"
 preserveAspectRatio="xMidYMid meet">
<metadata>
Created by potrace 1.11, written by Peter Selinger 2001-2013
</metadata>
<g transform="translate(0.000000,960.000000) scale(0.100000,-0.100000)"
fill="#000000" stroke="none">
<path d="M3627 9037 c-4 -10 -13 -13 -29 -9 -21 5 -22 4 -9 -11 15 -19 61 -23
61 -6 0 8 4 8 13 2 6 -5 26 -10 42 -11 17 -1 35 -9 41 -17 19 -25 49 -19 49
10 0 27 -2 28 -80 40 -22 4 -50 9 -61 11 -13 4 -23 0 -27 -9z"/>
<path d="M3830 9000 c8 -5 22 -10 30 -10 13 0 13 1 0 10 -8 5 -22 10 -30 10
-13 0 -13 -1 0 -10z"/>
<path d="M3355 8979 c-43 -11 -89 -26 -100 -33 -11 -7 -36 -16 -55 -20 -77
-15 -120 -31 -116 -42 2 -6 -7 -17 -22 -24 -17 -7 -28 -8 -30 -1 -5 14 -32 2
-32 -15 0 -7 -6 -11 -14 -8 -10 4 -13 0 -10 -14 5 -16 -4 -21 -63 -35 -90 -22
-114 -22 -107 1 4 12 3 14 -4 4 -5 -8 -8 -28 -6 -47 2 -32 1 -33 -29 -31 -33
2 -87 -18 -99 -38 -5 -7 -12 -5 -20 7 -14 18 -54 14 -42 -4 3 -5 -11 -9 -31
-9 -33 0 -35 1 -24 21 13 26 72 79 108 98 14 8 28 17 31 20 3 4 22 15 42 24
42 20 52 32 42 48 -5 8 -10 6 -16 -5 -5 -9 -16 -16 -23 -16 -8 0 -15 -4 -15
-10 0 -5 -5 -10 -11 -10 -6 0 -26 -12 -45 -27 -20 -14 -43 -27 -52 -28 -32 -3
-60 -16 -66 -30 -3 -10 0 -12 12 -8 9 3 -3 -13 -27 -36 -25 -23 -50 -41 -57
-41 -8 0 -11 -6 -7 -17 4 -11 3 -14 -6 -9 -8 5 -18 0 -27 -12 -14 -20 -57 -37
-83 -33 -7 1 -10 -2 -7 -7 7 -13 -80 -87 -104 -88 -11 -1 -20 3 -20 7 0 5 -5
9 -11 9 -5 0 -7 -4 -4 -10 3 -5 1 -10 -5 -10 -7 0 -9 -7 -6 -16 3 -8 2 -12 -4
-9 -5 3 -16 -5 -25 -18 -8 -13 -26 -30 -39 -37 -14 -7 -22 -18 -20 -25 3 -7
-5 -22 -17 -34 -13 -12 -19 -21 -14 -21 5 0 -5 -15 -21 -32 -29 -32 -61 -104
-51 -115 3 -2 -6 -21 -19 -40 -13 -19 -21 -39 -18 -44 3 -5 1 -9 -4 -9 -6 0
-13 -16 -17 -36 -3 -21 -13 -47 -21 -59 -8 -12 -11 -25 -7 -29 4 -4 1 -11 -7
-16 -7 -5 -15 -14 -16 -22 -1 -7 -8 -26 -15 -43 -7 -16 -11 -35 -10 -41 0 -6
-6 -17 -14 -24 -8 -7 -15 -16 -15 -21 0 -4 -13 -36 -29 -71 -16 -34 -27 -67
-24 -72 3 -5 1 -6 -5 -2 -7 4 -12 1 -13 -6 -1 -19 -8 -67 -15 -108 -4 -19 -6
-54 -5 -76 1 -23 -2 -45 -8 -49 -6 -3 -11 -22 -11 -41 0 -19 4 -33 9 -30 5 3
15 -4 23 -17 19 -29 32 -107 18 -107 -6 0 -13 6 -16 13 -3 8 -20 13 -42 13
-62 -2 -87 -34 -163 -213 -36 -86 -41 -107 -41 -173 0 -41 5 -88 11 -103 6
-16 12 -65 12 -109 1 -45 7 -102 15 -129 13 -43 18 -49 49 -55 20 -3 32 -11
29 -16 -4 -6 -1 -9 7 -6 7 2 17 23 22 46 9 47 16 51 41 23 10 -10 32 -22 51
-25 31 -6 71 -36 47 -36 -6 0 -13 -14 -17 -30 -5 -24 -2 -34 17 -50 43 -36 58
-19 58 71 0 25 5 61 12 79 9 26 9 35 0 38 -7 2 -12 11 -12 20 0 12 3 13 11 5
6 -6 18 -9 25 -6 8 3 14 0 14 -6 0 -44 84 40 100 99 7 25 18 61 25 80 7 19 19
62 26 95 7 33 15 65 19 70 4 6 10 22 14 37 3 15 11 40 18 55 6 15 12 33 13 38
3 20 24 63 35 70 5 3 8 11 5 16 -4 5 0 11 7 14 13 5 64 97 94 170 23 54 22 53
36 115 7 30 18 59 26 63 10 7 11 12 1 24 -8 9 -9 17 -3 21 14 10 74 192 63
192 -18 0 -8 26 13 35 17 7 27 26 37 65 8 30 18 57 22 60 4 3 10 19 13 35 2
17 5 32 5 35 1 3 6 -2 11 -10 7 -11 10 -7 10 17 0 22 7 37 20 45 11 7 20 23
20 36 0 12 9 32 20 44 11 12 20 30 20 40 0 11 5 16 10 13 6 -3 10 1 10 9 0 9
4 16 9 16 5 0 14 14 21 30 7 17 21 35 31 41 11 5 19 16 19 24 0 8 8 20 19 27
10 7 22 28 25 46 4 17 12 32 17 32 5 0 14 11 19 25 5 14 14 25 21 25 7 0 8 11
4 31 -5 22 -4 29 4 25 17 -11 26 24 12 46 -10 17 -9 18 13 12 30 -7 56 14 56
47 0 12 3 20 6 16 12 -12 35 23 29 43 -7 22 4 27 22 9 8 -8 13 -8 18 0 3 6 -1
18 -9 27 -9 8 -16 13 -16 9 0 -3 -6 0 -14 7 -21 20 6 33 89 46 63 9 72 8 89
-9 19 -17 19 -19 3 -37 -9 -10 -17 -24 -17 -30 0 -7 -9 -17 -20 -24 -11 -7
-20 -19 -20 -26 0 -9 9 -7 29 7 16 12 34 21 41 21 17 0 7 -22 -15 -34 -24 -14
-68 -64 -77 -88 -6 -15 -5 -17 10 -9 9 5 31 24 47 41 33 35 83 65 93 56 3 -4
-9 -18 -26 -32 -17 -15 -29 -31 -26 -36 3 -5 11 -4 19 2 7 6 17 10 21 8 5 -1
31 8 58 20 53 24 76 28 76 12 0 -5 -15 -13 -32 -18 -19 -5 -34 -16 -36 -26 -3
-14 1 -17 18 -11 15 5 20 3 16 -3 -3 -6 -2 -13 4 -17 15 -9 2 -25 -20 -25 -15
0 -36 -27 -28 -36 12 -11 100 -5 122 9 29 19 101 26 117 10 7 -7 4 -24 -7 -54
-9 -24 -18 -57 -19 -74 -1 -16 -5 -40 -8 -52 -4 -13 -10 -33 -13 -45 -5 -16
-3 -20 9 -15 11 4 14 2 11 -7 -3 -8 -1 -17 5 -21 7 -4 6 -13 -4 -28 -7 -12
-13 -36 -13 -52 0 -17 -3 -41 -7 -55 l-8 -24 32 27 c42 35 48 34 43 -8 -2 -19
-9 -35 -14 -35 -6 0 -8 11 -6 25 3 13 1 22 -3 19 -12 -7 -11 -21 2 -66 5 -21
15 -38 21 -38 5 0 8 7 4 15 -3 8 0 20 7 28 7 7 17 22 23 32 6 11 20 20 30 20
11 0 25 4 33 9 8 5 16 4 22 -5 14 -23 4 -34 -31 -31 -22 2 -37 -3 -46 -15 -20
-27 -17 -33 15 -27 22 5 32 1 44 -16 8 -11 28 -25 43 -30 l29 -8 -29 -1 c-21
-1 -27 -5 -22 -16 3 -9 0 -15 -9 -15 -18 0 -28 17 -15 25 16 10 12 25 -6 25
-13 0 -15 -7 -10 -32 7 -36 23 -50 48 -44 25 6 31 -9 13 -27 -20 -21 -19 -34
5 -40 12 -3 18 -11 15 -19 -3 -8 1 -21 9 -28 10 -8 14 -21 10 -36 -5 -18 -2
-24 10 -24 9 0 16 -5 16 -11 0 -5 5 -7 11 -4 6 4 8 22 4 46 -6 32 -4 39 9 39
9 0 16 7 16 15 0 8 -9 15 -20 15 -11 0 -20 7 -20 15 0 8 -4 15 -10 15 -5 0
-10 -4 -10 -10 0 -5 -5 -10 -11 -10 -27 0 25 89 53 90 9 0 18 8 21 18 4 16 4
16 10 0 21 -55 20 -54 24 -30 6 30 37 46 63 32 11 -6 20 -15 20 -21 0 -6 5 -7
12 -3 8 5 9 2 5 -9 -7 -19 1 -21 23 -7 13 9 12 13 -5 27 -15 12 -16 14 -3 10
29 -10 34 30 6 53 -22 19 -23 19 -2 20 11 0 28 -8 37 -18 15 -16 15 -20 1 -40
-18 -26 -15 -27 22 -8 32 17 44 13 44 -15 0 -10 5 -19 10 -19 6 0 10 5 10 11
0 5 5 7 10 4 6 -3 10 -1 10 4 0 6 -4 11 -10 11 -5 0 -10 5 -10 11 0 6 6 9 14
6 8 -3 17 -1 20 6 3 8 12 3 25 -13 16 -20 21 -22 21 -8 0 12 5 15 16 11 14 -5
15 0 10 34 l-7 40 30 -5 c17 -2 31 -8 31 -13 0 -5 10 -3 23 5 27 18 41 10 52
-29 4 -16 10 -24 12 -18 3 10 10 10 24 2 23 -12 49 -1 28 12 -10 6 -8 9 9 9
12 0 25 -6 28 -13 3 -9 16 -12 34 -9 17 2 27 8 24 13 -3 5 2 9 12 9 30 0 138
43 166 66 24 20 25 22 9 27 -10 2 -25 1 -32 -4 -19 -12 -42 -11 -34 0 3 5 18
12 34 16 16 3 32 13 35 21 3 8 14 14 25 14 10 0 22 7 25 16 10 26 7 34 -10 27
-14 -5 -14 -3 -3 16 8 11 22 21 32 21 15 0 16 -3 6 -21 -9 -17 -8 -20 2 -14 9
6 11 2 7 -13 -7 -27 -7 -27 22 -2 17 14 26 17 31 9 9 -15 30 -2 23 15 -3 8 0
17 7 22 9 5 11 2 6 -8 -10 -27 5 -29 24 -4 26 33 24 35 -15 26 -28 -6 -33 -5
-29 7 5 12 1 14 -14 9 -16 -5 -22 -1 -27 20 -8 31 1 45 14 24 7 -10 10 1 10
38 0 52 -13 70 -23 32 -8 -32 -30 -25 -24 8 2 15 1 36 -3 47 -7 16 -9 17 -9 3
-1 -9 -6 -20 -12 -23 -7 -5 -9 12 -8 50 1 31 -2 60 -7 63 -18 12 -23 39 -11
52 9 10 9 14 -1 17 -15 6 -39 29 -44 42 -1 5 -9 11 -17 13 -13 3 -64 43 -108
86 -13 12 -28 22 -33 22 -5 0 -14 9 -20 19 -5 11 -24 23 -42 27 -46 10 -98 36
-92 46 5 8 -31 13 -71 10 -15 -2 -17 0 -6 7 18 12 -10 27 -79 42 -41 9 -54 8
-60 -1 -4 -7 -13 -9 -19 -6 -6 4 -9 12 -6 17 4 5 1 9 -4 9 -6 0 -11 6 -11 14
0 20 -57 31 -76 16 -10 -9 -34 -11 -82 -6 -134 14 -158 16 -237 20 -109 5
-105 4 -99 20 4 10 -2 12 -20 9 -14 -3 -26 -9 -26 -14 0 -15 -37 -10 -43 5 -4
10 6 16 34 20 21 3 39 11 39 16 0 14 -44 11 -135 -11z m103 -125 c-8 -9 -24
-14 -34 -11 -17 3 -16 5 6 15 36 16 47 14 28 -4z m519 -16 c-3 -8 -6 -5 -6 6
-1 11 2 17 5 13 3 -3 4 -12 1 -19z m-1037 -78 c0 -5 -10 -10 -22 -9 -22 0 -22
1 -3 9 11 5 21 9 23 9 1 1 2 -3 2 -9z m1380 -40 c0 -5 -4 -10 -9 -10 -6 0 -13
5 -16 10 -3 6 1 10 9 10 9 0 16 -4 16 -10z m-1435 -31 c14 -14 -8 -30 -42 -31
-53 -2 -70 21 -30 40 22 11 54 7 72 -9z m254 -16 c-7 -10 -15 -20 -16 -22 -2
-2 -3 5 -3 17 0 14 6 22 16 22 14 0 15 -3 3 -17z m101 -12 c0 -5 -7 -12 -16
-15 -14 -5 -15 -4 -4 9 14 17 20 19 20 6z m1310 -71 c0 -5 -2 -10 -4 -10 -3 0
-8 5 -11 10 -3 6 -1 10 4 10 6 0 11 -4 11 -10z m-1250 -60 c0 -5 -7 -10 -16
-10 -8 0 -12 5 -9 10 3 6 10 10 16 10 5 0 9 -4 9 -10z m1370 -240 c0 -5 -2
-10 -4 -10 -3 0 -8 5 -11 10 -3 6 -1 10 4 10 6 0 11 -4 11 -10z m-1192 -161
c2 -12 -5 -16 -26 -17 -25 0 -29 3 -25 19 7 24 46 22 51 -2z m492 -110 c0 -6
-4 -7 -10 -4 -5 3 -10 11 -10 16 0 6 5 7 10 4 6 -3 10 -11 10 -16z m-2173
-1045 c1 -65 -1 -75 -14 -70 -9 4 -21 -1 -29 -11 -11 -15 -13 -15 -14 -3 0 9
-19 -5 -45 -33 -25 -26 -43 -52 -40 -57 3 -4 0 -10 -6 -12 -17 -6 -33 -156
-20 -185 18 -40 18 -41 -41 -34 -32 4 5 199 57 300 20 38 43 72 51 75 7 3 14
12 14 21 0 8 7 15 15 15 8 0 15 7 15 16 0 17 18 38 40 47 8 3 15 6 15 6 0 1 1
-33 2 -75z"/>
<path d="M3835 8960 c-7 -12 42 -36 53 -26 4 4 -2 14 -12 22 -23 17 -33 18
-41 4z"/>
<path d="M2807 8903 c-12 -12 -7 -22 8 -17 8 4 15 10 15 15 0 11 -14 12 -23 2z"/>
<path d="M3028 8903 c7 -3 16 -2 19 1 4 3 -2 6 -13 5 -11 0 -14 -3 -6 -6z"/>
<path d="M2764 8794 c3 -7 -3 -14 -14 -17 -31 -8 -23 -26 10 -24 34 2 36 6 14
33 -8 10 -13 14 -10 8z"/>
<path d="M2677 8734 c-16 -9 -27 -17 -25 -19 8 -8 62 11 66 23 5 16 -7 15 -41
-4z"/>
<path d="M2496 8724 c-9 -24 -2 -26 12 -4 7 11 8 20 3 20 -5 0 -12 -7 -15 -16z"/>
<path d="M2425 8659 c-11 -17 1 -21 15 -4 8 9 8 15 2 15 -6 0 -14 -5 -17 -11z"/>
<path d="M4660 8431 c0 -5 5 -13 10 -16 6 -3 10 -2 10 4 0 5 -4 13 -10 16 -5
3 -10 2 -10 -4z"/>
<path d="M4765 8150 c-3 -5 -2 -10 4 -10 5 0 13 5 16 10 3 6 2 10 -4 10 -5 0
-13 -4 -16 -10z"/>
<path d="M4830 8129 c0 -5 -4 -8 -8 -5 -13 8 -35 -11 -28 -23 11 -17 22 -13
40 14 9 14 12 25 6 25 -5 0 -10 -5 -10 -11z"/>
<path d="M4850 8095 c-7 -14 -19 -25 -25 -25 -6 0 -12 -6 -12 -12 0 -7 -4 -22
-8 -33 -4 -11 3 -5 15 13 12 17 28 33 36 33 29 3 33 4 46 18 11 11 9 12 -11 6
-20 -6 -23 -4 -18 9 10 26 -8 19 -23 -9z"/>
<path d="M4875 8040 c-3 -5 -14 -10 -24 -10 -10 0 -18 -6 -18 -12 0 -7 -4 -22
-9 -32 -6 -15 -4 -18 8 -13 10 3 19 0 22 -9 8 -22 7 -26 -4 -19 -15 9 -12 -12
7 -48 25 -46 74 -236 72 -280 -1 -27 9 -151 19 -232 4 -34 6 -79 4 -100 -2
-22 -4 -86 -3 -142 0 -57 -3 -103 -8 -103 -4 0 -11 -34 -15 -76 -3 -43 -10
-82 -14 -88 -10 -13 -30 -85 -30 -106 1 -8 -4 -40 -11 -70 -6 -30 -15 -75 -20
-100 -5 -25 -12 -97 -15 -160 -10 -175 -21 -263 -50 -400 -15 -74 -26 -158
-26 -208 l0 -82 33 13 c17 7 37 24 44 38 25 52 41 96 48 133 7 41 35 93 35 66
0 -8 -10 -53 -21 -101 -24 -95 -21 -131 8 -108 15 12 16 12 10 -3 -3 -10 -2
-18 3 -18 6 0 10 5 10 10 0 6 35 64 79 128 43 64 83 136 88 159 6 23 9 87 7
143 -4 98 -5 103 -34 130 -33 31 -38 62 -16 106 8 15 13 32 10 36 -10 16 6 58
21 58 8 0 18 12 21 28 4 15 22 56 40 92 19 36 38 92 43 125 6 33 15 80 22 105
15 59 28 358 16 390 -5 14 -10 59 -12 100 -4 82 -17 159 -34 203 -8 22 -16 27
-35 23 -20 -4 -25 1 -31 27 -7 33 -17 106 -19 145 0 12 -5 22 -10 22 -4 0 -5
7 -2 15 7 20 -20 31 -38 16 -7 -6 -15 -8 -19 -5 -10 11 5 79 21 92 9 6 12 13
6 13 -5 1 -13 2 -19 4 -5 1 -17 3 -27 3 -17 2 -15 35 5 60 5 7 7 16 3 20 -4 4
-15 -3 -24 -14 -17 -22 -92 -41 -92 -23 0 5 -6 9 -13 9 -14 0 -16 27 -3 48 4
6 5 12 2 12 -3 0 -8 -4 -11 -10z"/>
<path d="M3481 7956 c-14 -16 -7 -36 12 -36 7 0 6 4 -3 10 -13 9 -13 11 0 19
8 6 12 13 9 16 -4 3 -12 -1 -18 -9z"/>
<path d="M4252 7929 c2 -6 8 -10 13 -10 5 0 11 4 13 10 2 6 -4 11 -13 11 -9 0
-15 -5 -13 -11z"/>
<path d="M3811 7884 c0 -11 3 -14 6 -6 3 7 2 16 -1 19 -3 4 -6 -2 -5 -13z"/>
<path d="M3905 7870 c-3 -5 -1 -10 4 -10 6 0 11 5 11 10 0 6 -2 10 -4 10 -3 0
-8 -4 -11 -10z"/>
<path d="M3705 7860 c-18 -8 -17 -9 8 -9 15 -1 27 4 27 9 0 12 -8 12 -35 0z"/>
<path d="M5111 7788 c0 -7 4 -22 9 -33 7 -17 9 -15 9 13 1 17 -3 32 -9 32 -5
0 -10 -6 -9 -12z"/>
<path d="M2640 7119 c0 -4 -17 -10 -37 -14 -21 -4 -40 -10 -43 -13 -3 -4 -22
-16 -43 -27 -33 -16 -36 -20 -20 -26 15 -6 10 -11 -24 -26 -27 -11 -41 -23
-38 -31 3 -7 0 -10 -5 -7 -16 10 -33 -5 -21 -19 8 -9 5 -24 -9 -51 -11 -22
-20 -49 -20 -62 0 -19 -6 -22 -47 -25 l-48 -3 63 -36 63 -35 -42 -13 c-54 -16
-40 -28 41 -36 77 -7 120 -22 120 -41 0 -8 6 -14 14 -14 8 0 30 -9 48 -19 33
-19 259 -111 272 -111 4 0 23 -12 41 -26 20 -15 62 -31 101 -40 37 -7 76 -21
86 -31 15 -13 21 -14 27 -5 8 13 78 11 127 -3 13 -4 25 -2 29 6 6 8 4 10 -5 4
-9 -5 -11 -4 -6 3 11 18 57 15 50 -3 -4 -8 -1 -15 6 -15 8 0 10 9 6 24 -6 23
-3 25 47 33 46 8 52 11 50 31 -2 14 3 22 12 22 8 0 15 7 15 16 0 14 3 14 15 4
12 -10 15 -10 15 4 0 9 7 16 16 16 11 0 14 6 9 22 -6 16 -4 20 8 15 10 -4 14
-1 11 6 -5 13 38 57 56 57 5 0 14 8 20 18 8 12 13 13 16 5 7 -16 66 -17 81 -2
9 9 19 6 39 -10 l28 -22 8 20 c5 14 16 21 33 21 35 0 50 -41 63 -181 11 -115
35 -199 58 -199 7 0 15 -11 18 -25 8 -32 38 -47 96 -50 26 -1 69 -12 96 -24
99 -46 122 -54 164 -56 19 -1 68 -5 109 -10 l74 -8 -6 25 c-10 39 18 40 112 7
45 -16 81 -26 81 -23 0 3 -7 13 -16 22 -9 9 -13 17 -8 18 5 1 27 5 49 9 34 6
37 9 23 19 -21 15 -39 81 -26 94 6 6 6 12 -1 16 -22 14 -11 25 14 16 23 -9 25
-8 15 10 -9 16 -8 20 4 20 9 0 18 12 22 28 3 15 8 36 11 47 3 11 2 17 -2 13
-5 -5 -13 2 -20 15 -8 15 -8 24 -1 30 7 5 4 13 -10 25 -22 18 -24 23 -24 48 0
10 -6 14 -14 11 -8 -3 -17 -3 -20 1 -4 3 -17 7 -29 9 -33 5 -77 24 -77 34 0 5
-9 9 -19 9 -11 0 -38 16 -61 35 -29 24 -52 35 -75 35 -30 0 -104 24 -97 32 9
9 -13 38 -29 38 -11 0 -32 13 -47 30 -19 21 -37 30 -62 32 -19 1 -41 6 -47 11
-7 5 -20 7 -28 3 -9 -3 -18 1 -21 9 -4 8 -11 15 -18 15 -6 0 -18 9 -26 21 -12
16 -24 20 -62 18 -52 -3 -71 6 -48 22 11 8 10 9 -7 4 -14 -4 -23 -2 -23 5 0
22 -44 29 -65 10 -29 -25 -57 -33 -67 -18 -8 10 -11 10 -15 1 -7 -19 -23 -15
-23 5 0 21 -29 52 -48 52 -7 0 -12 7 -12 15 0 8 -9 15 -19 15 -10 0 -21 6 -24
13 -3 9 -19 12 -46 10 -29 -2 -41 1 -41 10 0 9 -10 12 -30 9 -18 -3 -30 0 -30
7 0 15 -27 14 -32 -1 -3 -9 -12 -8 -31 5 -22 14 -31 15 -48 6 -17 -9 -23 -8
-30 2 -4 7 -11 10 -15 7 -3 -4 -13 0 -22 8 -10 11 -18 12 -25 5 -15 -15 -27
-14 -27 2 0 10 -14 12 -62 6 -48 -6 -64 -4 -73 7 -8 11 -18 12 -45 4 -49 -14
-217 -14 -250 0 -13 6 -170 4 -170 -1z m1162 -281 c-9 -9 -15 -9 -24 0 -9 9
-7 12 12 12 19 0 21 -3 12 -12z m-42 -38 c0 -5 -4 -10 -10 -10 -5 0 -10 5 -10
10 0 6 5 10 10 10 6 0 10 -4 10 -10z m80 0 c3 -1 -5 -5 -18 -11 -13 -5 -21
-13 -17 -18 3 -5 1 -12 -5 -16 -6 -4 -10 6 -10 24 0 30 6 33 50 21z m490 -550
c0 -5 -5 -10 -11 -10 -5 0 -7 5 -4 10 3 6 8 10 11 10 2 0 4 -4 4 -10z m45 0
c13 -6 15 -9 5 -9 -8 0 -22 4 -30 9 -18 12 -2 12 25 0z"/>
<path d="M3810 6989 c0 -5 5 -7 10 -4 6 3 10 8 10 11 0 2 -4 4 -10 4 -5 0 -10
-5 -10 -11z"/>
<path d="M4211 6854 c0 -11 3 -14 6 -6 3 7 2 16 -1 19 -3 4 -6 -2 -5 -13z"/>
<path d="M9528 6283 c6 -2 18 -2 25 0 6 3 1 5 -13 5 -14 0 -19 -2 -12 -5z"/>
<path d="M9578 6283 c7 -3 16 -2 19 1 4 3 -2 6 -13 5 -11 0 -14 -3 -6 -6z"/>
<path d="M8440 6265 c-6 -8 -10 -22 -8 -32 3 -16 13 -18 88 -14 47 2 92 8 100
13 12 8 12 9 -2 4 -10 -3 -20 -2 -22 3 -3 4 -27 5 -53 1 -46 -5 -112 12 -82
22 9 3 10 6 2 11 -6 4 -16 0 -23 -8z"/>
<path d="M7588 6220 c4 -26 9 -30 48 -36 25 -3 84 -2 132 2 80 8 87 11 90 32
2 15 -2 22 -13 22 -9 0 -13 -4 -10 -10 3 -5 -2 -10 -12 -10 -11 0 -24 -5 -30
-11 -16 -16 -85 -21 -80 -6 2 7 20 12 40 11 27 0 34 3 27 11 -5 7 -7 16 -3 21
4 5 1 3 -7 -3 -8 -7 -27 -13 -42 -13 -16 0 -31 -6 -34 -13 -8 -22 -41 -17 -54
9 -15 27 -30 32 -30 9 0 -8 8 -15 17 -15 12 0 14 -3 6 -11 -15 -15 -33 -3 -33
22 0 10 -4 19 -8 19 -5 0 -7 -13 -4 -30z"/>
<path d="M7203 6213 c-7 -2 -13 -9 -13 -14 0 -12 67 -12 75 1 3 6 0 10 -9 10
-8 0 -20 2 -28 4 -7 3 -19 2 -25 -1z"/>
<path d="M5910 6141 c0 -5 -8 -12 -17 -14 -14 -4 -12 -5 5 -6 13 -1 22 5 22
14 0 8 -2 15 -5 15 -3 0 -5 -4 -5 -9z"/>
<path d="M6120 6130 c0 -5 7 -10 16 -10 8 0 12 5 9 10 -3 6 -10 10 -16 10 -5
0 -9 -4 -9 -10z"/>
<path d="M3083 6112 c-36 -8 -63 -21 -63 -28 0 -7 -8 -10 -20 -7 -11 3 -27 -1
-36 -8 -13 -10 -17 -10 -24 0 -5 9 -10 10 -14 2 -4 -6 -18 -11 -32 -11 -13 0
-29 -9 -36 -20 -14 -23 -30 -27 -22 -6 3 9 -4 15 -21 18 -16 4 -24 1 -22 -6 3
-6 11 -10 18 -8 11 3 11 1 3 -8 -9 -9 -17 -9 -34 0 -12 6 -32 9 -44 6 -13 -3
-26 -3 -30 1 -3 4 -17 8 -29 10 -17 2 -19 1 -7 -6 12 -9 12 -11 -2 -16 -9 -4
-25 -8 -35 -10 -10 -1 -17 -9 -15 -16 3 -9 -2 -8 -15 3 -13 12 -23 14 -36 6
-10 -5 -36 -8 -58 -6 -21 2 -39 1 -39 -3 0 -3 -15 -10 -32 -16 -23 -6 -32 -14
-30 -26 2 -10 -4 -17 -13 -17 -8 0 -15 4 -15 10 0 5 -11 13 -26 16 -18 5 -29
1 -39 -12 -12 -15 -16 -16 -24 -5 -6 9 -11 10 -15 2 -5 -7 -13 -7 -27 2 -13 8
-22 9 -27 2 -4 -6 -24 -23 -44 -38 -21 -16 -38 -37 -38 -48 0 -10 -4 -19 -8
-19 -5 0 -7 -13 -4 -30 2 -16 0 -30 -5 -30 -5 0 -8 -14 -5 -30 2 -17 7 -29 10
-26 3 3 11 1 19 -5 10 -9 13 -6 13 14 0 20 6 26 29 29 18 3 27 0 24 -5 -4 -6
5 -8 21 -5 14 3 26 1 26 -3 0 -5 -5 -9 -12 -9 -6 0 -4 -7 5 -18 21 -23 22 -36
2 -28 -21 8 -19 -21 2 -33 14 -7 15 -12 4 -24 -7 -9 -22 -17 -33 -19 -12 -2
-23 -8 -25 -15 -3 -7 3 -9 16 -6 14 3 23 0 27 -11 8 -21 -13 -46 -32 -39 -14
5 -62 -13 -74 -28 -3 -3 -15 -11 -27 -17 -20 -11 -22 -10 -21 18 1 30 18 44
18 15 0 -15 12 -20 23 -9 6 6 0 20 -22 53 -7 12 -13 12 -24 3 -12 -10 -16 -10
-20 2 -3 8 1 20 9 26 16 15 19 30 3 30 -5 0 -7 -5 -3 -12 5 -8 2 -9 -9 -5 -11
4 -17 1 -17 -8 0 -8 -6 -15 -14 -15 -12 0 -12 -6 -3 -29 9 -24 8 -32 -6 -46
-9 -9 -17 -21 -17 -26 0 -5 -7 -9 -16 -9 -8 0 -13 -4 -9 -9 7 -13 -48 -9 -57
4 -14 18 -8 22 23 17 23 -3 30 -1 24 7 -4 8 1 14 14 18 11 3 18 10 15 15 -4 6
-1 14 6 18 8 5 9 10 1 14 -10 6 -18 -1 -56 -49 -11 -13 -18 -16 -21 -8 -3 7
-12 9 -20 6 -8 -3 -14 0 -14 7 0 10 -3 10 -14 0 -8 -6 -12 -19 -9 -27 4 -11 3
-14 -6 -9 -7 5 -10 14 -7 22 9 24 -32 16 -45 -8 -15 -29 -30 -39 -47 -33 -10
4 -12 -9 -6 -58 5 -48 4 -59 -5 -51 -33 31 -37 370 -6 547 8 45 15 97 15 114
0 29 -2 32 -22 25 -33 -12 -127 -5 -146 10 -13 11 -15 11 -8 -2 4 -8 1 -6 -8
4 -8 10 -17 24 -19 30 -2 6 -7 9 -10 6 -11 -10 23 -86 49 -108 l26 -23 -19
-37 c-14 -30 -18 -61 -19 -164 0 -126 -8 -158 -39 -158 -6 0 -20 -9 -30 -20
-10 -11 -24 -20 -31 -20 -7 0 -16 -9 -19 -20 -4 -11 -15 -20 -26 -20 -13 0
-69 -49 -148 -128 -77 -77 -161 -151 -212 -185 -89 -60 -171 -133 -231 -208
-20 -25 -66 -63 -104 -85 -37 -21 -90 -62 -118 -89 -54 -53 -116 -158 -116
-195 0 -19 -1 -20 -16 -6 -17 18 -34 13 -34 -10 0 -8 -7 -14 -15 -14 -8 0 -15
-6 -15 -14 0 -10 -13 -16 -37 -19 l-38 -4 43 -1 c35 -2 42 -5 42 -22 0 -11 5
-20 11 -20 6 0 9 7 5 15 -4 10 1 15 15 15 34 0 18 -33 -19 -41 -36 -7 -67 -29
-42 -29 9 0 8 -5 -5 -20 -16 -18 -16 -20 -2 -20 9 0 21 -9 27 -20 12 -23 4
-25 -36 -10 -24 9 -25 9 -14 -5 7 -8 11 -17 9 -19 -12 -11 -69 -35 -96 -41
-18 -3 -33 -11 -33 -15 0 -5 -7 -7 -15 -4 -8 4 -15 2 -15 -3 0 -5 -17 -7 -38
-5 -36 4 -38 6 -34 33 3 21 0 29 -11 29 -10 0 -14 -9 -13 -30 2 -25 -2 -30
-20 -30 -35 0 -28 41 9 61 31 15 32 15 59 -15 26 -29 28 -29 28 -8 0 12 -11
29 -25 38 -23 15 -28 15 -69 -1 -42 -16 -45 -19 -39 -46 4 -22 2 -29 -11 -29
-9 0 -16 6 -16 14 0 9 -8 12 -24 9 -17 -4 -25 0 -29 14 -3 10 -5 -971 -6
-2179 l-1 -2198 4760 0 c4224 0 4760 2 4760 15 0 8 6 15 13 15 7 0 25 6 40 13
26 12 27 14 27 100 0 61 -4 87 -12 87 -9 0 -9 3 0 12 9 9 12 364 12 1534 l0
1522 -37 -1 c-21 0 -43 -4 -50 -9 -13 -10 -28 7 -18 21 3 5 1 12 -4 16 -6 3
-15 -4 -21 -15 -6 -12 -17 -19 -23 -17 -7 2 -22 0 -34 -4 -27 -10 -40 6 -23
26 16 19 8 19 -36 0 -20 -8 -33 -19 -30 -24 8 -12 -31 -18 -129 -21 -44 0 -99
-6 -123 -11 -24 -5 -48 -7 -53 -4 -5 4 -9 -1 -9 -11 0 -12 -4 -14 -12 -7 -16
13 -124 1 -140 -15 -20 -20 -25 -14 -24 30 1 33 -3 43 -16 46 -13 2 -18 -3
-18 -17 0 -12 3 -20 8 -18 8 2 12 -6 12 -24 0 -6 -6 -9 -14 -6 -10 4 -13 -2
-12 -19 0 -15 6 -22 14 -19 7 3 10 0 7 -5 -11 -17 -123 -10 -130 9 -5 11 -8
12 -14 3 -6 -9 -15 -10 -39 -1 -24 8 -30 14 -22 24 7 9 -2 12 -43 14 -28 1
-53 6 -55 11 -4 12 -55 13 -66 3 -12 -13 -110 -12 -124 0 -8 6 -18 20 -22 32
-8 17 -9 18 -9 2 -1 -11 -6 -15 -12 -11 -8 5 -8 1 0 -14 8 -15 7 -21 -3 -25
-10 -4 -16 6 -21 31 -4 20 -15 48 -26 63 -10 15 -19 32 -19 38 0 6 -6 11 -13
11 -7 0 -20 9 -30 20 -9 11 -14 20 -11 20 4 0 2 6 -4 13 -7 8 -7 18 -2 27 6
10 4 21 -7 32 -9 10 -12 18 -8 18 5 0 0 7 -11 15 -18 15 -18 15 0 29 11 9 15
20 10 28 -4 7 2 5 13 -5 19 -17 21 -17 19 -1 -2 23 18 28 38 9 13 -14 16 -14
16 -2 0 8 -7 20 -15 27 -8 7 -15 22 -15 34 0 12 -9 29 -20 39 -25 21 -31 22
-24 2 7 -18 -25 -33 -35 -16 -4 6 -15 9 -24 5 -9 -3 -17 -2 -17 4 0 5 7 12 15
16 8 3 15 10 15 15 0 6 -7 8 -15 5 -8 -4 -15 -1 -15 5 0 6 -9 20 -19 30 -21
21 -38 81 -23 81 5 0 12 -13 16 -30 7 -38 22 -39 20 -2 -2 53 -3 54 -29 48
-15 -4 -25 -2 -25 4 0 6 4 9 8 6 5 -3 17 5 27 16 l18 22 19 -24 c15 -19 21
-21 28 -11 5 10 16 11 36 6 16 -5 34 -7 39 -6 40 11 64 6 74 -17 6 -13 9 -28
6 -33 -4 -5 0 -9 8 -9 24 0 29 42 7 65 -22 23 -25 46 -10 61 7 7 4 16 -10 29
-21 19 -27 55 -10 55 6 0 10 14 10 30 0 17 -4 30 -10 30 -5 0 -10 14 -10 30 0
19 5 30 14 30 7 0 20 9 27 19 14 20 31 24 82 22 20 -1 27 -6 27 -21 0 -11 5
-20 10 -20 6 0 10 -7 10 -16 0 -22 24 -12 29 12 2 10 11 24 20 31 14 10 13 11
-6 7 -15 -4 -25 0 -32 14 -6 11 -7 22 -4 26 3 3 0 6 -8 6 -9 0 -24 7 -35 15
-16 13 -17 16 -4 25 13 9 13 11 0 20 -11 7 -18 5 -26 -5 -6 -8 -16 -15 -23
-15 -6 0 -11 -4 -11 -10 0 -5 -8 -10 -19 -10 -14 0 -21 -10 -25 -35 -4 -22
-13 -35 -22 -35 -15 0 -14 11 4 59 3 9 -1 12 -14 9 -11 -2 -20 -13 -22 -25 -2
-13 -15 -32 -29 -43 l-26 -20 26 0 c22 0 25 -5 29 -41 3 -31 0 -43 -12 -47 -8
-3 -18 -10 -21 -15 -4 -5 -10 1 -14 13 -5 17 -2 27 11 37 16 12 17 15 4 23
-21 13 -27 12 -33 -4 -4 -10 -16 -13 -41 -9 -36 5 -51 -12 -22 -23 9 -3 14
-18 14 -36 -1 -17 6 -36 14 -42 21 -15 29 -67 14 -88 -13 -17 -61 -14 -50 3 3
5 -1 9 -9 9 -17 0 -47 32 -47 50 0 8 -10 24 -22 37 -12 13 -16 23 -10 23 7 0
12 6 12 14 0 9 -7 12 -19 9 -22 -6 -50 32 -29 39 8 3 7 11 -3 28 -7 14 -14 27
-14 30 -1 3 -7 18 -13 33 -20 47 -16 77 11 77 22 0 52 32 40 44 -3 3 -14 1
-25 -5 -18 -10 -19 -8 -13 13 7 22 7 22 -11 6 -18 -15 -22 -15 -56 0 -24 11
-41 26 -47 45 -10 26 -9 27 11 13 11 -8 27 -12 34 -9 8 3 14 0 14 -7 0 -10 3
-10 15 0 12 10 18 10 30 0 9 -7 19 -10 22 -6 4 4 1 11 -6 15 -19 12 4 52 26
44 11 -4 14 -2 11 8 -3 8 -14 13 -24 12 -10 -1 -22 4 -26 10 -5 8 -12 6 -26
-6 -28 -25 -45 -22 -38 8 7 28 7 29 -29 15 -15 -6 -33 -6 -42 -2 -13 8 -13 10
1 15 19 7 21 30 5 55 -9 15 -7 23 12 44 24 25 60 29 40 4 -7 -8 -1 -21 20 -44
17 -18 27 -37 24 -42 -3 -6 -1 -10 4 -10 20 0 12 49 -9 60 -24 13 -26 35 -5
44 8 3 15 12 15 21 0 18 12 19 28 3 6 -6 21 -13 33 -15 17 -3 20 1 16 17 -3
13 1 21 14 25 11 4 16 12 12 21 -4 10 2 17 16 21 16 4 20 11 16 24 -4 11 -2
19 4 19 6 0 11 -6 11 -12 0 -7 3 -24 7 -38 6 -22 5 -23 -9 -12 -13 10 -18 10
-24 1 -4 -7 -3 -9 3 -6 6 4 16 0 23 -8 7 -8 16 -12 21 -9 5 3 9 -2 9 -10 0
-22 13 -20 35 4 18 19 17 20 -4 20 -13 0 -20 4 -16 11 4 6 -2 20 -13 32 -22
25 -35 86 -18 88 6 1 17 1 24 0 14 -2 16 14 2 39 -7 14 -5 19 10 23 11 3 20
11 20 18 0 7 -3 9 -6 6 -4 -3 -14 -2 -24 3 -28 15 -57 1 -57 -26 0 -17 5 -24
18 -24 26 0 24 -21 -2 -27 -14 -4 -19 -12 -16 -24 7 -25 -4 -30 -42 -23 -28 6
-45 34 -21 34 6 0 10 5 10 11 0 7 -10 9 -27 4 -24 -6 -25 -5 -13 12 32 42 61
55 53 25 -3 -12 1 -19 9 -19 21 0 16 37 -14 90 -15 26 -22 47 -17 47 5 0 9 5
9 11 0 6 -7 8 -16 5 -10 -4 -25 1 -35 10 -19 17 -24 9 -13 -20 3 -9 14 -16 23
-16 11 0 12 -3 4 -8 -6 -4 -15 -20 -18 -35 -8 -29 -23 -34 -44 -14 -10 10 -14
9 -22 -5 -11 -19 -39 -25 -39 -8 0 6 8 10 17 10 13 0 14 3 5 12 -8 8 -15 8
-25 0 -8 -7 -17 -9 -20 -5 -4 3 -7 1 -7 -6 0 -8 -11 -10 -34 -6 -26 5 -36 3
-44 -11 -6 -11 -16 -15 -27 -11 -12 5 -18 1 -22 -13 -6 -23 -23 -26 -42 -7
-11 10 -13 9 -8 -5 4 -10 2 -18 -4 -18 -19 0 -79 55 -79 72 0 9 -5 20 -12 24
-7 4 -8 3 -4 -4 4 -7 3 -12 -2 -12 -14 0 -63 82 -58 97 3 8 2 12 -3 9 -12 -8
-73 72 -66 85 4 6 1 16 -7 22 -15 12 -91 94 -243 261 -44 48 -95 96 -112 107
-18 12 -33 27 -33 35 0 8 -7 14 -15 14 -8 0 -15 4 -15 10 0 5 -6 7 -12 5 -7
-3 -31 13 -53 36 -30 31 -45 39 -62 34 -15 -3 -23 -1 -23 8 0 28 -142 80 -217
79 -18 0 -33 4 -33 10 0 6 -6 6 -15 -2 -8 -7 -25 -10 -38 -6 -14 3 -33 -1 -46
-10 -19 -13 -28 -14 -48 -5 -21 10 -28 9 -35 -1 -8 -10 -11 -10 -15 -1 -9 24
-90 53 -198 71 -73 13 -395 6 -395 -8 0 -8 10 -10 93 -16 37 -3 67 -10 67 -15
0 -15 -98 -10 -137 6 -41 17 -63 14 -198 -25 -38 -12 -84 -25 -101 -29 -61
-16 -340 -170 -391 -216 -11 -10 -30 -25 -108 -83 -51 -39 -63 -51 -102 -98
-17 -21 -43 -53 -57 -70 -14 -18 -26 -35 -26 -39 0 -4 -16 -25 -35 -48 -19
-22 -35 -47 -35 -54 0 -7 -4 -13 -10 -13 -5 0 -10 5 -10 10 0 6 -7 10 -16 10
-13 0 -15 -7 -10 -30 5 -28 4 -30 -19 -24 -15 4 -25 2 -25 -5 0 -6 7 -11 14
-11 13 0 12 -9 -3 -53 -11 -30 -23 -62 -29 -73 -6 -10 -23 -49 -38 -85 l-27
-67 -61 -5 c-33 -3 -62 -4 -64 -2 -6 6 20 49 59 96 22 26 39 54 39 63 0 14 11
20 31 18 4 -1 5 8 2 18 -4 14 -1 19 8 17 8 -2 11 -2 7 0 -5 3 -8 12 -9 21 0
11 -2 12 -6 5 -2 -7 -11 -13 -20 -13 -25 0 -8 25 20 28 15 2 27 8 27 14 0 5
-7 7 -16 4 -9 -3 -21 -6 -28 -6 -7 0 -21 -20 -32 -45 -13 -32 -24 -45 -39 -45
-16 0 -17 -2 -5 -10 12 -8 9 -10 -12 -10 -16 0 -28 -5 -28 -11 0 -6 9 -8 20
-4 11 3 20 2 20 -3 0 -13 -72 -22 -84 -11 -5 5 -14 2 -20 -7 -7 -8 -29 -17
-51 -19 -37 -3 -38 -2 -21 11 23 17 21 20 -24 29 l-35 7 19 -21 c15 -17 16
-23 6 -36 -7 -8 -17 -15 -22 -15 -5 0 -18 -9 -30 -20 -16 -15 -18 -22 -10 -33
9 -11 8 -18 -8 -32 -10 -9 -26 -15 -35 -12 -21 9 -19 28 3 21 10 -4 13 -2 7 3
-16 13 -16 33 1 33 11 0 14 6 9 20 -4 13 -2 20 7 20 10 0 9 3 -2 10 -12 8 -12
10 -1 10 8 0 12 3 9 6 -4 3 2 14 13 25 10 10 19 25 19 33 0 9 8 12 25 8 20 -3
25 0 25 15 0 11 7 34 16 51 8 18 13 41 9 51 -4 14 2 24 23 36 28 17 34 33 33
99 0 10 9 20 19 23 12 3 22 17 25 37 5 27 11 31 38 32 42 2 86 10 119 23 27
10 53 45 44 59 -7 12 15 96 28 104 13 9 -11 38 -28 32 -8 -3 -11 6 -8 31 4 30
1 35 -16 35 -11 0 -25 -6 -32 -14 -6 -8 -18 -12 -25 -10 -7 3 -23 1 -34 -5
-22 -12 -32 -3 -36 33 -1 11 -3 24 -4 29 0 4 -10 7 -20 7 -10 0 -21 7 -25 15
-3 8 -17 15 -32 15 -18 0 -28 6 -31 21 -4 13 -11 18 -20 14 -10 -3 -13 -1 -10
9 3 8 -1 20 -9 26 -8 7 -14 9 -14 5 0 -4 -7 -2 -15 5 -9 7 -14 19 -11 27 3 7
-1 13 -9 13 -8 0 -15 5 -15 11 0 5 -5 7 -11 4 -6 -4 -13 2 -16 14 -3 12 -10
21 -17 21 -6 0 -4 5 4 11 12 9 11 10 -6 6 -17 -4 -20 -1 -17 14 4 14 0 19 -15
19 -11 0 -23 6 -26 13 -5 9 -7 9 -12 -1 -4 -9 -18 -2 -45 25 -54 54 -106 93
-121 93 -15 0 -8 -43 17 -117 42 -122 15 -185 -63 -147 -20 10 -41 17 -46 16
-5 -2 -15 7 -23 19 -11 15 -23 20 -44 17 -15 -3 -26 -1 -23 3 2 4 -8 8 -23 8
-53 0 -94 17 -86 36 4 11 -3 13 -31 8 -27 -4 -37 -2 -42 11 -3 9 -10 16 -16
16 -5 0 -6 -4 -3 -10 10 -17 -11 -11 -38 10 -16 13 -27 16 -29 9 -4 -12 -68 4
-95 24 -7 5 -28 7 -47 6 -19 -2 -38 -1 -41 3 -4 3 -19 2 -35 -2 -33 -10 -51
-8 -135 10 -72 16 -85 25 -85 57 0 40 34 95 99 158 34 33 61 62 61 65 0 12
-87 7 -147 -8z m-723 -156 c0 -3 -4 -8 -10 -11 -5 -3 -10 -1 -10 4 0 6 5 11
10 11 6 0 10 -2 10 -4z m3620 -316 c0 -5 -2 -10 -4 -10 -3 0 -8 5 -11 10 -3 6
-1 10 4 10 6 0 11 -4 11 -10z m15 -40 c-3 -5 -10 -10 -16 -10 -5 0 -9 5 -9 10
0 6 7 10 16 10 8 0 12 -4 9 -10z m-2068 -27 c-2 -1 -14 1 -27 4 -22 6 -22 7
-4 13 15 6 40 -8 31 -17z m-1860 -40 c-3 -10 -5 -4 -5 12 0 17 2 24 5 18 2 -7
2 -21 0 -30z m1849 11 c-3 -8 -2 -12 4 -9 6 3 10 2 10 -4 0 -5 -6 -14 -14 -18
-7 -4 -16 -15 -19 -23 -3 -8 -4 4 -4 28 1 29 6 42 15 42 9 0 12 -6 8 -16z m64
-64 c0 -5 -2 -10 -4 -10 -3 0 -8 5 -11 10 -3 6 -1 10 4 10 6 0 11 -4 11 -10z
m-2137 -21 c4 -16 3 -18 -9 -8 -16 13 -19 29 -5 29 5 0 11 -9 14 -21z m62 -19
c3 -5 2 -10 -4 -10 -5 0 -13 5 -16 10 -3 6 -2 10 4 10 5 0 13 -4 16 -10z m965
-246 c0 -8 -4 -12 -10 -9 -5 3 -10 10 -10 16 0 5 5 9 10 9 6 0 10 -7 10 -16z
m60 -8 c0 -2 -7 -9 -15 -16 -12 -10 -15 -10 -15 4 0 9 7 16 15 16 8 0 15 -2
15 -4z m115 -56 c39 -22 84 -47 100 -55 26 -12 27 -14 8 -15 -12 0 -24 4 -28
9 -3 5 -20 13 -38 16 -17 4 -50 15 -72 25 -22 9 -53 22 -68 29 -15 6 -25 16
-22 21 12 19 50 9 120 -30z m465 10 c0 -31 -11 -50 -29 -49 -10 0 -11 3 -4 6
9 3 9 11 -3 29 -15 22 -12 28 9 25 4 0 7 4 7 10 0 5 5 7 10 4 6 -3 10 -15 10
-25z m-750 5 c0 2 11 -7 25 -20 13 -14 31 -25 40 -25 8 0 15 -5 15 -10 0 -10
78 -49 110 -55 8 -1 14 -8 12 -15 -5 -22 19 -39 66 -46 26 -4 41 -9 35 -11
-16 -6 8 -33 28 -33 16 0 3 -13 -15 -16 -7 -1 -28 -5 -45 -9 -25 -5 -31 -3
-31 10 0 9 -4 14 -9 10 -5 -3 -21 0 -35 6 -20 9 -29 9 -40 0 -8 -7 -20 -10
-26 -6 -5 3 -10 2 -10 -4 0 -5 6 -11 13 -14 6 -2 8 -8 4 -13 -5 -5 -14 -1 -22
9 -7 10 -19 15 -29 11 -20 -8 -21 -24 -1 -24 8 0 15 -9 15 -20 0 -17 3 -18 26
-10 33 13 37 13 31 -2 -2 -7 3 -18 12 -25 14 -10 11 -13 -16 -19 -18 -3 -33
-10 -33 -15 0 -5 7 -6 15 -3 8 4 15 1 15 -5 0 -6 12 -11 26 -11 17 0 24 -4 21
-13 -2 -6 2 -18 9 -25 8 -7 14 -8 14 -2 0 5 7 10 16 10 10 0 14 -6 10 -15 -3
-8 -2 -15 3 -15 5 0 8 -7 7 -16 -1 -13 10 -18 42 -21 24 -2 49 0 55 5 14 11
57 -2 57 -18 0 -5 7 -10 16 -10 8 0 12 4 9 10 -6 9 5 8 43 -7 29 -11 62 -12
62 -2 0 5 14 9 30 9 18 0 33 6 36 15 4 8 10 15 16 15 13 0 38 -26 31 -34 -3
-3 8 -1 26 4 19 5 31 5 31 -1 0 -5 7 -9 15 -9 8 0 15 5 15 11 0 8 12 10 34 6
22 -3 42 0 56 10 16 11 25 12 33 4 19 -19 39 -13 32 9 -4 12 -2 20 6 20 6 0 0
9 -14 20 -14 11 -39 20 -56 20 -17 0 -31 5 -31 10 0 6 -11 10 -24 10 -31 0
-42 16 -20 28 14 8 12 10 -10 16 -14 3 -26 11 -26 17 0 9 47 7 137 -7 24 -4
31 -1 28 8 -4 9 6 13 30 14 22 0 44 9 60 24 14 13 25 19 25 13 0 -16 51 11 70
37 8 11 22 20 32 20 10 0 19 7 20 15 0 8 1 21 2 28 1 16 25 41 42 43 8 1 12
-1 9 -5 -2 -5 0 -23 5 -40 5 -20 6 -52 0 -79 -7 -39 -6 -50 9 -67 24 -26 35
-73 21 -90 -8 -9 -6 -14 5 -19 18 -7 19 -23 2 -56 -7 -14 -24 -59 -37 -100
-13 -41 -27 -79 -32 -84 -4 -6 -8 -17 -8 -25 0 -24 -47 -111 -88 -163 -26 -33
-43 -47 -55 -44 -16 4 -18 0 -13 -22 5 -23 4 -24 -6 -10 -11 15 -14 15 -40 -4
-22 -15 -32 -17 -42 -9 -7 6 -21 9 -29 5 -9 -3 -22 -2 -29 2 -22 14 -48 14
-48 1 0 -8 -11 -19 -25 -25 -33 -15 -35 -15 -35 3 0 8 -11 22 -26 31 -14 10
-23 23 -20 31 4 8 1 11 -5 7 -6 -3 -17 3 -25 14 -9 13 -21 19 -30 15 -10 -4
-25 7 -43 28 -25 29 -34 33 -67 30 -21 -1 -52 -12 -68 -24 -16 -12 -40 -20
-53 -19 -13 1 -23 -4 -23 -11 0 -8 -4 -7 -10 3 -8 13 -10 12 -10 -3 0 -14 -5
-17 -19 -12 -11 3 -22 1 -25 -4 -4 -6 -22 -5 -49 3 -23 7 -49 10 -57 8 -13 -4
-13 -3 -2 10 17 21 0 32 -33 24 -30 -8 -55 2 -49 19 6 15 -30 30 -46 20 -5 -3
-10 1 -10 9 0 10 -6 13 -15 10 -9 -4 -18 1 -21 11 -5 12 -14 15 -34 11 -16 -3
-35 1 -46 9 -11 8 -29 15 -41 15 -22 0 -27 9 -24 38 1 6 -3 12 -10 12 -16 0
-61 49 -54 59 2 5 -7 21 -20 35 -14 15 -25 31 -25 37 0 5 -5 9 -11 9 -6 0 -9
7 -6 15 4 8 2 17 -4 21 -6 4 -6 11 2 20 6 8 8 14 4 14 -4 0 -1 8 6 17 12 15
12 16 -4 10 -16 -6 -18 -2 -12 41 4 26 9 54 11 64 3 9 0 19 -6 23 -16 10 -12
21 13 33 13 7 16 11 7 11 -21 1 -22 59 -1 64 12 4 11 7 -6 12 -14 4 -20 12
-16 19 4 6 9 20 10 30 2 10 11 25 21 32 15 11 19 9 30 -12 14 -26 48 -34 39
-10 -4 10 -1 13 9 9 10 -4 12 0 8 11 -8 21 19 22 36 1 14 -17 35 -21 25 -5 -3
6 1 10 9 10 19 0 21 16 4 24 -7 3 -2 3 10 0 21 -5 23 -3 17 15 -4 14 -2 21 6
21 7 0 5 8 -6 21 -19 20 -19 20 8 10 15 -6 27 -9 27 -6z m173 -32 c-7 -2 -19
-2 -25 0 -7 3 -2 5 12 5 14 0 19 -2 13 -5z m667 -42 c0 -6 -4 -12 -8 -15 -5
-3 -9 1 -9 9 0 8 4 15 9 15 4 0 8 -4 8 -9z m-269 -54 c9 -14 31 2 22 16 -4 7
6 3 22 -7 25 -16 50 -20 141 -22 134 -2 156 -8 152 -37 -2 -18 -11 -23 -48
-27 -56 -6 -141 5 -151 21 -4 6 -12 8 -18 5 -6 -4 -11 -2 -11 5 0 7 -10 9 -25
6 -33 -6 -115 11 -115 24 0 6 -4 8 -9 4 -12 -7 -24 12 -16 25 7 12 46 3 56
-13z m405 -28 c3 -6 0 -15 -7 -20 -22 -14 -28 -11 -22 11 6 22 18 26 29 9z
m548 -44 c-9 -14 -20 -22 -25 -19 -5 3 -1 16 8 29 23 30 38 21 17 -10z m-1159
-45 c3 -5 1 -10 -4 -10 -6 0 -11 5 -11 10 0 6 2 10 4 10 3 0 8 -4 11 -10z
m4855 -4 c0 -8 -8 -24 -18 -36 l-18 -22 0 24 c0 12 7 28 15 35 20 16 21 16 21
-1z m-4607 -45 c4 -1 7 -6 7 -12 0 -8 -5 -8 -15 1 -12 10 -15 10 -15 -4 0 -9
-4 -16 -10 -16 -5 0 -10 9 -10 19 0 13 6 18 18 16 9 -2 20 -4 25 -4z m75 2
c-10 -2 -18 -9 -18 -15 0 -6 -3 -9 -6 -5 -10 10 6 27 24 26 15 -1 15 -2 0 -6z
m35 -40 c-7 -2 -19 -2 -25 0 -7 3 -2 5 12 5 14 0 19 -2 13 -5z m4277 -53 c0
-5 -4 -10 -9 -10 -5 0 -16 -3 -25 -6 -11 -4 -16 -1 -16 10 0 10 9 16 25 16 14
0 25 -4 25 -10z m-3603 -17 c-2 -10 -9 -28 -15 -41 -7 -12 -12 -28 -11 -35 3
-26 -1 -47 -11 -47 -5 0 -10 6 -10 14 0 7 -6 19 -14 25 -11 10 -14 7 -12 -14
0 -14 4 -25 9 -25 4 0 7 -4 7 -8 0 -5 -7 -9 -15 -9 -17 0 -28 24 -14 33 7 4 6
10 -1 19 -8 10 -4 15 19 23 23 8 31 18 37 46 6 36 37 53 31 19z m3654 -26
c-13 -13 -26 -3 -16 12 3 6 11 8 17 5 6 -4 6 -10 -1 -17z m-74 -4 c2 -6 -6
-13 -19 -15 -15 -2 -24 -11 -26 -25 -4 -29 -19 -29 -28 -1 -5 16 -1 27 16 40
25 20 51 21 57 1z m221 -5 c18 -18 14 -62 -8 -80 -11 -10 -22 -13 -25 -8 -4 6
-17 10 -30 10 -13 0 -27 5 -30 10 -3 6 -1 10 5 10 6 0 16 14 22 31 7 19 15 28
24 25 8 -3 14 -1 14 4 0 14 14 12 28 -2z m-3402 -45 c-4 -16 -8 -35 -10 -43
-11 -62 -40 -160 -48 -160 -16 0 -62 27 -79 46 -8 11 -25 42 -37 71 -20 52
-20 52 -1 77 20 25 34 28 148 34 32 2 33 1 27 -25z m-419 -59 c-3 -3 -12 -4
-19 -1 -8 3 -5 6 6 6 11 1 17 -2 13 -5z m-74 -48 c6 -15 -1 -26 -15 -26 -4 0
-8 9 -8 20 0 23 15 27 23 6z m-3580 -67 c-4 -13 -9 -17 -15 -11 -11 11 -3 32
12 32 4 0 6 -9 3 -21z m2847 -161 c0 -6 -7 -5 -15 2 -8 7 -15 17 -15 22 0 6 7
5 15 -2 8 -7 15 -17 15 -22z m4570 -48 c0 -5 -2 -10 -4 -10 -3 0 -8 5 -11 10
-3 6 -1 10 4 10 6 0 11 -4 11 -10z m-4940 -4 c0 -3 -4 -8 -10 -11 -5 -3 -10
-1 -10 4 0 6 5 11 10 11 6 0 10 -2 10 -4z m457 -83 c-3 -10 -5 -2 -5 17 0 19
2 27 5 18 2 -10 2 -26 0 -35z m4953 13 c0 -11 -19 -15 -25 -6 -3 5 1 10 9 10
9 0 16 -2 16 -4z m-2093 -112 c-3 -3 -12 -4 -19 -1 -8 3 -5 6 6 6 11 1 17 -2
13 -5z m108 -15 c-7 -10 -5 -11 45 -15 19 -1 36 -7 38 -13 2 -6 9 -8 15 -4 6
4 8 0 4 -10 -5 -13 3 -18 44 -23 38 -5 49 -10 45 -21 -4 -10 1 -13 17 -11 16
2 21 -2 19 -13 -1 -10 7 -19 20 -22 18 -5 20 -9 11 -18 -8 -8 -9 -18 -2 -31 7
-12 6 -18 -1 -18 -6 0 -8 -4 -5 -10 12 -19 -14 -10 -28 10 -8 12 -18 20 -23
19 -5 -1 -17 1 -28 6 -12 5 -21 3 -27 -6 -7 -12 -11 -11 -26 5 -17 18 -17 19
0 13 11 -4 16 -3 12 3 -3 6 -16 10 -29 10 -12 0 -26 4 -31 9 -21 18 -96 28
-179 23 -74 -4 -85 -2 -80 11 3 9 1 24 -5 35 -14 27 31 67 76 67 17 -1 30 2
27 6 -2 4 19 7 46 7 29 1 48 -3 45 -9z m-205 -17 c0 -10 -7 -27 -16 -38 -13
-15 -15 -16 -10 -2 4 13 1 15 -12 11 -12 -4 -9 2 8 20 30 31 30 31 30 9z
m1730 -15 c0 -18 -2 -19 -10 -7 -13 20 -13 43 0 35 6 -3 10 -16 10 -28z m220
19 c0 -3 -4 -8 -10 -11 -5 -3 -10 -1 -10 4 0 6 5 11 10 11 6 0 10 -2 10 -4z
m110 -41 c0 -8 -7 -15 -15 -15 -13 0 -14 -4 -5 -20 12 -22 5 -44 -11 -34 -5 3
-16 0 -24 -6 -23 -19 -19 9 5 40 11 14 20 31 20 38 0 17 30 15 30 -3z m-222
-82 c6 -20 9 -39 6 -42 -9 -10 -34 31 -34 56 0 35 15 27 28 -14z m-1343 -102
c-6 -5 -25 10 -25 20 0 5 6 4 14 -3 8 -7 12 -15 11 -17z m161 -349 c-2 -4 14
-16 36 -27 37 -18 39 -20 19 -29 -25 -11 -28 -26 -5 -26 9 0 18 -9 21 -20 3
-11 9 -20 13 -20 4 0 6 -16 4 -35 -1 -19 2 -35 7 -35 5 0 11 -11 15 -25 3 -14
10 -22 15 -19 20 12 7 -17 -20 -45 -20 -20 -29 -38 -26 -52 2 -12 0 -31 -6
-42 -8 -15 -8 -22 2 -28 11 -7 10 -9 -3 -9 -10 0 -20 -10 -24 -25 -3 -14 -10
-25 -14 -25 -4 0 -10 -7 -13 -14 -4 -10 -1 -13 7 -10 19 7 32 -16 15 -27 -8
-5 -22 -7 -31 -5 -10 2 -18 0 -18 -5 0 -5 7 -9 15 -9 8 0 15 -4 15 -10 0 -5
-9 -10 -20 -10 -11 0 -23 -7 -27 -15 -3 -9 -21 -22 -40 -30 -41 -17 -57 -19
-48 -5 3 6 2 10 -4 10 -5 0 -13 -9 -16 -21 -6 -17 -9 -18 -22 -7 -13 10 -17
10 -20 1 -6 -18 -43 -16 -43 1 0 15 -45 30 -60 21 -6 -4 -10 -12 -10 -18 0 -7
4 -6 10 3 8 13 10 12 10 -2 0 -24 -26 -23 -57 2 -29 23 -49 25 -90 9 -22 -8
-24 -12 -13 -19 8 -6 11 -10 5 -10 -5 1 -18 7 -28 15 -11 7 -36 17 -58 20 -21
4 -36 11 -33 16 8 14 -17 41 -32 35 -7 -3 -22 5 -32 18 -14 19 -26 23 -55 20
-27 -2 -37 1 -37 11 0 10 -10 15 -30 15 -18 0 -30 5 -30 13 0 8 -7 14 -15 14
-8 0 -15 -3 -15 -7 0 -14 -43 -7 -84 15 -24 13 -47 21 -50 18 -17 -17 -2 -45
34 -68 39 -25 48 -51 12 -38 -12 5 -9 -3 11 -26 36 -43 44 -77 23 -100 -9 -10
-16 -23 -16 -30 0 -9 -8 -11 -27 -6 -14 3 -69 9 -122 12 -53 3 -106 6 -119 7
-13 0 -29 9 -37 19 -7 11 -27 18 -49 19 -20 1 -41 8 -48 15 -16 20 -76 43 -93
37 -8 -4 -15 -2 -16 2 0 5 -2 24 -5 42 -2 18 0 31 5 28 12 -8 19 25 11 49 -5
14 0 25 17 38 17 14 23 28 23 57 0 21 6 45 14 53 14 14 17 130 3 143 -3 3 -2
14 4 23 5 9 13 28 19 43 7 21 15 27 32 25 17 -1 23 3 23 18 0 16 6 20 33 19
23 -2 32 2 33 15 0 10 2 11 6 4 2 -7 10 -13 16 -13 12 0 24 -22 46 -83 6 -15
15 -26 20 -25 5 2 17 -6 25 -17 13 -16 17 -17 25 -7 6 11 14 8 36 -15 15 -15
24 -22 21 -15 -5 8 2 12 23 12 21 0 31 -5 31 -16 0 -8 5 -12 10 -9 6 4 8 11 5
16 -8 12 10 12 33 0 72 -40 268 -64 291 -37 7 8 28 12 53 11 22 -1 53 4 67 11
14 8 34 11 44 8 10 -3 17 0 17 8 0 8 10 25 23 38 12 14 21 28 20 32 -2 4 16
12 40 18 71 19 92 33 95 64 4 28 4 29 57 23 43 -4 53 -3 48 8 -4 11 2 12 27 5
18 -5 35 -12 38 -15 3 -3 11 4 19 15 13 19 30 29 19 12z m-4169 -88 c-9 -9
-28 6 -21 18 4 6 10 6 17 -1 6 -6 8 -13 4 -17z m5473 -15 c0 -6 -4 -7 -10 -4
-5 3 -10 11 -10 16 0 6 5 7 10 4 6 -3 10 -11 10 -16z m-5430 -55 c0 -17 -22
-14 -28 4 -2 7 3 12 12 12 9 0 16 -7 16 -16z m10 -43 c0 -6 -4 -13 -10 -16 -5
-3 -10 1 -10 9 0 9 5 16 10 16 6 0 10 -4 10 -9z m5800 -101 c0 -13 -33 -17
-67 -8 -23 6 -30 13 -26 26 4 18 7 18 49 4 24 -8 44 -18 44 -22z m66 15 c-4
-11 1 -15 19 -15 23 0 42 -16 32 -26 -3 -3 -23 0 -46 6 -42 11 -55 35 -23 43
9 3 19 5 21 6 2 0 1 -6 -3 -14z m989 -107 c-11 -39 -56 -127 -73 -140 -12 -10
-16 -10 -19 0 -6 17 -23 15 -23 -3 0 -8 4 -15 9 -15 8 0 9 -19 2 -62 0 -5 -9
-9 -18 -9 -17 -1 -17 -2 -1 -6 20 -5 20 -52 0 -75 -6 -7 -9 -31 -7 -53 2 -30
-1 -44 -16 -55 -23 -19 -16 -56 13 -63 18 -5 20 -13 18 -104 -5 -237 -15 -277
-54 -221 -13 18 -16 19 -16 5 0 -9 5 -17 10 -17 6 0 10 -9 10 -20 0 -14 7 -20
21 -20 19 0 20 -4 17 -121 -2 -66 -6 -123 -9 -125 -4 -2 -4 -15 -1 -30 3 -17
-3 -36 -17 -55 -21 -29 -21 -29 -1 -29 16 0 20 -6 20 -36 0 -43 -19 -68 -38
-48 -7 7 -11 19 -10 26 2 7 -7 14 -19 16 -28 4 -30 22 -3 29 11 3 20 9 20 14
0 5 -9 9 -20 9 -11 0 -20 -7 -20 -15 0 -13 -25 -21 -52 -16 -5 0 -7 -4 -5 -10
1 -6 -4 -14 -12 -17 -10 -3 -12 0 -8 11 4 11 -1 20 -13 27 -11 6 -17 16 -14
25 4 9 2 21 -4 28 -5 6 -6 21 -2 32 4 11 4 32 -1 47 -4 14 -5 29 -1 32 3 3 5
31 4 61 0 54 0 54 28 49 30 -6 52 13 30 26 -7 4 -9 13 -5 20 6 10 1 11 -19 6
-22 -5 -26 -3 -26 14 0 15 7 20 26 20 20 0 25 4 22 23 -2 14 2 21 11 19 9 -2
11 3 6 15 -22 54 -20 58 34 53 14 -1 21 2 17 9 -4 5 -13 8 -21 4 -17 -6 -21
22 -5 32 13 8 13 25 1 25 -5 0 -15 -13 -23 -30 -7 -16 -18 -30 -25 -30 -6 0
-15 -5 -19 -12 -4 -7 -3 -8 4 -4 15 9 15 5 1 -31 -19 -49 -27 -6 -23 116 3 64
6 166 8 226 2 61 4 115 6 120 1 6 2 32 1 58 -1 36 -4 46 -13 40 -35 -21 -118
-12 -118 14 0 11 6 14 24 9 27 -7 38 9 30 41 -4 15 0 20 17 19 16 -1 24 6 29
24 3 14 12 25 20 25 8 0 19 6 23 13 4 6 15 12 22 12 8 0 15 4 15 8 0 5 -22 8
-50 8 -43 0 -50 -3 -51 -20 -1 -17 -2 -18 -6 -3 -2 9 -8 17 -13 17 -10 0 -20
39 -12 44 4 2 38 7 77 11 38 3 90 11 116 16 42 9 53 8 98 -16 28 -14 51 -21
51 -15 0 5 -6 10 -14 10 -18 0 -29 27 -13 34 7 2 27 5 45 5 30 1 33 -1 27 -21z
m-595 -69 c0 -11 -12 -40 -26 -65 -20 -33 -31 -43 -49 -42 -14 1 -21 7 -18 15
3 8 -6 15 -25 19 -27 6 -30 9 -22 29 7 19 5 24 -13 30 -22 7 -22 7 3 15 45 14
90 12 90 -6 0 -9 7 -14 18 -12 9 2 16 11 16 21 -1 9 4 17 12 17 8 0 14 -9 14
-21z m-240 -23 c0 -8 -7 -16 -15 -20 -8 -3 -15 -4 -15 -2 0 3 -3 11 -6 20 -4
12 0 16 15 16 12 0 21 -6 21 -14z m40 -2 c0 -8 -5 -12 -10 -9 -6 4 -8 11 -5
16 9 14 15 11 15 -7z m-100 -9 c0 -8 5 -15 11 -15 14 0 6 -87 -9 -102 -6 -6
-19 -8 -29 -4 -16 7 -17 8 -1 17 22 12 22 79 0 95 -20 15 -33 9 -25 -11 3 -8
0 -15 -6 -15 -6 0 -11 6 -11 14 0 8 -7 13 -16 12 -9 0 -19 5 -21 12 -3 9 11
12 51 12 43 0 56 -3 56 -15z m130 -31 c0 -11 -6 -13 -19 -9 -11 3 -23 1 -26
-6 -6 -8 -10 -8 -16 2 -11 19 -5 24 30 26 22 2 31 -2 31 -13z m0 -35 c0 -7 10
-9 24 -5 26 6 47 -11 24 -19 -18 -7 -95 21 -77 28 22 9 29 8 29 -4z m-256 -14
c-4 -8 -8 -15 -10 -15 -2 0 -4 7 -4 15 0 8 4 15 10 15 5 0 7 -7 4 -15z m203
-20 c-1 -13 -6 -27 -10 -31 -9 -10 2 -24 19 -24 8 0 13 4 10 9 -3 5 2 15 12
22 9 7 14 9 10 5 -4 -5 0 -15 10 -22 16 -12 16 -14 -3 -28 -11 -8 -29 -13 -40
-9 -26 7 -26 7 -27 34 -1 13 -6 29 -11 36 -11 15 -1 33 19 33 10 0 14 -8 11
-25z m-202 -15 c3 -5 1 -10 -4 -10 -6 0 -11 5 -11 10 0 6 2 10 4 10 3 0 8 -4
11 -10z m159 -58 c2 -37 0 -42 -20 -42 -12 0 -25 7 -28 16 -11 28 -6 54 9 54
8 0 15 5 15 11 0 6 5 9 11 7 6 -2 12 -23 13 -46z m-78 -53 l-14 -29 33 0 c21
0 35 6 39 16 5 12 19 15 63 12 32 -1 64 1 71 5 8 6 12 1 12 -17 0 -18 -6 -26
-22 -28 -13 -2 -22 -9 -20 -16 1 -6 -5 -12 -14 -12 -10 0 -14 6 -11 14 3 8 -2
16 -13 19 -23 6 -34 -37 -16 -65 9 -15 8 -21 -4 -28 -13 -9 -13 -12 3 -21 24
-14 21 -29 -5 -29 -22 -1 -21 -2 5 -16 26 -14 39 -54 17 -54 -5 0 -10 5 -10
10 0 6 -5 10 -11 10 -6 0 -8 -7 -4 -17 4 -12 3 -15 -4 -8 -5 6 -11 28 -13 50
-1 22 -8 45 -16 51 -13 9 -12 14 2 36 16 24 16 25 -8 24 -14 -1 -28 -5 -32 -9
-13 -13 -43 -7 -53 11 -5 9 -7 35 -4 57 3 22 5 49 4 60 0 10 5 25 11 33 20 24
31 -25 14 -59z m251 24 c-14 -14 -37 -11 -37 5 0 11 45 28 49 19 2 -5 -4 -16
-12 -24z m11 -49 c12 -22 3 -54 -15 -54 -8 0 -27 -7 -43 -15 -42 -22 -46 -2
-5 26 19 13 35 32 35 42 0 22 16 22 28 1z m-6647 -62 c15 -17 31 -48 35 -69 4
-21 12 -41 18 -45 8 -6 7 -10 -2 -16 -7 -5 -14 -23 -17 -41 -3 -25 2 -39 21
-58 13 -13 24 -29 24 -35 0 -5 7 -8 15 -4 8 3 15 1 15 -4 0 -6 -4 -10 -9 -10
-6 0 -6 -12 -1 -31 13 -43 22 -50 14 -11 -4 18 -3 32 2 32 13 0 37 -58 29 -70
-3 -5 0 -8 7 -5 16 6 81 -127 127 -258 17 -48 47 -122 66 -165 71 -152 107
-259 140 -417 18 -88 36 -167 39 -175 2 -8 16 -54 31 -102 14 -49 29 -88 34
-88 18 0 21 78 4 116 -10 22 -18 44 -19 49 -1 12 -13 45 -23 65 -4 8 -4 29 -1
47 5 21 3 39 -6 52 -8 11 -11 26 -8 35 3 9 1 16 -5 16 -6 0 -11 8 -11 18 0 10
-4 22 -9 27 -5 6 -12 21 -16 34 -6 18 -4 22 6 16 8 -5 6 1 -3 12 -10 11 -18
27 -18 36 0 9 -4 17 -8 17 -4 0 -13 15 -20 33 -15 41 -15 50 -2 42 19 -12 10
32 -10 50 -11 10 -17 22 -14 27 10 15 -7 68 -22 68 -14 0 -17 15 -15 85 0 23
-6 46 -16 57 -9 10 -13 26 -10 39 4 15 -2 29 -21 46 -18 17 -23 27 -14 30 6 3
12 15 12 29 0 23 38 47 108 68 12 4 22 14 22 22 0 8 5 12 10 9 6 -3 10 -1 10
5 0 6 -9 14 -20 18 -20 7 -20 7 0 20 17 10 20 10 21 -5 0 -16 1 -16 8 1 6 15
31 -28 110 -185 187 -371 237 -473 258 -529 77 -205 78 -207 81 -172 2 24 -2
38 -15 48 -10 7 -15 14 -11 14 4 0 2 15 -3 33 -5 17 -12 55 -15 82 -4 28 -8
53 -10 57 -7 12 62 93 81 95 22 3 53 -21 74 -57 71 -122 92 -161 106 -192 13
-33 13 -37 0 -32 -8 4 -15 1 -15 -6 0 -8 8 -10 21 -7 51 13 249 -185 249 -248
0 -8 3 -15 8 -15 4 0 12 -10 18 -23 6 -12 23 -44 37 -72 25 -49 89 -269 121
-415 10 -45 16 -120 16 -187 0 -101 -2 -113 -17 -113 -17 0 -43 -40 -43 -65 0
-7 -11 -17 -25 -23 -34 -15 -35 -15 -35 6 0 11 -3 13 -8 5 -5 -8 -22 -10 -47
-7 -22 3 -50 6 -62 6 -19 0 -23 6 -24 37 -1 23 -3 28 -6 13 -2 -12 -8 -22 -13
-22 -16 0 -22 21 -10 35 16 19 -6 31 -27 13 -13 -10 -17 -10 -20 0 -3 6 -18
12 -34 12 -19 0 -29 5 -29 15 0 8 -9 24 -20 35 -11 11 -20 27 -20 35 0 8 -3
15 -6 15 -10 0 -34 -28 -34 -40 0 -7 -6 -6 -15 4 -19 18 -19 26 0 26 9 0 12 6
9 15 -4 8 -10 13 -14 10 -5 -3 -14 3 -20 12 -8 13 -13 14 -16 6 -3 -7 -12 -13
-20 -13 -8 0 -14 -5 -14 -11 0 -5 -4 -8 -8 -5 -5 3 -8 -9 -8 -26 1 -18 -5 -33
-13 -36 -9 -3 -11 1 -6 17 4 15 1 23 -10 27 -14 6 -14 8 2 20 15 11 15 14 3
15 -8 1 -21 1 -27 0 -7 -1 -13 4 -13 11 0 9 -3 9 -11 -2 -8 -12 -10 -8 -7 17
4 30 3 31 -28 26 -28 -5 -32 -3 -28 13 3 11 1 30 -5 44 -9 23 -10 23 -10 4 -1
-11 -10 -29 -22 -40 -21 -19 -21 -19 -19 11 3 48 1 49 -26 21 -29 -29 -40 -32
-46 -14 -3 7 -12 9 -22 5 -9 -4 -14 -11 -11 -17 3 -5 2 -10 -3 -10 -6 0 -12 7
-16 15 -3 8 -13 15 -22 15 -14 0 -14 -3 -4 -15 20 -24 4 -29 -32 -8 -43 24
-51 36 -33 49 19 14 19 21 0 21 -8 0 -12 -4 -9 -9 5 -7 -9 -12 -27 -10 -4 1
-5 -9 -2 -21 3 -14 2 -18 -4 -10 -5 7 -19 11 -31 8 -20 -4 -28 8 -23 38 0 4
-5 7 -12 7 -7 0 -23 9 -36 21 -21 20 -23 20 -36 3 -7 -10 -11 -24 -8 -31 3 -7
0 -20 -6 -27 -9 -11 -9 -15 1 -19 26 -8 -48 -5 -84 4 -24 6 -38 16 -38 25 0
10 -6 14 -14 11 -7 -3 -23 1 -34 8 -10 8 -21 13 -23 10 -7 -7 -3 100 5 124 6
16 5 21 -3 17 -7 -5 -11 7 -12 36 0 24 -1 64 -2 90 -1 25 1 44 5 42 14 -9 3
51 -12 63 -10 8 -11 12 -3 13 8 0 10 7 6 18 -10 25 -26 39 -41 34 -6 -2 -12 3
-12 12 0 9 -4 16 -10 16 -5 0 -10 5 -10 10 0 6 7 10 15 10 17 0 20 17 4 22 -5
2 -11 20 -12 40 -1 20 -6 34 -10 31 -5 -3 -7 4 -5 15 2 12 -4 27 -13 34 -9 7
-31 58 -49 113 -17 55 -36 109 -41 120 -6 11 -11 44 -12 73 -1 28 -5 52 -8 52
-4 0 -9 10 -12 23 -3 12 -17 67 -31 122 -31 117 -56 273 -51 315 2 16 0 32 -5
35 -5 3 -9 28 -8 56 0 41 5 55 26 75 l27 25 -25 -3 c-20 -2 -24 1 -22 16 3 14
-1 17 -12 13 -11 -4 -17 0 -18 11 0 9 -2 22 -3 27 -2 6 -3 18 -4 29 -1 12 -6
16 -17 12 -13 -5 -15 -2 -11 13 3 12 -1 22 -10 25 -8 3 -11 11 -8 16 4 6 3 10
-2 9 -23 -4 -32 2 -26 18 4 10 2 14 -4 10 -10 -6 -33 74 -33 114 0 33 29 79
63 100 25 16 45 19 91 16 51 -3 63 -8 87 -35z m275 -26 c18 -14 18 -15 -10
-26 -27 -10 -28 -12 -12 -29 9 -9 16 -27 16 -38 0 -12 3 -23 8 -25 13 -6 42
-65 42 -87 0 -23 -28 -41 -62 -40 -20 1 -19 2 9 15 40 17 47 28 27 45 -8 7
-14 8 -13 3 4 -21 -2 -34 -16 -34 -8 0 -15 7 -15 15 0 8 -4 15 -10 15 -5 0
-10 6 -10 14 0 8 -5 18 -11 21 -6 4 -9 1 -7 -7 2 -7 -1 -15 -7 -16 -5 -1 -10
7 -10 19 0 11 -5 23 -11 27 -6 4 -10 15 -8 25 1 9 -2 17 -7 17 -6 0 -7 4 -4
10 3 6 -1 7 -9 4 -23 -9 -21 29 3 50 17 16 60 33 87 35 5 1 19 -5 30 -13z
m3474 -10 c8 2 27 6 43 10 20 5 27 3 27 -9 0 -8 9 -17 19 -20 10 -2 24 -15 31
-27 10 -19 10 -22 -2 -18 -10 4 -14 -1 -14 -16 1 -18 -4 -21 -36 -18 -23 2
-38 -1 -38 -7 0 -6 -13 -11 -30 -11 -16 0 -30 5 -30 11 0 6 -6 9 -13 6 -8 -3
-20 3 -28 14 -7 10 -20 19 -28 19 -7 0 -1 10 15 22 16 12 36 30 44 39 8 10 17
14 20 10 3 -5 12 -7 20 -5z m2888 -26 c17 0 15 -47 -3 -54 -17 -6 -21 -56 -5
-56 6 0 10 -11 10 -25 0 -37 -17 -30 -35 13 -14 32 -18 35 -26 20 -12 -22 -31
-24 -22 -2 3 9 0 20 -7 24 -16 10 -3 33 16 26 20 -8 5 23 -17 35 -11 5 -19 19
-19 30 0 25 18 15 30 -17 5 -13 14 -24 20 -24 12 0 13 17 1 24 -5 4 -8 14 -6
24 2 9 4 19 4 21 1 3 11 -5 24 -17 13 -12 29 -22 35 -22z m-221 -7 c9 -19 10
-30 2 -40 -15 -18 -33 -17 -25 2 3 8 -1 21 -9 29 -8 8 -15 21 -15 29 0 24 33
9 47 -20z m-5610 -45 c-3 -8 -6 -5 -6 6 -1 11 2 17 5 13 3 -3 4 -12 1 -19z
m17 -33 c-4 -8 -8 -15 -10 -15 -2 0 -4 7 -4 15 0 8 4 15 10 15 5 0 7 -7 4 -15z
m5547 -2 c13 -16 12 -17 -3 -4 -10 7 -18 15 -18 17 0 8 8 3 21 -13z m-5526
-22 c3 -5 1 -12 -5 -16 -5 -3 -10 1 -10 9 0 18 6 21 15 7z m-751 -27 c3 -8 2
-12 -4 -9 -6 3 -10 10 -10 16 0 14 7 11 14 -7z m766 -19 c0 -8 -4 -15 -10 -15
-5 0 -10 7 -10 15 0 8 5 15 10 15 6 0 10 -7 10 -15z m2923 -65 c-6 -7 -23 23
-23 40 0 8 6 4 13 -10 8 -14 12 -27 10 -30z m2847 40 c0 -5 -4 -10 -10 -10 -5
0 -10 5 -10 10 0 6 5 10 10 10 6 0 10 -4 10 -10z m-6958 -10 c73 -21 110 -100
163 -351 14 -68 37 -146 49 -174 13 -27 38 -104 55 -170 16 -66 50 -181 74
-255 25 -74 48 -155 51 -180 4 -25 12 -61 18 -80 14 -43 12 -98 -3 -116 -7 -8
-7 -14 -1 -14 5 0 15 7 22 15 23 28 28 15 27 -77 -1 -51 2 -113 7 -138 13 -76
9 -172 -8 -205 l-16 -30 6 42 c4 25 2 48 -4 55 -5 7 -13 32 -17 56 -4 23 -11
40 -15 37 -5 -3 -11 4 -15 15 -8 24 -18 25 -39 5 -8 -8 -22 -15 -30 -15 -9 0
-16 -5 -16 -11 0 -19 -53 0 -80 29 -34 38 -51 70 -41 77 5 2 18 21 30 41 12
19 17 33 12 30 -12 -8 -23 23 -16 45 5 13 1 19 -10 19 -9 0 -15 6 -12 13 2 6
-3 17 -10 22 -17 12 -5 51 22 79 23 22 14 29 -20 16 -32 -12 -34 -12 -37 20
-2 16 4 27 20 35 39 21 38 28 -3 21 -32 -6 -38 -5 -27 5 17 18 15 30 -4 22
-13 -5 -15 -2 -10 14 8 24 -24 38 -45 19 -10 -8 -10 -7 0 7 7 9 20 17 27 17 8
0 14 10 14 25 0 22 -3 24 -19 15 -33 -17 -35 -11 -7 15 20 18 23 25 11 25 -9
0 -18 -7 -21 -15 -4 -8 -10 -12 -15 -9 -5 3 -4 14 2 26 7 12 7 23 2 27 -15 10
-22 50 -9 56 8 3 8 7 -2 11 -6 3 -9 10 -6 16 4 6 -1 8 -15 3 -12 -4 -21 -2
-21 4 0 6 7 11 16 11 10 0 6 10 -15 33 -17 17 -31 37 -31 44 0 7 -7 10 -16 6
-12 -4 -15 -2 -12 8 3 8 -8 37 -24 66 -22 38 -27 57 -20 70 5 10 9 34 8 53 -1
20 5 41 14 48 11 10 12 15 3 18 -7 3 -13 15 -13 25 0 11 4 18 9 14 5 -3 13 0
17 6 8 14 -14 29 -33 22 -7 -3 -13 0 -13 7 0 6 5 8 10 5 6 -3 10 1 10 10 0 9
-4 13 -10 10 -5 -3 -10 0 -10 8 0 8 -7 18 -16 21 -8 3 -12 10 -9 16 3 6 -1 13
-10 16 -10 4 -15 14 -12 25 3 10 1 19 -4 21 -17 6 -38 82 -39 141 0 87 25 127
97 153 47 16 41 16 85 4z m1202 -11 c-3 -5 -10 -7 -15 -3 -5 3 -7 10 -3 15 3
5 10 7 15 3 5 -3 7 -10 3 -15z m2790 -11 c9 -2 10 -14 4 -44 -7 -33 -14 -43
-34 -47 -13 -2 -27 -1 -30 4 -2 4 -11 6 -19 2 -12 -4 -15 3 -15 30 0 20 5 39
10 42 6 3 10 1 10 -4 0 -6 5 -11 12 -11 6 0 8 3 5 7 -4 3 3 17 15 31 18 19 24
20 26 8 2 -8 9 -16 16 -18z m2806 -14 c0 -3 -7 -1 -15 6 -8 7 -15 17 -15 22 0
5 7 3 15 -6 8 -8 15 -18 15 -22z m-2927 -4 c9 -33 -7 -75 -30 -78 -16 -2 -21
2 -21 20 0 13 -1 30 -3 38 -3 9 3 14 13 14 10 -1 17 1 16 5 -3 28 18 29 25 1z
m247 -15 c0 -5 -5 -17 -10 -25 -7 -12 -13 -13 -27 -4 -19 12 -25 45 -9 56 11
7 46 -13 46 -27z m-2900 15 c0 -5 -4 -10 -10 -10 -5 0 -10 5 -10 10 0 6 5 10
10 10 6 0 10 -4 10 -10z m-456 -99 c3 -5 -1 -12 -10 -15 -9 -4 -14 -13 -10
-21 3 -8 1 -15 -3 -15 -10 0 -21 24 -21 46 0 15 35 19 44 5z m6199 -30 c4 -18
-10 -31 -34 -31 -13 0 -11 24 3 38 17 17 25 15 31 -7z m-2878 -53 c-26 -10
-55 -17 -64 -16 -9 2 9 13 39 24 30 11 59 18 64 16 5 -3 -13 -14 -39 -24z
m-95 -28 c0 -5 -4 -10 -10 -10 -5 0 -10 5 -10 10 0 6 5 10 10 10 6 0 10 -4 10
-10z m-50 -20 c0 -5 -4 -10 -9 -10 -6 0 -13 5 -16 10 -3 6 1 10 9 10 9 0 16
-4 16 -10z m-2570 -416 c0 -8 -4 -12 -10 -9 -5 3 -10 13 -10 21 0 8 5 12 10 9
6 -3 10 -13 10 -21z m6045 16 c3 -5 -3 -10 -14 -10 -12 0 -21 5 -21 10 0 6 6
10 14 10 8 0 18 -4 21 -10z m45 -34 c0 -15 -7 -26 -20 -29 -23 -6 -28 21 -8
41 18 18 28 14 28 -12z m-7602 -52 c13 -9 22 -26 22 -41 0 -23 -2 -24 -17 -12
-15 13 -16 11 -10 -11 4 -14 7 -51 7 -84 0 -51 2 -58 18 -54 19 5 22 -12 25
-136 2 -53 0 -59 -21 -67 -14 -5 -21 -5 -17 1 3 5 -4 18 -16 29 -14 12 -19 26
-15 37 4 10 -2 23 -15 35 -16 14 -20 26 -16 53 3 20 1 36 -4 36 -5 0 -9 6 -9
14 0 8 -4 16 -9 18 -5 2 -12 18 -14 36 -3 19 -8 36 -11 39 -3 3 -1 14 5 24 8
16 6 19 -11 19 -34 0 -21 40 20 61 42 23 59 24 88 3z m7649 -19 c3 -9 3 -19
-1 -22 -7 -7 -36 16 -36 28 0 15 30 10 37 -6z m-7737 -235 c8 -16 8 -20 -3
-20 -8 0 -17 9 -20 20 -3 11 -1 20 4 20 4 0 13 -9 19 -20z m3914 -645 c5 -22
4 -26 -4 -15 -5 8 -10 24 -10 34 0 26 6 18 14 -19z m-3668 9 c-3 -8 -2 -13 3
-10 4 3 7 -12 5 -34 -1 -22 2 -40 7 -40 22 0 -18 -27 -48 -33 -22 -4 -33 -2
-36 8 -4 8 -14 11 -26 8 -12 -3 -21 -1 -21 6 0 6 4 11 10 11 10 0 60 47 60 57
0 9 34 42 44 42 4 1 5 -6 2 -15z m7574 -39 c0 -8 -7 -15 -15 -15 -8 0 -15 7
-15 15 0 8 7 15 15 15 8 0 15 -7 15 -15z m-7700 -5 c-8 -5 -19 -10 -25 -10 -5
0 -3 5 5 10 8 5 20 10 25 10 6 0 3 -5 -5 -10z m1165 -230 c3 -5 1 -10 -4 -10
-6 0 -11 5 -11 10 0 6 2 10 4 10 3 0 8 -4 11 -10z m350 -60 c3 -5 1 -10 -4
-10 -6 0 -11 5 -11 10 0 6 2 10 4 10 3 0 8 -4 11 -10z m85 -10 c0 -5 -5 -10
-11 -10 -5 0 -7 5 -4 10 3 6 8 10 11 10 2 0 4 -4 4 -10z m-75 -40 c3 -5 -1
-10 -9 -10 -9 0 -16 5 -16 10 0 6 4 10 9 10 6 0 13 -4 16 -10z m98 -7 c-7 -2
-19 -2 -25 0 -7 3 -2 5 12 5 14 0 19 -2 13 -5z m-103 -86 c0 -5 -4 -5 -10 -2
-5 3 -10 14 -10 23 0 15 2 15 10 2 5 -8 10 -19 10 -23z m520 -3 c0 -8 -4 -12
-10 -9 -5 3 -10 13 -10 21 0 8 5 12 10 9 6 -3 10 -13 10 -21z m5730 -20 c0 -2
-7 -4 -15 -4 -8 0 -15 4 -15 10 0 5 7 7 15 4 8 -4 15 -8 15 -10z m-13 -56 c-3
-8 -6 -5 -6 6 -1 11 2 17 5 13 3 -3 4 -12 1 -19z m3 -122 c0 -3 -4 -8 -10 -11
-5 -3 -10 -1 -10 4 0 6 5 11 10 11 6 0 10 -2 10 -4z"/>
<path d="M2743 4968 c-26 -13 -31 -38 -7 -38 10 0 14 6 10 15 -3 9 0 15 9 15
8 0 15 5 15 10 0 12 1 12 -27 -2z"/>
<path d="M2926 4732 c-3 -6 1 -13 10 -16 23 -9 28 -2 10 13 -8 7 -17 8 -20 3z"/>
<path d="M3375 4670 c4 -6 11 -8 16 -5 14 9 11 15 -7 15 -8 0 -12 -5 -9 -10z"/>
<path d="M6221 4031 c-8 -5 -10 -14 -6 -21 6 -9 10 -8 17 4 12 21 7 28 -11 17z"/>
<path d="M6240 3994 c0 -8 9 -14 20 -14 11 0 20 4 20 9 0 5 -9 11 -20 14 -13
3 -20 0 -20 -9z"/>
<path d="M6845 3187 c-4 -10 -5 -21 -1 -24 10 -10 18 4 13 24 -4 17 -4 17 -12
0z"/>
<path d="M6530 2910 c-13 -8 -12 -10 3 -10 9 0 17 5 17 10 0 12 -1 12 -20 0z"/>
<path d="M9487 3043 c-4 -3 -7 -13 -7 -22 1 -13 3 -13 11 2 11 19 8 33 -4 20z"/>
<path d="M9441 3014 c0 -11 3 -14 6 -6 3 7 2 16 -1 19 -3 4 -6 -2 -5 -13z"/>
<path d="M9340 2997 c-24 -12 -42 -57 -23 -57 13 0 50 29 38 30 -5 0 -4 4 4 9
25 16 8 32 -19 18z"/>
<path d="M9382 2959 c2 -6 8 -10 13 -10 5 0 11 4 13 10 2 6 -4 11 -13 11 -9 0
-15 -5 -13 -11z"/>
<path d="M9310 2805 c0 -9 6 -12 15 -9 8 4 15 7 15 9 0 2 -7 5 -15 9 -9 3 -15
0 -15 -9z"/>
<path d="M9360 2755 c7 -8 16 -15 21 -15 5 0 9 7 9 15 0 9 -9 15 -21 15 -18 0
-19 -2 -9 -15z"/>
<path d="M9326 2735 c4 -8 8 -15 10 -15 2 0 4 7 4 15 0 8 -4 15 -10 15 -5 0
-7 -7 -4 -15z"/>
<path d="M9307 2611 c6 -22 29 -35 38 -20 7 10 -18 39 -33 39 -6 0 -8 -9 -5
-19z"/>
<path d="M9403 2599 c-6 -6 -9 -17 -6 -24 2 -8 0 -23 -7 -34 -13 -26 -6 -27
18 -3 11 11 15 26 12 45 -4 22 -8 25 -17 16z"/>
<path d="M9366 2495 c-3 -8 -1 -15 3 -15 5 0 11 7 15 15 3 8 1 15 -3 15 -5 0
-11 -7 -15 -15z"/>
<path d="M9350 2455 c-8 -9 -8 -15 -2 -15 12 0 26 19 19 26 -2 2 -10 -2 -17
-11z"/>
<path d="M9386 2235 c4 -8 8 -15 10 -15 2 0 4 7 4 15 0 8 -4 15 -10 15 -5 0
-7 -7 -4 -15z"/>
<path d="M9324 2116 c-10 -8 -17 -17 -14 -19 3 -3 16 3 29 14 27 22 15 26 -15
5z"/>
<path d="M8895 2994 c9 -9 18 -14 21 -11 9 9 -6 27 -22 27 -13 0 -13 -2 1 -16z"/>
<path d="M8625 2710 c-4 -6 6 -10 22 -10 22 0 25 2 13 10 -19 12 -27 12 -35 0z"/>
<path d="M2210 2649 c0 -5 5 -7 10 -4 6 3 10 8 10 11 0 2 -4 4 -10 4 -5 0 -10
-5 -10 -11z"/>
<path d="M2255 2260 c-8 -13 5 -13 25 0 13 8 13 10 -2 10 -9 0 -20 -4 -23 -10z"/>
<path d="M2750 2240 c0 -5 5 -10 10 -10 6 0 10 5 10 10 0 6 -4 10 -10 10 -5 0
-10 -4 -10 -10z"/>
<path d="M2755 1920 c-3 -6 1 -7 9 -4 18 7 21 14 7 14 -6 0 -13 -4 -16 -10z"/>
<path d="M2713 1853 c-13 -2 -23 -9 -23 -15 0 -12 49 -2 65 13 9 9 -1 10 -42
2z"/>
<path d="M2860 1755 c-41 -12 -42 -13 -14 -14 16 -1 39 6 50 14 22 17 22 17
-36 0z"/>
<path d="M2490 1710 c-8 -5 -11 -12 -7 -16 4 -4 13 -2 19 4 15 15 7 24 -12 12z"/>
<path d="M2481 1660 c-27 -23 -25 -24 18 -9 17 6 31 15 31 20 0 15 -24 10 -49
-11z"/>
<path d="M2270 1590 c0 -5 5 -10 10 -10 6 0 10 5 10 10 0 6 -4 10 -10 10 -5 0
-10 -4 -10 -10z"/>
<path d="M3206 1372 c-5 -14 -3 -29 5 -39 15 -18 35 -51 44 -73 4 -8 13 -26
21 -40 8 -14 33 -60 55 -103 23 -43 47 -76 53 -74 13 5 9 36 -8 57 -7 8 -13
26 -14 40 0 14 -13 35 -27 47 -14 12 -25 26 -25 31 0 5 -10 20 -22 33 -13 14
-24 29 -26 34 -9 35 -15 46 -20 40 -4 -4 -12 10 -18 32 -10 35 -12 36 -18 15z"/>
<path d="M3401 1031 c-10 -7 -7 -16 17 -41 l29 -34 -5 32 c-3 21 -8 29 -18 25
-10 -4 -12 0 -8 11 7 18 5 19 -15 7z"/>
<path d="M3219 891 c-1 -3 -1 -10 0 -14 1 -4 -5 -7 -13 -5 -8 2 -15 -1 -15 -7
0 -5 9 -9 19 -8 14 2 18 -2 13 -13 -3 -8 -12 -13 -19 -10 -8 3 -14 -1 -14 -10
0 -9 5 -13 13 -9 6 3 0 -4 -14 -15 -25 -21 -25 -22 -10 -54 19 -40 64 -61 82
-40 9 11 8 14 -2 14 -15 0 -54 46 -54 64 0 6 8 12 19 14 11 2 16 0 12 -7 -8
-12 23 -51 41 -51 7 0 13 9 13 21 0 13 -4 18 -12 13 -7 -4 -4 2 6 14 11 12 15
22 9 22 -5 0 -10 13 -11 30 0 16 -3 34 -6 39 -7 10 -55 21 -57 12z"/>
<path d="M3150 830 c0 -5 5 -10 11 -10 5 0 7 5 4 10 -3 6 -8 10 -11 10 -2 0
-4 -4 -4 -10z"/>
<path d="M3395 540 c3 -5 8 -10 11 -10 2 0 4 5 4 10 0 6 -5 10 -11 10 -5 0 -7
-4 -4 -10z"/>
<path d="M3463 464 c0 -8 6 -14 14 -14 7 0 13 4 13 9 0 5 -6 11 -13 14 -8 3
-14 -1 -14 -9z"/>
<path d="M3701 314 c0 -11 3 -14 6 -6 3 7 2 16 -1 19 -3 4 -6 -2 -5 -13z"/>
<path d="M3735 319 c-3 -5 1 -6 9 -3 9 3 16 1 16 -5 0 -6 5 -11 10 -11 6 0 10
6 10 13 0 15 -37 20 -45 6z"/>
<path d="M5930 2590 c0 -5 5 -10 10 -10 6 0 10 5 10 10 0 6 -4 10 -10 10 -5 0
-10 -4 -10 -10z"/>
<path d="M1768 2300 c2 -16 8 -30 13 -30 10 0 12 21 3 44 -10 27 -21 18 -16
-14z"/>
<path d="M1794 2220 c3 -14 6 -30 6 -36 0 -7 6 -14 13 -17 19 -7 15 26 -7 54
l-17 24 5 -25z"/>
<path d="M1877 1956 c-3 -8 0 -17 8 -19 17 -7 25 1 18 19 -7 18 -19 18 -26 0z"/>
<path d="M1930 1919 c0 -5 5 -7 10 -4 6 3 10 8 10 11 0 2 -4 4 -10 4 -5 0 -10
-5 -10 -11z"/>
<path d="M1860 1870 c0 -5 5 -10 10 -10 6 0 10 5 10 10 0 6 -4 10 -10 10 -5 0
-10 -4 -10 -10z"/>
<path d="M2100 1400 c0 -5 5 -10 10 -10 6 0 10 5 10 10 0 6 -4 10 -10 10 -5 0
-10 -4 -10 -10z"/>
<path d="M2152 1340 c-12 -12 -22 -25 -22 -31 0 -10 13 1 39 34 18 23 10 22
-17 -3z"/>
<path d="M2143 1283 c-18 -9 -33 -20 -33 -25 0 -15 19 -8 47 17 33 28 30 30
-14 8z"/>
<path d="M1795 1290 c3 -5 8 -10 11 -10 2 0 4 5 4 10 0 6 -5 10 -11 10 -5 0
-7 -4 -4 -10z"/>
<path d="M8827 6104 c-5 -6 -44 -11 -86 -13 -11 -1 -9 -7 7 -21 29 -27 28 -30
-8 -27 -16 1 -30 5 -30 10 0 4 -8 7 -17 7 -15 0 -16 2 -3 10 11 7 5 9 -23 8
-38 -1 -97 -42 -97 -66 0 -26 251 -23 343 4 22 7 23 59 1 68 -8 3 -12 2 -9 -3
8 -14 -10 -22 -30 -15 -12 5 -13 9 -5 14 7 4 9 13 6 19 -8 12 -39 15 -49 5z"/>
<path d="M2043 6038 c0 -31 7 -34 25 -16 18 18 14 44 -6 44 -14 0 -19 -8 -19
-28z"/>
<path d="M128 6016 c-29 -21 -22 -39 12 -34 17 3 30 1 30 -3 0 -5 7 -6 17 -2
13 5 12 8 -8 16 -14 5 -19 11 -11 14 14 6 6 23 -11 23 -7 0 -20 -7 -29 -14z
m17 -16 c-3 -5 -11 -10 -16 -10 -6 0 -7 5 -4 10 3 6 11 10 16 10 6 0 7 -4 4
-10z"/>
<path d="M8250 5993 c-34 -6 -88 -31 -96 -45 -5 -8 -2 -9 9 -5 10 4 30 4 46 1
26 -6 28 -9 18 -25 -7 -11 -22 -19 -34 -19 -13 0 -23 -4 -23 -10 0 -5 7 -10
15 -10 8 0 15 -4 15 -10 0 -17 -38 -11 -43 8 -4 16 -5 16 -6 0 -1 -11 -6 -15
-16 -11 -10 3 -15 1 -13 -7 2 -7 -7 -14 -19 -16 -13 -2 -23 1 -23 6 0 6 -7 10
-15 10 -24 0 -6 28 23 35 25 7 26 8 7 15 -32 14 -72 11 -88 -5 -12 -11 -17
-12 -20 -2 -4 8 -6 8 -6 -2 -1 -11 -4 -10 -15 4 -12 17 -13 17 -20 -8 -7 -29
-17 -33 -46 -17 -26 14 -35 -4 -16 -32 13 -18 16 -19 16 -5 0 10 8 17 18 17
14 0 15 -2 2 -10 -8 -5 -10 -10 -4 -10 6 0 17 7 24 15 7 8 17 12 23 8 6 -4 7
-1 2 7 -6 10 -1 12 19 8 14 -3 26 -1 26 3 0 5 4 9 8 9 8 0 16 -14 40 -62 2 -5
-17 -8 -42 -8 -25 0 -46 -4 -46 -9 0 -6 -12 -6 -30 -1 -19 5 -28 5 -25 -1 4
-5 -8 -9 -25 -9 -27 0 -31 3 -28 22 4 31 -29 37 -49 9 -8 -12 -18 -19 -22 -17
-4 3 -20 -7 -36 -22 -22 -20 -38 -26 -67 -25 -20 1 -40 -2 -43 -6 -3 -5 4 -7
15 -4 14 4 20 0 20 -12 0 -10 -5 -15 -14 -12 -7 3 -17 2 -22 -3 -15 -13 -92
-21 -99 -10 -4 6 -15 2 -27 -9 -11 -11 -27 -17 -34 -14 -8 3 -20 0 -27 -6 -7
-5 -25 -9 -40 -8 -14 1 -25 -2 -24 -8 2 -9 201 -9 297 -1 50 5 78 -3 85 -25 4
-10 14 -19 24 -19 10 0 34 -11 54 -24 38 -26 152 -44 300 -47 37 -1 70 -6 73
-11 4 -7 114 -10 359 -10 22 0 78 5 125 11 47 6 127 8 177 4 92 -6 93 -6 118
21 21 23 25 37 25 87 0 66 -10 93 -40 109 -16 9 -18 7 -15 -10 2 -11 0 -18 -6
-15 -5 4 -9 15 -9 25 0 29 -11 50 -25 50 -12 0 -32 37 -23 45 1 1 46 5 98 9
121 7 154 16 158 44 2 11 11 23 20 26 9 2 -14 4 -51 4 -37 -1 -70 -5 -73 -10
-3 -4 -12 -8 -20 -8 -8 0 -12 5 -9 10 12 19 -22 10 -40 -10 -14 -15 -21 -18
-29 -9 -8 8 -7 13 2 16 6 3 12 8 12 12 0 10 -83 0 -99 -13 -12 -8 -13 -8 -7 2
4 7 1 12 -8 12 -9 0 -16 -7 -16 -15 0 -13 -7 -15 -36 -9 -25 5 -35 3 -30 -4 3
-6 2 -13 -3 -16 -5 -3 -11 0 -14 7 -6 15 -102 42 -116 32 -17 -10 -134 17
-160 37 -22 17 -47 16 -36 -2 3 -4 -3 -6 -13 -3 -10 2 -24 -3 -31 -11 -17 -20
-31 -21 -31 -2 0 8 -3 17 -7 19 -14 8 -97 15 -123 10z m60 -43 c0 -5 -4 -10
-10 -10 -5 0 -10 5 -10 10 0 6 5 10 10 10 6 0 10 -4 10 -10z m13 -36 c-6 -17
-29 -18 -36 -1 -3 7 5 13 19 13 15 1 21 -3 17 -12z m577 -48 c0 -2 -7 -6 -15
-10 -8 -3 -15 -1 -15 4 0 6 7 10 15 10 8 0 15 -2 15 -4z m-422 -83 c2 -1 -6
-7 -19 -13 -20 -11 -21 -10 -16 9 4 18 2 19 -13 11 -30 -16 -100 -13 -100 5 0
18 4 18 48 3 30 -11 35 -10 44 5 9 18 11 18 31 0 12 -10 24 -19 25 -20z m-658
16 c0 -6 -4 -7 -10 -4 -5 3 -10 2 -10 -3 0 -5 -6 -9 -14 -9 -8 0 -12 5 -10 12
6 14 44 17 44 4z m800 7 c0 -2 -7 -7 -16 -10 -8 -3 -12 -2 -9 4 6 10 25 14 25
6z"/>
<path d="M9193 5913 c-22 -8 -14 -23 12 -23 16 0 25 6 25 15 0 15 -14 18 -37
8z"/>
<path d="M9340 5910 c0 -17 17 -47 23 -40 2 3 -2 16 -10 30 -7 14 -13 18 -13
10z"/>
<path d="M1003 5883 c9 -2 25 -2 35 0 9 3 1 5 -18 5 -19 0 -27 -2 -17 -5z"/>
<path d="M1078 5883 c6 -2 18 -2 25 0 6 3 1 5 -13 5 -14 0 -19 -2 -12 -5z"/>
<path d="M9193 5873 c-19 -3 -33 -10 -33 -18 0 -7 -6 -16 -12 -18 -10 -4 -10
-8 1 -15 7 -5 10 -15 7 -21 -4 -6 -2 -24 5 -40 13 -28 14 -29 118 -35 59 -4
135 -11 171 -16 36 -5 84 -11 108 -15 l42 -5 0 70 c0 38 -3 70 -7 71 -48 5
-76 2 -85 -8 -6 -7 -14 -10 -19 -7 -5 3 -8 2 -7 -3 4 -10 -12 -12 -31 -5 -7 3
-22 0 -32 -7 -16 -9 -22 -8 -36 9 -12 14 -30 20 -57 20 -22 0 -37 3 -33 6 9
10 -15 30 -43 35 -14 3 -40 4 -57 2z m71 -38 c-4 -8 -8 -15 -10 -15 -2 0 -4 7
-4 15 0 8 4 15 10 15 5 0 7 -7 4 -15z m56 -20 c0 -2 -3 -10 -6 -19 -7 -18 -54
-22 -54 -5 0 6 -9 8 -22 3 -27 -8 -18 4 14 20 19 10 68 10 68 1z m240 -20 c11
-13 8 -15 -18 -15 -24 0 -30 4 -26 15 4 8 12 15 19 15 7 0 18 -7 25 -15z"/>
<path d="M30 5850 c0 -5 5 -10 11 -10 5 0 7 5 4 10 -3 6 -8 10 -11 10 -2 0 -4
-4 -4 -10z"/>
<path d="M101 5817 c-1 -16 -7 -18 -38 -13 -49 8 -66 -3 -57 -37 5 -21 12 -27
34 -27 16 0 30 5 32 11 3 8 16 8 47 -1 24 -6 46 -9 49 -6 3 3 -2 6 -11 6 -9 0
-17 7 -17 15 0 8 9 15 20 15 22 0 26 20 9 37 -8 8 -20 8 -35 3 -15 -6 -24 -5
-28 3 -2 7 -5 4 -5 -6z"/>
<path d="M425 5820 c3 -5 13 -10 21 -10 8 0 14 5 14 10 0 6 -9 10 -21 10 -11
0 -17 -4 -14 -10z"/>
<path d="M298 5808 c-9 -5 -6 -8 9 -8 12 0 24 4 27 8 7 11 -19 11 -36 0z"/>
<path d="M4860 5776 c0 -7 -20 -30 -45 -52 -50 -42 -53 -49 -26 -57 20 -5 81
48 81 71 0 7 5 12 10 12 6 0 10 -8 10 -17 0 -12 3 -14 11 -6 8 8 6 18 -6 37
-19 28 -35 34 -35 12z"/>
<path d="M365 5770 c-3 -5 -3 -14 0 -20 8 -14 42 -13 51 2 4 6 3 8 -4 4 -6 -3
-17 1 -26 9 -9 9 -17 11 -21 5z"/>
<path d="M530 5759 c0 -5 5 -7 10 -4 6 3 10 8 10 11 0 2 -4 4 -10 4 -5 0 -10
-5 -10 -11z"/>
<path d="M2190 5720 c-13 -8 -13 -10 2 -10 9 0 20 5 23 10 8 13 -5 13 -25 0z"/>
<path d="M2107 5713 c-11 -10 -8 -43 4 -43 5 0 8 4 4 9 -3 5 -1 12 5 16 5 3
10 10 10 16 0 10 -14 12 -23 2z"/>
<path d="M4670 5411 c0 -5 -3 -16 -6 -25 -4 -10 -1 -16 7 -16 8 0 15 11 15 25
1 14 -2 25 -7 25 -5 0 -9 -4 -9 -9z"/>
<path d="M156 5201 c-4 -7 -5 -15 -2 -18 9 -9 19 4 14 18 -4 11 -6 11 -12 0z"/>
<path d="M335 5181 c-3 -6 -17 -8 -29 -5 -18 4 -25 1 -29 -15 -3 -12 -12 -21
-21 -21 -9 0 -16 -5 -16 -11 0 -5 5 -7 11 -4 5 4 20 -1 31 -12 21 -18 21 -18
16 5 -7 26 -1 28 23 7 15 -15 17 -13 23 21 7 37 3 54 -9 35z"/>
<path d="M188 5151 c-15 -5 -14 -9 8 -28 l24 -21 0 23 c0 28 -9 35 -32 26z"/>
<path d="M4651 5144 c0 -11 3 -14 6 -6 3 7 2 16 -1 19 -3 4 -6 -2 -5 -13z"/>
<path d="M50 5127 c0 -13 -9 -32 -19 -41 -11 -10 -17 -25 -14 -33 5 -12 9 -10
20 11 9 16 22 26 36 26 25 0 47 17 47 37 0 7 -7 13 -15 13 -8 0 -15 -7 -15
-15 0 -8 -7 -15 -16 -15 -11 0 -15 6 -11 20 3 11 1 20 -4 20 -5 0 -9 -11 -9
-23z"/>
<path d="M147 5128 c-4 -10 -10 -26 -14 -35 -12 -34 -14 -63 -3 -63 5 0 10 7
10 16 0 8 5 12 11 8 8 -5 8 -1 0 13 -7 14 -7 23 0 30 6 6 9 19 6 29 -4 18 -4
18 -10 2z"/>
<path d="M7978 5096 c-17 -13 -25 -36 -12 -36 7 0 44 40 44 47 0 7 -16 2 -32
-11z"/>
<path d="M310 5079 c0 -6 -11 -8 -29 -4 -22 5 -32 2 -39 -12 -10 -17 -11 -17
-17 -1 -4 10 -11 15 -16 12 -5 -3 -6 -10 -3 -16 5 -7 0 -9 -14 -6 -12 4 -20 2
-16 -3 3 -5 0 -9 -5 -9 -6 0 -11 -6 -11 -14 0 -9 -8 -12 -24 -9 -33 7 -43 -24
-16 -51 15 -15 23 -18 28 -9 4 7 23 14 42 15 28 2 34 0 32 -14 -1 -10 8 -20
25 -26 16 -6 21 -11 13 -11 -9 -1 -33 8 -55 19 -41 21 -63 27 -32 9 21 -12 22
-29 1 -29 -8 0 -13 4 -10 8 3 5 -8 9 -23 9 -32 0 -61 23 -61 47 0 9 -5 16 -11
16 -5 0 -7 5 -3 12 4 6 3 8 -3 5 -5 -3 -9 -16 -7 -29 1 -13 3 -29 3 -35 1 -7
10 -13 21 -13 11 0 20 -4 20 -10 0 -5 6 -10 14 -10 8 0 16 -6 19 -14 8 -19 67
-32 77 -16 11 18 64 8 68 -12 2 -12 -3 -18 -15 -18 -17 -1 -17 -1 0 -14 19
-15 23 -36 6 -36 -5 0 -7 -5 -4 -10 4 -6 2 -17 -4 -24 -9 -10 -8 -15 5 -20 22
-9 38 3 24 19 -16 20 13 40 32 21 12 -12 14 -9 14 20 -1 32 -7 39 -31 34 -5
-1 -7 2 -3 6 4 4 3 13 -4 21 -6 7 -8 17 -4 20 4 4 10 3 14 -3 4 -6 17 -14 30
-18 17 -6 24 -3 31 16 5 13 5 24 0 26 -4 2 -5 10 -2 18 3 8 0 14 -6 14 -6 0
-11 -9 -11 -20 0 -19 -1 -19 -35 -2 -34 17 -48 52 -21 52 8 0 23 3 33 7 16 6
16 5 4 -10 -8 -10 -9 -17 -3 -17 17 0 25 19 27 66 1 36 -2 44 -22 53 -16 7
-23 7 -23 0z m8 -71 c-5 -16 -48 -24 -48 -9 0 8 17 16 43 20 5 0 7 -5 5 -11z
m-58 -15 c0 -10 -4 -14 -8 -8 -4 6 -11 13 -16 18 -5 4 -2 7 7 7 10 0 17 -8 17
-17z"/>
<path d="M8130 5080 c0 -5 7 -10 16 -10 8 0 12 5 9 10 -3 6 -10 10 -16 10 -5
0 -9 -4 -9 -10z"/>
<path d="M8200 5080 c0 -5 5 -10 10 -10 6 0 10 5 10 10 0 6 -4 10 -10 10 -5 0
-10 -4 -10 -10z"/>
<path d="M4650 5070 c0 -5 7 -10 16 -10 8 0 12 5 9 10 -3 6 -10 10 -16 10 -5
0 -9 -4 -9 -10z"/>
<path d="M7997 5064 c-3 -4 -2 -16 4 -26 13 -24 33 -10 23 15 -6 18 -16 21
-27 11z"/>
<path d="M388 5002 c-6 -23 1 -52 13 -52 12 0 12 57 0 64 -5 3 -11 -2 -13 -12z"/>
<path d="M452 5011 c2 -7 7 -12 11 -12 12 1 9 15 -3 20 -7 2 -11 -2 -8 -8z"/>
<path d="M4625 4980 c3 -5 11 -10 16 -10 6 0 7 5 4 10 -3 6 -11 10 -16 10 -6
0 -7 -4 -4 -10z"/>
<path d="M8175 4979 c-4 -6 -5 -12 -2 -15 2 -3 7 2 10 11 7 17 1 20 -8 4z"/>
<path d="M8249 4963 c-8 -9 -9 -14 -2 -10 6 4 14 1 16 -5 3 -7 6 -3 6 10 1 26
-2 27 -20 5z"/>
<path d="M8030 4967 c0 -1 -4 -17 -9 -34 -9 -30 -8 -31 10 -20 20 12 27 57 9
57 -5 0 -10 -1 -10 -3z"/>
<path d="M7867 4944 c-9 -10 2 -24 19 -24 8 0 14 7 14 15 0 15 -21 21 -33 9z"/>
<path d="M0 4925 c0 -8 5 -15 10 -15 6 0 10 -7 10 -15 0 -8 -5 -15 -10 -15 -7
0 -10 -27 -8 -72 2 -57 6 -73 18 -73 8 0 23 -7 32 -14 15 -13 16 -17 3 -31 -8
-9 -15 -23 -14 -31 0 -8 5 -5 11 8 14 29 34 35 49 17 10 -13 10 -17 0 -24 -22
-13 -2 -30 35 -30 24 0 34 5 34 15 0 8 6 15 13 16 97 5 102 4 98 -23 -2 -16
30 -7 36 10 4 9 11 20 16 24 12 7 -56 38 -85 38 -15 0 -18 -5 -13 -21 5 -15 3
-20 -6 -17 -8 3 -15 15 -17 27 -2 12 -14 26 -27 31 -34 13 -43 32 -11 24 33
-8 51 3 35 22 -11 13 -7 16 17 13 8 -1 24 22 24 35 0 4 -9 6 -19 3 -21 -5 -19
11 3 43 8 12 8 13 -4 3 -16 -15 -59 -17 -80 -3 -9 6 -17 5 -22 -3 -4 -7 -11
-1 -17 16 -8 20 -17 27 -36 27 -15 0 -33 7 -41 15 -9 8 -20 15 -25 15 -5 0 -9
-7 -9 -15z m91 -78 c-13 -13 -31 0 -24 19 4 11 8 12 20 3 9 -8 10 -16 4 -22z
m53 -12 c3 -8 1 -15 -4 -15 -6 0 -10 7 -10 15 0 8 2 15 4 15 2 0 6 -7 10 -15z"/>
<path d="M8137 4843 c-7 -40 -4 -49 12 -38 13 7 15 75 2 75 -4 0 -11 -17 -14
-37z"/>
<path d="M8248 4859 c-23 -24 -23 -28 2 -22 13 3 20 0 20 -8 0 -9 5 -7 11 5 8
13 8 21 -2 31 -11 10 -17 9 -31 -6z"/>
<path d="M500 4860 c-8 -5 -12 -11 -9 -14 2 -3 11 -1 19 4 8 5 12 11 9 14 -2
3 -11 1 -19 -4z"/>
<path d="M8333 4837 c4 -11 -1 -17 -15 -19 -20 -3 -21 -4 -5 -20 9 -9 17 -24
17 -32 0 -23 23 -20 38 5 12 18 11 21 -8 26 -14 4 -19 11 -15 23 3 10 0 22 -6
26 -9 5 -10 2 -6 -9z"/>
<path d="M9460 4825 c0 -16 16 -20 24 -6 3 5 -1 11 -9 15 -9 3 -15 0 -15 -9z"/>
<path d="M9562 4823 c-10 -4 -10 -8 -1 -19 15 -18 4 -46 -18 -43 -34 3 -37 -1
-15 -17 18 -12 21 -19 11 -30 -9 -11 -8 -15 5 -20 9 -3 16 -10 16 -15 0 -4 -7
-6 -15 -3 -20 8 -19 -11 2 -31 16 -16 16 -18 -1 -27 -16 -9 -16 -11 0 -36 20
-31 40 -52 48 -52 3 0 6 56 6 124 0 90 -3 126 -12 129 -10 4 -10 7 0 18 23 25
9 36 -26 22z"/>
<path d="M8247 4792 c-27 -6 -20 -66 8 -70 19 -3 19 -2 3 11 -10 8 -18 19 -18
26 0 15 27 14 34 -1 2 -7 4 -3 2 9 -3 27 -6 30 -29 25z"/>
<path d="M357 4783 c-12 -11 -8 -23 8 -23 8 0 15 7 15 15 0 16 -12 20 -23 8z"/>
<path d="M8070 4770 c0 -5 5 -10 11 -10 5 0 7 5 4 10 -3 6 -8 10 -11 10 -2 0
-4 -4 -4 -10z"/>
<path d="M8140 4760 c0 -5 5 -10 10 -10 6 0 10 5 10 10 0 6 -4 10 -10 10 -5 0
-10 -4 -10 -10z"/>
<path d="M9491 4734 c0 -11 3 -14 6 -6 3 7 2 16 -1 19 -3 4 -6 -2 -5 -13z"/>
<path d="M8127 4734 c-9 -9 4 -35 14 -28 5 3 9 12 9 20 0 14 -12 19 -23 8z"/>
<path d="M9185 4731 c-3 -5 -1 -12 5 -16 5 -3 10 1 10 9 0 18 -6 21 -15 7z"/>
<path d="M13 4713 c-7 -3 -13 -17 -13 -31 l0 -27 15 29 c17 32 16 36 -2 29z"/>
<path d="M9459 4644 c-18 -30 -19 -38 -8 -45 10 -6 16 -2 21 11 4 11 15 20 25
20 15 0 16 -2 3 -10 -18 -11 -8 -23 14 -14 20 8 21 30 1 38 -8 3 -15 12 -15
21 0 26 -17 17 -41 -21z"/>
<path d="M8013 4622 c-14 -23 -6 -37 28 -45 19 -5 29 -2 33 8 7 18 -7 27 -30
18 -14 -5 -16 -2 -12 15 7 27 -3 29 -19 4z"/>
<path d="M8416 4612 c-2 -4 0 -14 5 -22 8 -13 10 -13 19 0 5 8 10 18 10 23 0
10 -28 9 -34 -1z"/>
<path d="M206 4595 c-4 -11 2 -15 21 -15 21 0 24 2 13 15 -7 8 -16 15 -20 15
-4 0 -10 -7 -14 -15z"/>
<path d="M5 4557 c0 -37 0 -38 13 -18 16 23 44 29 41 9 -3 -17 11 -48 21 -48
4 0 8 11 8 25 0 14 -4 25 -9 25 -5 0 -9 9 -9 19 0 14 -9 20 -33 23 -32 3 -32
3 -32 -35z"/>
<path d="M270 4590 c0 -5 5 -10 11 -10 5 0 7 5 4 10 -3 6 -8 10 -11 10 -2 0
-4 -4 -4 -10z"/>
<path d="M9405 4573 c3 -16 11 -32 17 -38 8 -7 9 -2 4 15 -3 14 -6 31 -6 38 0
6 -5 12 -11 12 -7 0 -9 -10 -4 -27z"/>
<path d="M8115 4580 c3 -5 8 -10 11 -10 2 0 4 5 4 10 0 6 -5 10 -11 10 -5 0
-7 -4 -4 -10z"/>
<path d="M8510 4580 c0 -5 5 -10 10 -10 6 0 10 5 10 10 0 6 -4 10 -10 10 -5 0
-10 -4 -10 -10z"/>
<path d="M310 4567 c17 -19 87 -36 77 -20 -4 6 -17 13 -29 16 -13 2 -32 8 -43
12 -18 7 -19 6 -5 -8z"/>
<path d="M8225 4569 c-4 -6 -3 -15 3 -21 6 -6 11 -4 15 6 7 18 -9 31 -18 15z"/>
<path d="M9516 4565 c4 -8 8 -15 10 -15 2 0 4 7 4 15 0 8 -4 15 -10 15 -5 0
-7 -7 -4 -15z"/>
<path d="M168 4563 c7 -3 16 -2 19 1 4 3 -2 6 -13 5 -11 0 -14 -3 -6 -6z"/>
<path d="M7985 4561 c-3 -5 -1 -12 4 -15 5 -3 11 1 15 9 6 16 -9 21 -19 6z"/>
<path d="M8190 4550 c0 -19 3 -21 12 -12 9 9 9 15 0 24 -9 9 -12 7 -12 -12z"/>
<path d="M8411 4550 c-21 -13 6 -22 29 -10 11 6 20 12 20 13 0 7 -38 5 -49 -3z"/>
<path d="M130 4539 c0 -5 5 -7 10 -4 6 3 10 8 10 11 0 2 -4 4 -10 4 -5 0 -10
-5 -10 -11z"/>
<path d="M224 4539 c-3 -6 -1 -16 5 -22 8 -8 11 -5 11 11 0 24 -5 28 -16 11z"/>
<path d="M8633 4543 c9 -2 23 -2 30 0 6 3 -1 5 -18 5 -16 0 -22 -2 -12 -5z"/>
<path d="M290 4531 c0 -5 5 -13 10 -16 6 -3 10 -2 10 4 0 5 -4 13 -10 16 -5 3
-10 2 -10 -4z"/>
<path d="M160 4520 c0 -5 9 -10 21 -10 11 0 17 5 14 10 -3 6 -13 10 -21 10 -8
0 -14 -4 -14 -10z"/>
<path d="M120 4510 c0 -5 5 -10 10 -10 6 0 10 5 10 10 0 6 -4 10 -10 10 -5 0
-10 -4 -10 -10z"/>
<path d="M7820 4510 c0 -5 5 -10 10 -10 6 0 10 5 10 10 0 6 -4 10 -10 10 -5 0
-10 -4 -10 -10z"/>
<path d="M8570 4510 c0 -24 21 -60 36 -60 9 0 13 5 10 13 -3 6 -9 20 -12 29
-6 18 -34 33 -34 18z"/>
<path d="M357 4489 c4 -13 8 -18 11 -10 2 7 -1 18 -6 23 -8 8 -9 4 -5 -13z"/>
<path d="M0 4483 c0 -12 8 -24 18 -26 16 -4 16 -5 0 -6 -10 0 -18 -9 -18 -18
0 -15 3 -15 21 4 l22 21 -22 23 c-21 23 -21 23 -21 2z"/>
<path d="M8150 4478 c0 -14 7 -31 15 -38 13 -11 13 -8 3 21 -15 44 -18 48 -18
17z"/>
<path d="M8655 4470 c3 -5 11 -10 16 -10 6 0 7 5 4 10 -3 6 -11 10 -16 10 -6
0 -7 -4 -4 -10z"/>
<path d="M64 4459 c-2 -4 3 -10 12 -13 24 -9 76 -7 70 3 -7 11 -76 20 -82 10z"/>
<path d="M305 4450 c-3 -5 -3 -10 2 -11 4 0 18 -2 30 -3 18 -2 20 0 12 11 -13
15 -35 17 -44 3z"/>
<path d="M8211 4445 c0 -12 -5 -25 -9 -30 -11 -13 -3 -115 10 -115 5 0 8 15 7
33 -2 18 -1 37 2 42 3 6 2 28 -2 50 -3 22 -7 31 -8 20z"/>
<path d="M8550 4418 c0 -5 7 -11 15 -14 23 -9 18 -26 -5 -19 -14 4 -20 2 -20
-8 0 -21 46 -27 65 -8 16 15 17 14 10 -9 -7 -24 -7 -24 9 -5 20 26 21 56 1 49
-9 -4 -15 0 -15 9 0 11 -9 15 -30 15 -16 -1 -30 -5 -30 -10z"/>
<path d="M290 4410 c0 -5 5 -10 11 -10 5 0 7 5 4 10 -3 6 -8 10 -11 10 -2 0
-4 -4 -4 -10z"/>
<path d="M9482 4394 c-13 -15 -16 -30 -14 -88 2 -31 5 -37 18 -32 12 4 15 2
10 -9 -3 -8 -1 -15 3 -15 5 0 17 -3 25 -6 12 -5 15 -2 10 10 -4 10 0 18 10 22
22 8 20 21 -4 27 -11 3 -20 1 -20 -4 0 -5 -4 -9 -10 -9 -14 0 -25 51 -12 59 7
4 9 17 4 33 -6 21 -9 24 -20 12z"/>
<path d="M8280 4355 c0 -8 3 -14 8 -14 24 4 40 -3 45 -21 5 -21 47 -29 47 -9
0 6 -7 9 -15 5 -8 -3 -15 0 -15 7 0 16 -36 47 -55 47 -8 0 -15 -7 -15 -15z"/>
<path d="M8678 4363 c7 -3 16 -2 19 1 4 3 -2 6 -13 5 -11 0 -14 -3 -6 -6z"/>
<path d="M8077 4342 c7 -18 22 -32 36 -32 11 0 -15 39 -30 44 -8 3 -10 -1 -6
-12z"/>
<path d="M8144 4334 c3 -9 6 -24 6 -35 0 -11 7 -19 18 -19 13 0 14 2 3 9 -8 5
-12 19 -9 35 4 18 1 26 -9 26 -10 0 -13 -6 -9 -16z"/>
<path d="M8800 4337 c0 -19 10 -27 26 -20 11 4 12 9 3 19 -15 18 -29 18 -29 1z"/>
<path d="M8993 4308 c-2 -16 1 -18 10 -9 7 7 8 14 1 21 -6 6 -10 2 -11 -12z"/>
<path d="M9580 4320 c0 -5 5 -10 10 -10 6 0 10 5 10 10 0 6 -4 10 -10 10 -5 0
-10 -4 -10 -10z"/>
<path d="M8710 4300 c0 -5 5 -10 11 -10 5 0 7 5 4 10 -3 6 -8 10 -11 10 -2 0
-4 -4 -4 -10z"/>
<path d="M9065 4287 c5 -18 3 -27 -5 -27 -6 0 -9 4 -5 9 7 12 -12 24 -25 16
-6 -4 -7 -12 -3 -18 4 -7 6 -22 5 -34 -2 -14 4 -26 19 -33 20 -11 21 -10 16
12 -5 20 -1 28 18 38 29 16 28 27 -4 48 -21 15 -22 14 -16 -11z"/>
<path d="M8640 4286 c-10 -12 -10 -20 -3 -24 6 -4 14 -19 18 -34 6 -23 10 -26
25 -18 25 13 33 0 13 -22 -22 -25 -57 -24 -50 1 3 14 1 18 -10 14 -8 -3 -12
-12 -9 -20 3 -8 6 -21 6 -30 0 -10 6 -13 16 -9 8 3 24 2 34 -4 13 -7 20 -6 24
6 5 13 9 14 21 4 13 -10 19 -9 35 5 11 10 23 15 27 12 3 -4 12 -2 18 3 19 16
-4 60 -32 60 -12 0 -34 5 -50 12 -15 7 -35 12 -43 12 -8 1 -17 12 -20 25 -5
22 -6 22 -20 7z"/>
<path d="M9415 4270 c-18 -19 -17 -20 3 -20 11 0 26 -2 34 -3 7 -2 10 -2 5 0
-4 3 -5 8 -2 13 3 4 -1 13 -9 19 -10 8 -17 6 -31 -9z"/>
<path d="M9583 4283 c-18 -7 -16 -23 2 -23 8 0 15 7 15 15 0 8 -1 15 -2 14 -2
0 -9 -3 -15 -6z"/>
<path d="M8205 4270 c-3 -5 -1 -10 4 -10 6 0 11 5 11 10 0 6 -2 10 -4 10 -3 0
-8 -4 -11 -10z"/>
<path d="M8530 4265 c0 -16 16 -20 24 -6 3 5 -1 11 -9 15 -9 3 -15 0 -15 -9z"/>
<path d="M8715 4270 c3 -5 18 -10 33 -9 24 0 25 1 7 9 -28 12 -47 12 -40 0z"/>
<path d="M9097 4243 c-13 -15 -13 -21 -3 -35 17 -23 26 -23 26 1 0 11 5 23 10
26 6 3 10 10 10 16 0 15 -26 10 -43 -8z"/>
<path d="M8390 4239 c0 -5 5 -7 10 -4 6 3 10 8 10 11 0 2 -4 4 -10 4 -5 0 -10
-5 -10 -11z"/>
<path d="M9348 4215 c-12 -27 2 -55 29 -55 13 0 13 3 3 15 -7 8 -10 26 -8 40
7 32 -9 32 -24 0z"/>
<path d="M8044 4209 l-39 -17 28 -7 c20 -5 33 -3 46 9 10 9 23 16 29 16 7 0
12 4 12 8 0 13 -35 9 -76 -9z"/>
<path d="M8546 4214 c-4 -9 -13 -14 -21 -10 -11 4 -15 -2 -15 -20 0 -13 -7
-27 -15 -30 -24 -10 -8 -22 38 -29 23 -4 45 -12 48 -17 3 -5 13 -6 22 -2 15 6
15 9 -3 34 -14 20 -26 27 -40 23 -24 -7 -26 13 -4 45 8 12 11 22 6 22 -6 0
-13 -7 -16 -16z"/>
<path d="M9284 4201 c2 -39 12 -47 26 -21 9 16 9 25 -1 36 -18 22 -27 17 -25
-15z"/>
<path d="M9384 4219 c-6 -10 11 -28 27 -29 15 0 17 29 3 34 -21 8 -22 8 -30
-5z"/>
<path d="M9557 4209 c3 -10 14 -19 24 -19 26 0 24 15 -5 28 -21 9 -23 8 -19
-9z"/>
<path d="M8160 4210 c-9 -6 -10 -10 -3 -10 6 0 15 5 18 10 8 12 4 12 -15 0z"/>
<path d="M8970 4213 c0 -17 22 -31 38 -26 9 4 13 2 9 -4 -3 -5 0 -10 8 -10 32
0 18 13 -47 45 -5 2 -8 0 -8 -5z"/>
<path d="M9182 4212 c-15 -10 -5 -42 13 -42 8 0 10 9 7 25 -2 14 -5 25 -6 25
0 0 -7 -4 -14 -8z"/>
<path d="M9235 4195 c-17 -12 -17 -14 -2 -9 18 6 24 -10 7 -21 -17 -10 -11
-25 9 -25 11 0 23 -9 26 -20 3 -11 11 -20 16 -20 14 0 11 9 -11 37 -11 14 -17
29 -14 34 3 5 1 16 -3 24 -8 14 -11 14 -28 0z"/>
<path d="M9570 4176 c0 -2 7 -9 15 -16 9 -7 15 -8 15 -2 0 5 -7 12 -15 16 -8
3 -15 4 -15 2z"/>
<path d="M9466 4153 c-6 -14 -5 -15 5 -6 7 7 10 15 7 18 -3 3 -9 -2 -12 -12z"/>
<path d="M8085 4150 c-18 -8 -17 -9 8 -9 15 -1 27 4 27 9 0 12 -8 12 -35 0z"/>
<path d="M9162 4144 c10 -10 23 -14 34 -10 16 6 16 8 4 16 -8 6 -24 10 -35 10
-18 0 -18 -1 -3 -16z"/>
<path d="M9320 4150 c-13 -8 -12 -10 3 -10 14 0 17 -9 17 -56 0 -49 -2 -55
-15 -44 -10 8 -15 9 -15 2 0 -6 9 -16 20 -22 11 -6 20 -17 20 -25 0 -21 20
-19 21 3 1 16 -2 65 -5 103 -4 32 -30 60 -46 49z"/>
<path d="M7965 4120 c-3 -5 1 -10 9 -10 9 0 16 5 16 10 0 6 -4 10 -9 10 -6 0
-13 -4 -16 -10z"/>
<path d="M9415 4100 c-10 -11 -15 -23 -12 -27 7 -6 36 25 37 40 0 11 -6 8 -25
-13z"/>
<path d="M9467 4081 c-17 -17 -17 -19 -1 -25 20 -8 19 -8 28 22 9 26 -2 28
-27 3z"/>
<path d="M8030 4061 c0 -12 9 -20 26 -24 21 -4 25 -1 22 16 -4 27 -48 35 -48
8z"/>
<path d="M8895 4040 c-10 -11 -13 -20 -7 -20 6 0 14 5 17 10 10 15 25 12 25
-6 0 -9 -9 -23 -20 -32 -20 -17 -20 -17 16 -20 29 -2 35 1 30 13 -4 13 -2 14
14 5 32 -17 31 -11 -9 30 -21 22 -40 40 -43 40 -3 0 -13 -9 -23 -20z"/>
<path d="M9408 4036 c-18 -24 -15 -36 9 -36 7 0 13 7 13 15 0 8 4 15 10 15 5
0 7 7 4 15 -8 20 -16 18 -36 -9z"/>
<path d="M8390 4044 c0 -5 9 -17 19 -26 18 -15 21 -15 37 3 21 23 13 35 -14
20 -13 -7 -22 -7 -30 1 -7 7 -12 8 -12 2z"/>
<path d="M8480 4035 c-10 -13 -9 -15 9 -15 11 0 21 4 21 9 0 18 -18 21 -30 6z"/>
<path d="M9093 4036 c3 -7 0 -19 -6 -26 -9 -10 -9 -14 0 -17 7 -2 10 -10 7
-17 -3 -9 3 -13 21 -13 22 0 23 1 9 12 -11 8 -15 21 -12 38 3 17 0 28 -10 32
-9 3 -12 0 -9 -9z"/>
<path d="M9144 3999 c-3 -6 -1 -16 5 -22 8 -8 11 -5 11 11 0 24 -5 28 -16 11z"/>
<path d="M8470 3967 c1 -30 1 -31 15 -13 19 25 19 32 0 40 -11 4 -15 -2 -15
-27z"/>
<path d="M8575 3970 c-3 -5 -17 -10 -30 -10 -36 0 -55 -10 -55 -31 0 -23 8
-24 32 -2 11 9 18 11 18 5 0 -7 -6 -12 -12 -12 -7 0 3 -14 22 -30 19 -16 38
-30 43 -30 4 0 7 -9 7 -20 0 -11 5 -20 10 -20 6 0 10 11 10 25 0 16 6 25 15
25 8 0 15 -5 15 -11 0 -15 63 -6 68 10 3 10 -4 11 -27 6 -27 -6 -31 -4 -31 13
0 11 -7 23 -16 26 -23 9 -24 8 -24 -14 0 -11 -4 -20 -10 -20 -5 0 -7 7 -3 16
4 12 0 14 -23 9 -25 -6 -27 -5 -13 7 9 7 14 18 12 25 -2 6 1 14 6 18 6 3 11
10 11 16 0 12 -17 12 -25 -1z"/>
<path d="M8835 3970 c3 -5 15 -10 26 -10 10 0 19 5 19 10 0 6 -12 10 -26 10
-14 0 -23 -4 -19 -10z"/>
<path d="M8300 3965 c0 -2 10 -14 22 -25 15 -13 19 -23 12 -28 -6 -4 -14 -15
-17 -26 -7 -18 -6 -18 18 -2 21 14 24 14 19 1 -4 -11 0 -15 16 -15 20 0 22 -4
18 -36 -4 -32 -3 -34 9 -18 7 10 13 24 13 31 0 7 7 13 16 13 11 0 14 5 10 16
-3 9 -6 18 -6 20 0 3 -12 9 -27 15 -26 10 -27 11 -10 24 16 12 16 13 -3 18
-12 3 -23 -1 -28 -9 -7 -12 -11 -11 -27 6 -17 18 -35 27 -35 15z"/>
<path d="M9567 3936 c5 -24 33 -46 33 -26 0 6 -4 10 -9 10 -5 0 -7 9 -4 20 4
13 0 20 -9 20 -11 0 -14 -7 -11 -24z"/>
<path d="M9525 3920 c3 -5 8 -10 11 -10 2 0 4 5 4 10 0 6 -5 10 -11 10 -5 0
-7 -4 -4 -10z"/>
<path d="M9365 3910 c-3 -5 3 -10 15 -10 12 0 18 5 15 10 -3 6 -10 10 -15 10
-5 0 -12 -4 -15 -10z"/>
<path d="M8830 3892 c0 -5 7 -15 15 -22 8 -7 15 -8 15 -2 0 5 -7 15 -15 22 -8
7 -15 8 -15 2z"/>
<path d="M9518 3883 c-10 -13 -10 -17 0 -20 6 -3 12 -16 12 -30 0 -17 4 -23
14 -20 7 3 18 1 23 -4 14 -14 35 15 31 41 -2 13 -16 27 -35 35 -28 12 -34 11
-45 -2z m66 -28 c-4 -8 -11 -12 -16 -9 -6 4 -5 10 3 15 19 12 19 11 13 -6z"/>
<path d="M8485 3855 c-5 -25 -4 -55 4 -85 14 -52 31 -75 31 -42 0 12 -4 22
-10 22 -5 0 -10 5 -10 11 0 6 21 9 53 7 45 -3 52 -6 55 -25 2 -15 -2 -23 -11
-23 -8 0 -17 -7 -21 -15 -3 -9 0 -15 9 -15 13 0 35 -29 35 -45 0 -4 -11 -4
-25 -1 -30 8 -33 -9 -6 -24 25 -13 51 -3 51 20 0 11 5 22 10 25 16 10 12 25
-5 19 -8 -4 -15 -1 -15 5 0 6 4 11 9 11 5 0 7 9 4 20 -3 13 0 20 8 20 7 0 -10
12 -39 27 -51 26 -61 37 -43 47 5 3 7 15 4 26 -5 17 -11 19 -38 14 -29 -5 -34
-3 -37 18 -4 18 -6 15 -13 -17z m65 -35 c0 -5 -4 -10 -9 -10 -6 0 -13 5 -16
10 -3 6 1 10 9 10 9 0 16 -4 16 -10z"/>
<path d="M8886 3875 c4 -8 8 -15 10 -15 2 0 4 7 4 15 0 8 -4 15 -10 15 -5 0
-7 -7 -4 -15z"/>
<path d="M8926 3855 c-3 -8 -1 -15 4 -15 6 0 10 7 10 15 0 8 -2 15 -4 15 -2 0
-6 -7 -10 -15z"/>
<path d="M9455 3850 c-3 -5 1 -10 9 -10 9 0 16 5 16 10 0 6 -4 10 -9 10 -6 0
-13 -4 -16 -10z"/>
<path d="M9268 3835 c-3 -4 -4 -15 -1 -26 4 -13 14 -19 34 -19 22 0 32 -7 41
-25 13 -29 44 -36 33 -7 -6 14 -9 27 -14 51 -1 2 -7 -1 -13 -7 -16 -12 -53 1
-65 23 -5 8 -12 13 -15 10z"/>
<path d="M8886 3798 c3 -5 10 -6 15 -3 13 9 11 12 -6 12 -8 0 -12 -4 -9 -9z"/>
<path d="M9390 3800 c0 -5 5 -10 11 -10 5 0 7 -4 4 -10 -11 -17 5 -32 20 -20
8 7 19 9 25 5 5 -3 10 0 10 7 0 7 -12 19 -27 26 -33 15 -43 15 -43 2z"/>
<path d="M8731 3780 c0 -8 4 -24 9 -35 5 -13 9 -14 9 -5 0 8 -4 24 -9 35 -5
13 -9 14 -9 5z"/>
<path d="M8980 3765 c0 -3 17 -12 38 -21 20 -9 31 -18 25 -21 -7 -3 -13 -9
-13 -14 0 -12 37 -6 52 9 16 16 -10 45 -34 39 -10 -3 -18 -1 -18 4 0 5 -11 9
-25 9 -14 0 -25 -2 -25 -5z"/>
<path d="M9131 3754 c0 -11 3 -14 6 -6 3 7 2 16 -1 19 -3 4 -6 -2 -5 -13z"/>
<path d="M8722 3718 c5 -15 28 -23 28 -10 0 5 -7 13 -16 16 -10 4 -14 1 -12
-6z"/>
<path d="M9580 3722 c-47 -14 -78 -35 -73 -48 3 -10 9 -11 17 -5 7 6 18 4 30
-4 16 -12 21 -12 33 0 19 19 13 64 -7 57z"/>
<path d="M8385 3710 c-4 -6 -15 -8 -26 -5 -27 9 -24 2 15 -39 22 -24 39 -34
50 -30 21 8 21 34 -1 34 -17 1 -17 1 0 14 9 7 17 18 17 25 0 14 -47 15 -55 1z"/>
<path d="M8530 3628 c0 -16 5 -28 10 -28 13 0 13 20 0 40 -8 12 -10 9 -10 -12z"/>
<path d="M8837 3625 c3 -10 -1 -15 -12 -15 -9 0 -13 5 -10 10 3 6 -2 10 -11
10 -14 0 -15 -3 -6 -12 7 -7 12 -18 12 -26 0 -7 7 -21 17 -30 15 -16 14 -17
-16 -26 -29 -8 -39 -31 -13 -31 20 0 25 -14 11 -32 -12 -15 -12 -16 4 -10 10
4 34 7 54 7 34 0 34 1 28 33 -10 42 -10 42 -36 16 -13 -13 -24 -18 -26 -11 -5
13 32 52 48 52 7 0 9 10 7 25 -3 14 -1 28 3 31 19 11 8 21 -26 22 -26 1 -33
-2 -28 -13z"/>
<path d="M9584 3625 c-4 -8 -12 -15 -20 -15 -22 0 -16 -31 11 -56 l25 -23 0
54 c0 55 -6 68 -16 40z"/>
<path d="M8285 3620 c3 -5 12 -7 20 -3 21 7 19 13 -6 13 -11 0 -18 -4 -14 -10z"/>
<path d="M9077 3623 c-16 -15 -7 -34 13 -28 16 5 20 2 21 -17 1 -18 2 -19 6
-5 6 23 28 16 28 -9 0 -10 7 -19 15 -19 8 0 14 8 14 18 -1 9 5 17 13 17 12 0
12 2 -1 16 -9 8 -21 12 -27 8 -7 -4 -9 -3 -5 4 10 16 -13 25 -29 12 -11 -9
-15 -9 -15 -1 0 12 -23 15 -33 4z"/>
<path d="M8255 3580 c-3 -5 -1 -10 4 -10 6 0 11 5 11 10 0 6 -2 10 -4 10 -3 0
-8 -4 -11 -10z"/>
<path d="M8932 3578 c-6 -6 -12 -19 -12 -27 0 -13 2 -13 16 1 9 9 15 21 13 27
-3 9 -8 8 -17 -1z"/>
<path d="M9210 3559 c0 -5 5 -7 10 -4 6 3 10 8 10 11 0 2 -4 4 -10 4 -5 0 -10
-5 -10 -11z"/>
<path d="M9396 3555 c-8 -21 3 -45 21 -45 10 0 13 6 9 16 -3 9 -6 22 -6 30 0
19 -16 18 -24 -1z"/>
<path d="M9505 3559 c-4 -6 -5 -12 -3 -14 7 -7 48 7 48 16 0 13 -37 11 -45 -2z"/>
<path d="M9450 3530 c-8 -5 -11 -12 -8 -16 10 -9 38 3 38 16 0 12 -10 13 -30
0z"/>
<path d="M8699 3510 c-24 -16 3 -45 45 -48 28 -3 36 0 36 13 0 12 -5 15 -16
11 -10 -4 -23 2 -33 13 -12 14 -22 17 -32 11z"/>
<path d="M8446 3485 c-3 -9 -12 -12 -23 -8 -17 6 -16 5 1 -15 23 -27 27 -28
19 -4 -3 9 -3 14 2 10 10 -10 37 11 29 23 -8 14 -21 11 -28 -6z"/>
<path d="M8236 3455 c7 -17 20 -20 28 -6 3 5 -1 12 -10 15 -22 9 -24 8 -18 -9z"/>
<path d="M8482 3321 c20 -4 56 -4 80 -1 35 6 29 8 -37 8 -59 0 -71 -2 -43 -7z"/>
<path d="M8875 3311 c-3 -5 -1 -12 5 -16 5 -3 10 -16 10 -28 1 -20 2 -20 11
-4 5 9 21 17 34 17 13 0 27 5 30 10 4 6 -5 10 -19 10 -14 0 -26 5 -26 10 0 13
-37 13 -45 1z"/>
<path d="M8995 3300 c4 -6 11 -8 16 -5 14 9 11 15 -7 15 -8 0 -12 -5 -9 -10z"/>
<path d="M9039 3296 c7 -9 23 -16 34 -16 26 0 12 15 -23 25 -22 7 -23 6 -11
-9z"/>
<path d="M9214 3303 c11 -12 56 -14 56 -3 0 5 -14 10 -32 10 -17 0 -28 -3 -24
-7z"/>
<path d="M8715 3210 c-3 -5 7 -8 25 -7 16 1 30 5 30 10 0 11 -48 9 -55 -3z"/>
</g>
</svg>
