<svg width="215" height="205" xmlns="http://www.w3.org/2000/svg" xmlns:xlink="http://www.w3.org/1999/xlink">
 <!-- Created with SVG-edit - http://svg-edit.googlecode.com/ -->
 <defs>
  <svg viewBox="0 0 550 532" id="svg_1" height="532pt" width="550pt">
   <path id="svg_3" fill="#FFFFFF" d="m269.480011,15.25c5.940002,-3.51 10.329987,-8.96 15.179993,-13.75c7.619995,10.440001 18.910004,17.299999 29.929993,23.620001c9.959991,5.189999 20.339996,9.889997 28.98999,17.179998c9.360016,7.260002 17.360016,16.580002 21.930023,27.579998c9.369995,-1.879997 18.959991,-3.110001 28.529999,-2.459999c6,0.810005 11.970001,1.860001 17.970001,2.700005c5.549988,0.769997 10.589996,3.439995 16,4.769997c17.029999,3.209999 34.97998,5.260002 51.919983,0.559998c-2.660004,5.600006 -3.139984,11.860001 -5.139984,17.68c-1.399994,10.300003 0.789978,20.630005 2.190002,30.830002c0.649994,4.900002 2.949982,9.349998 4.079987,14.140007c2.350006,16.119995 4.799988,33.169998 -1.059998,48.839996c8.450012,5.410004 15.149994,13.050003 21.149994,20.98999c9.399994,11.480011 14.600006,25.650009 23.300018,37.590012c4.299988,5.330002 8.899963,10.479996 14.269958,14.749985c3.240051,2.180023 6.730042,3.940002 10.120056,5.870026c-11.330017,7.529999 -19.660034,18.5 -27.050049,29.719971c-9.619995,15.890015 -17.499969,33.030029 -29.789978,47.130005c-4.820007,5.27002 -10.350006,10.309998 -17.420013,12.230011c2.580017,4.149994 3.440002,9.01001 4.710022,13.660004c1.410004,4.649994 0.059998,9.459991 -0.110016,14.179993c-0.509979,8.809998 -4.609985,16.809998 -6.919983,25.209991c-3.350006,8.180023 -4,17.089996 -5.51001,25.720001c-0.339996,9.360016 -0.420013,18.980011 2.290009,28.040009c-6.899994,-2.869995 -14.390015,-3.579987 -21.610016,-5.26001c-6.549988,-0.639984 -13.149994,-0.079987 -19.579987,1.220001c-8.110016,0.910004 -16.220001,2.089996 -23.980011,4.670013c-5.919983,2.119995 -12.22998,2.570007 -18.22998,4.369995c-8.960022,1.610016 -17.75,-1.639984 -26.680023,-1.820007c-2.910004,-0.109985 -7.279999,-3.009979 -8.809998,0.779999c-4.5,8.190002 -10.829987,15.26001 -17.940002,21.279999c-6.660004,5.5 -14.630005,8.940002 -22.319977,12.700012c-8.850006,3.910004 -16.580017,9.829987 -24.530029,15.259979c-5.72998,3.929993 -9.459991,9.850037 -12.449982,15.98999c-2.170013,-8 -9.390015,-12.799988 -15.660004,-17.48999c-14.610001,-10.449982 -31.740005,-16.909973 -45.729996,-28.289978c-5.660004,-5.269989 -12.430008,-9.679993 -16.290009,-16.570007c-1.550003,-2.369995 -2.369995,-5.100006 -3.669998,-7.589996c-11.759995,3.470001 -24.220001,3.290009 -36.300003,1.899994c-6.299988,-0.75 -12.349991,-2.769989 -18.319992,-4.820007c-4.979996,-1.669983 -9.150002,-5.599976 -14.610001,-5.779999c-7.790001,-0.470001 -15.620003,-0.129974 -23.43,-0.189972c-5.730003,0.569977 -11.279999,2.389984 -16.690002,4.289978c2.889999,-5.429993 3.959999,-11.630005 5.050003,-17.609985c-0.670006,-7.670013 -0.730003,-15.470001 -2.650002,-22.980011c-3.040001,-11.309998 -8.370003,-22.070007 -9.260002,-33.899994c-1.669998,-8.040009 -2,-16.279999 -1.349998,-24.450012c1.239998,-5.949982 1.690002,-12.329987 5.07,-17.559998c-13.980003,-7.690002 -27.290001,-17.959991 -34.860001,-32.329987c-7.790001,-15.100006 -16,-30.700012 -29.309999,-41.720001c-3.74,-3.369995 -8.40003,-5.369995 -12.67003,-7.950012c16.390031,-6.23999 28.330029,-19.909988 38.460029,-33.679993c5.490002,-9.539993 11.860001,-18.539993 18.27,-27.490005c5.68,-6.319992 12.139999,-11.929993 18.809998,-17.119995c-1.099998,-7 -3.139999,-13.869995 -3.989998,-20.919998c0.080002,-5.610001 0.870003,-11.180008 1.220001,-16.770004c1.209999,-10.619995 7.410004,-19.82 9.440002,-30.219994c1.389999,-10.720001 3.689995,-21.480003 2.629997,-32.340004c-0.970001,-4.879997 -1.659996,-9.809998 -2.639999,-14.690002c2.129997,0.720001 4.239998,1.480003 6.370003,2.18c6.389999,0.82 12.719994,2.020004 19.110001,2.800003c12.869995,0.07 25.869995,0.580002 38.589996,-1.730003c7.889999,-2.709999 16.339996,-2.559998 24.550003,-3.349998c3.709991,-0.32 7.449997,-0.379997 11.160004,-0.089996c5.829987,1.889999 11.869995,3.059998 17.599991,5.279999c6.809998,-12.920002 16.570007,-24.530003 29.380005,-31.84c13.089996,-7.09 25.75,-14.940001 38.290009,-22.950001l0,0l0,0l0,0z"/>
   <path id="svg_4" fill="#FFFFFF" d="m268.350006,30.34c5.949982,-3.690001 10.609985,-9.049999 15.059998,-14.37c2.329987,3.53 5.25,6.61 8.769989,8.95c8.550018,5.889999 17.25,11.609999 26.5,16.359999c5.869995,3.060001 11.399994,6.710003 17.130005,10.02c2.899994,1.610001 5.100006,4.16 7.429993,6.48c5.540009,5.800003 10.640015,12.18 13.830017,19.599998c0.889984,2.860001 1.399994,5.82 2.289978,8.68c7.540009,-3.099998 15.75,-3.699997 23.680023,-5.199997c6.940002,-0.459999 13.959991,-0.410004 20.850006,0.629997c7.519989,1.060005 15.189972,1.670006 22.349976,4.410004c6.809998,1.900002 13.5,5.07 20.730011,4.729996c6.25,0.300003 12.540009,-0.32 18.51001,-2.259995c-1.970001,5.949997 -1.809998,12.299995 -2.600006,18.459999c-1.220001,10.169998 2.470001,19.93 4.910004,29.619995c3.559998,12.139999 4.440002,24.910004 3.789978,37.5c-1,6.160004 -1.779999,12.559998 -4.919983,18.070007c5.790009,2.62999 11.320007,5.979996 15.919983,10.409988c5.880005,6.140015 11.540009,12.650009 15.690002,20.110001c7.27002,12.190002 11.76001,26.12001 21.180023,36.970016c2.830017,3.22998 6.25,5.859985 10.130005,7.709991c-9.340027,9.329987 -17.110046,20.200012 -23.600006,31.670013c-8.180023,17.019989 -18.790009,33.48999 -34.080017,44.969971c-3.669983,2.920013 -7.970001,4.840027 -12.130005,6.960022c6.339996,7.160004 7.050018,17.119995 7.059998,26.22998c-0.48999,13.580017 -8.429993,25.450012 -9.659973,38.880005c-1.5,10.309998 -1.820007,20.740021 -1.800018,31.149994c-3.76001,-1.23999 -7.529999,-2.5 -11.329987,-3.549988c-10.76001,-0.709991 -21.410004,1.529999 -31.960022,3.23999c-14.220001,4.380005 -28.889984,10.480011 -44.049988,7.710022c-6.519989,-0.950012 -12.480011,-3.830017 -18.799988,-5.51001c-3.990021,9.119995 -9.650024,17.5 -16.710022,24.529999c-7.089996,6.149994 -14.839996,11.709991 -23.47998,15.48999c-11.52002,5.300018 -22.790009,11.350006 -32.52002,19.550018c-1.359985,1.440002 -2.309998,3.190002 -3.589996,4.699982c-3.959991,-3.369995 -7.570007,-7.169983 -11.839996,-10.179993c-9.12999,-5.950012 -18.709991,-11.230011 -28.849991,-15.220001c-9.940002,-5.669983 -18.930008,-13.119995 -26,-22.160004c-4.220001,-5.070007 -6.76001,-11.359985 -7.820007,-17.839996c-6.429993,1.709991 -12.679993,4.790009 -19.479996,4.540009c-14.110001,0.769989 -28.110001,-2.179993 -41.270004,-7.130005c-13.720001,-3.929993 -28.279999,-3.670013 -42.269997,-1.359985c1.229996,-3.140015 2.479996,-6.420013 2.290001,-9.850006c-0.590004,-13.920013 -4.459999,-27.440002 -9.340004,-40.410004c-2.059998,-4.73999 -1.68,-10.02002 -2.93,-14.959991c-0.509995,-8.600006 -0.379997,-17.290009 0.889999,-25.820007c0.82,-6.630005 3.709999,-13.01001 8.380005,-17.809998c-11.07,-5.160004 -21.190002,-12.320007 -29.660004,-21.119995c-8.860001,-8.490021 -12.68,-20.550018 -19.649998,-30.410004c-5.960003,-8.570007 -12.27,-17.650024 -21.810001,-22.52002c5.690001,-5.459991 11.470001,-10.849991 16.790001,-16.689987c10.27,-11.490005 15.889999,-26.220001 25.690002,-38.050003c6.829994,-8.580002 15.579994,-15.600006 25.349998,-20.580002c-2.810005,-6.559998 -4.080002,-13.669998 -5.32,-20.660004c0.68,-18.029999 5.349998,-35.549988 10.040001,-52.879997c2.299995,-10.269997 1.379997,-20.860001 1.519997,-31.290001c10.550003,2.860001 21.520004,3.130005 32.380005,2.940002c9.179993,0.32 18.349991,-0.959999 27.229996,-3.290001c11.220001,-2.790001 22.979996,-2.909996 34.309998,-0.790001c5.330002,1.300003 10.110001,4.090004 15.080002,6.340004c2.440002,-4.540001 4.360001,-9.340004 6.820007,-13.879997c6.419998,-10.800003 15.509995,-20.160004 26.569992,-26.240005c9.199997,-5.609997 19.450012,-9.369999 28.320007,-15.579998l0,0l0,0l0,0z"/>
   <path id="svg_5" fill="#cccccc" fill-opacity="1.0" d="m256.070007,49.09c9.23999,-5.439999 19.539978,-9.459999 27.559998,-16.740002c3.100006,3.980003 7.100006,7.200001 11.630005,9.43c9.579987,4.860001 19.089996,9.900002 28.25,15.52c6.849976,4.48 12.579987,10.670002 16.449982,17.890003c0.940002,1.509987 1.110016,3.329987 1.460022,5.040001c1.379974,5.25 -2.490021,9.779999 -3.570007,14.719986c-9.320007,-4.519997 -19.050018,-9.889999 -29.809998,-8.539986c-9.580017,-0.350014 -19.089996,2.349998 -27.130005,7.549995c-2.459991,-2.549995 -5.550018,-4.510002 -9.040009,-5.269997c-13.540009,-3.279999 -28.360001,-3.880005 -41.37001,1.729996c-3.480011,1.520004 -6.009979,4.389999 -8.12001,7.450005c-0.25,-3.740013 -2.139999,-7.120003 -2.480011,-10.830002c0.320023,-8.360001 6.570023,-14.540001 11.990021,-20.209999c7.210022,-6.980003 15.810013,-12.27 24.180023,-17.740002z"/>
   <path id="svg_6" fill="#FFFFFF" d="m272.640015,54.259998c2.449982,-5.91 5.319977,-12.019997 10.689972,-15.889999c5.460022,3.620003 8.850006,9.66 10.620026,15.84c6.309998,0.290001 11.009979,4.620003 15.959991,7.990002c-7.26001,3.109997 -14.619995,6.630001 -20.080017,12.52c-2.599976,2.540001 -4.439972,5.699997 -6.48999,8.669998c-5.130005,-10.620003 -15.720001,-16.979996 -26.290009,-21.200001c4.870026,-3.259998 9.410004,-7.57 15.590027,-7.93z"/>
   <path id="svg_7" fill="#cccccc" fill-opacity="1.0" d="m281.549988,49.709999c1.77002,-0.969997 4.440002,-0.52 5.340027,1.450001c1.969971,4.369999 2.47998,9.639999 0.279999,14.039997c-1.480011,2.5 -5.180023,2.910004 -7.01001,0.550003c-2.130005,-3.5 -2.140015,-7.880001 -1.160004,-11.759998c0.390015,-1.600002 0.910004,-3.510002 2.549988,-4.280003z"/>
   <path id="svg_8" fill="#cccccc" fill-opacity="1.0" d="m156.169998,91.529999c6.430008,-0.279999 12.490005,-2.519997 18.770004,-3.559998c3.709991,0.849998 7.48999,1.290001 11.23999,1.93c6.670013,2.5 13.780014,5.979996 17.150009,12.639999c4.619995,8.010002 2.889999,17.629997 3.220001,26.439995c-0.309998,8.37001 -0.339996,16.75 -0.440002,25.12001c-1.169998,9.23999 -0.710007,18.709991 -3.419998,27.720001c-2.449997,7.12999 -1.229996,14.869995 -3.540009,22.019989c-2.009995,9.050003 -6.919998,17.339996 -13.539993,23.779999c-2.369995,2.020004 -5.240005,3.330002 -7.850006,5.020004c-2.209991,0.5 -4.419998,1.009995 -6.669998,1.350006c-2.429993,0.62999 -4.429993,-1.210007 -6.5,-2.139999c-2.349991,-6.110001 -1.539993,-12.860001 -3.970001,-18.950012c-1.470001,-0.709991 -2.909988,-1.449997 -4.360001,-2.169998c-2.62999,1.020004 -5.339996,2.449997 -8.25,2.090012c-8.759995,-1.62001 -17.699997,-2.420013 -26.619995,-2.450012c-12.349998,-6.37999 -17.540001,-20.449997 -19.629997,-33.37999c-0.790001,-8.910004 -2.110001,-17.889999 -1.010002,-26.840012c0.389999,-4.110001 0.900002,-8.220001 1.099998,-12.339996c1.830002,-6 3.860001,-11.939995 6.200005,-17.769997c1.93,-4.860001 2.349998,-10.110001 3.139999,-15.230003c-0.93,-3.579994 -2.110001,-7.089996 -3.050003,-10.669998c8.800003,2.199997 17.970001,2.82 27.009995,2.260002c7.090012,-1.220001 14.210007,-2.5 21.020004,-4.870003l0,0l0,0l0,0z"/>
   <path id="svg_9" fill="#cccccc" fill-opacity="1.0" d="m362.119995,96.989998c8.450012,-4.739998 18.350006,-5.769997 27.860016,-5.68c7.119995,0.700005 14.389984,0.959999 21.139984,3.520004c13.640015,4.589996 28.140015,5.580002 42.429993,5.43c-0.859985,2.309998 -2.159973,4.43 -2.839996,6.790001c-1.100006,16.899994 2.570007,33.509995 5.290009,50.080002c0.950012,7.940002 1.869995,16.069992 0.089996,23.970001c-3.549988,13.299988 -9.929993,25.869995 -18.869995,36.360001c-6.660004,7.779999 -14.179993,14.799988 -22.190002,21.169998c-7.850006,-6.559998 -17.380005,-10.570007 -26.980011,-13.830002c-8.97998,-2.020004 -18.109985,-3.610001 -27.319977,-3.900009c6.329987,-6.269989 6.25,-15.720001 5.589996,-23.979996c-2.529999,-6.169998 -6.76001,-12.550003 -13.77002,-13.919998c-0.059998,-23.990005 -0.039978,-47.970001 -0.009979,-71.949997c0.059998,-6.150002 4.279999,-11.370003 9.579987,-14.060005l0,0l0,0l0,0z"/>
   <path id="svg_10" fill="#cccccc" fill-opacity="1.0" d="m242.419998,98.57c14.400009,-2.839996 30.090012,1.43 40.909988,11.389999c7.810028,-8.400002 19.630005,-12.870003 31.040009,-12.129997c7.890015,0.419998 15.390015,4.209999 20.77002,9.939995c4.209991,5.080002 6.679993,11.620003 6.619995,18.230003c-0.029999,19.210007 0.029999,38.410004 -0.029999,57.619995c-6.420013,-0.289993 -13.130005,1.51001 -17.580017,6.380005c-5.179993,5.009995 -7.790009,12.369995 -6.799988,19.509995c0.899994,6.980011 6.100006,12.520004 11.769989,16.240005c2.800018,1.380005 5.820007,2.259995 8.730011,3.399994c7.380005,0.840012 14.799988,1.330002 22.23999,1.5c14.480011,1.160004 29.369995,4.320007 41.410004,12.87001c1.450012,1.309998 2.769989,2.75 4.130005,4.159988c-4.089996,3.270004 -8.26001,6.450012 -12.589996,9.410004c-3.290009,2.110016 -4.180023,6.140015 -5.649994,9.5c-1.920013,4.48999 -3.880005,9.480011 -8.380005,11.980011c-1.890015,-4.110016 -3.680023,-8.339996 -6.650024,-11.809998c-4.429993,-4.920013 -10.779999,-8.070007 -17.409973,-8.460022c-9.860016,0.230011 -19.860016,1.120026 -29.130005,4.740021c-7.140015,3.539978 -14.100006,7.630005 -21.839996,9.759979c-2.120026,0.52002 -4.059998,1.51001 -5.910004,2.640015c-6.720001,-0.26001 -13.440002,0.429993 -20.149994,-0.26001c-21.220001,-3.100006 -39.300018,-18.649994 -47.63002,-38.089996c4.990005,-3.419998 10.639999,-6.37999 14.060013,-11.559998c3.419998,-4.709991 5.579987,-10.869995 3.829987,-16.649994c-2.209991,-10.130005 -13.209991,-16.550003 -23.149994,-14.980011c-3.490005,1.080002 -7.009995,2.050003 -10.470001,3.240005c2.020004,-27.160004 3.350006,-54.369995 5.470001,-81.510002c3.580002,-9.360001 13.320007,-14.309998 22.389999,-17.059998l0,0l0,0l0,0z"/>
   <path id="svg_11" fill="#FFFFFF" d="m248.179993,131.169998c3.420013,-0.270004 7.150009,1.800003 8.130005,5.220001c1.420013,4.619995 -0.299988,10.520004 -4.849991,12.720001c-6.820023,2.259995 -14.880005,-4.940002 -12.62001,-12.020004c1.409988,-3.869995 5.579987,-5.440002 9.339996,-5.919998z"/>
   <path id="svg_12" fill="#FFFFFF" d="m302.5,136.339996c3.399994,-4.839996 11.209991,-7.220001 15.880005,-2.819992c3.609985,4.330002 2.380005,11.450012 -1.880005,14.889999c-4.820007,2.920013 -11.51001,-0.290009 -13.529999,-5.240005c-1.100006,-2.119995 -0.559998,-4.559998 -0.470001,-6.830002z"/>
   <path id="svg_13" fill="#cccccc" fill-opacity="1.0" d="m340.149994,195.100006c4.940002,-0.910004 10.649994,-0.160004 14.179993,3.75c3.900024,5.12999 2.820007,13.289993 -2.47998,17.059998c-8.209991,6.179993 -22.160004,0.410004 -23.230011,-9.980011c0.429993,-5.979996 5.929993,-10.019989 11.529999,-10.829987z"/>
   <path id="svg_14" fill="#cccccc" fill-opacity="1.0" d="m83.190002,203.270004c3.029999,-2.050003 6.479996,-3.340012 10.099998,-3.880005c3.909996,7.240005 10.199997,12.699997 15.139999,19.190002c-7.059998,7 -12.650002,15.709991 -14.760002,25.520004c-0.470001,4.759995 -0.919998,9.62999 0.050003,14.359985c3.059998,10.230011 9.07,19.529999 17.260002,26.380005c-2.860001,5.339996 -4.510002,11.200012 -5.68,17.119995c-0.650002,7.860016 0.979996,15.680023 0.57,23.550018c-2.610001,-0.360016 -5.230003,-0.680023 -7.830002,-1.130005c-11.950005,-4.77002 -22.559998,-13.089996 -29.489998,-23.980011c-7.870003,-10.509979 -13.160004,-22.649994 -20.700005,-33.380005c-2.139999,-3.029999 -5.049999,-5.429993 -8.289997,-7.190002c11.419998,-8.069992 18.079998,-20.639984 24.579998,-32.639984c4.82,-9.029999 10.75,-17.75 19.050003,-23.919998l0,0l0,0l0,0z"/>
   <path id="svg_15" fill="#cccccc" fill-opacity="1.0" d="m461.51001,200.070007c15.609985,8.429993 28.25,22.789993 33.449982,39.87999c3.970001,10.51001 10.279999,20.530014 19.300018,27.409988c-9.869995,7.780029 -15.800018,19.080017 -21.890015,29.790009c-2.070007,3.790009 -3.660004,7.800018 -5.720001,11.589996c-7.389984,12.839996 -17.699982,24.26001 -30.600006,31.730011c-3.519989,1.869995 -7.179993,3.429993 -10.73999,5.209991c2.929993,5.820007 6.130005,11.730011 6.98999,18.279999c0.170013,6.330017 1.590027,12.660004 0.650024,18.990021c-0.640015,4.199982 -1.540009,8.359985 -2.240021,12.539978c-0.799988,4.630005 -3.23999,8.790009 -3.799988,13.470001c-1.029999,8.809998 -1.670013,17.660004 -1.48999,26.540009c-7.330017,-1.779999 -15.110016,-3.980011 -22.610016,-1.880005c-5.109985,1.26001 -10.380005,1.970001 -15.279999,3.950012c-20.200012,7.679993 -42.929993,5.649994 -62.869995,-1.830017c-2.929993,9.110016 -8.119995,17.320007 -14.309998,24.559998c-14.800018,14.51001 -34.790009,21.580017 -51.660004,33.180023c-2.209991,1.309998 -3.360016,3.669983 -4.709991,5.75c-3.170013,-3.640015 -6.670013,-7.160004 -11.120026,-9.180023c-7.999985,-3.569977 -15.469986,-8.190002 -23.649979,-11.359985c-13.830002,-5.619995 -26.100006,-16.170013 -31.850006,-30.149994c-2.289993,-4.839996 -2.529999,-10.290009 -3.5,-15.470001c-5.460007,2.579987 -10.820007,5.709991 -16.839996,6.799988c-10.669998,1.149994 -21.600006,1.600006 -32.139999,-0.720001c-8.520004,-1.320007 -16.279999,-5.75 -24.860001,-6.720001c-8.150002,0.25 -16.440002,-0.809998 -24.480003,0.929993c1.57,-7.759979 0.209999,-15.639984 -0.279999,-23.439972c-0.370003,-6.740021 -3.050003,-13.050018 -6.060005,-19c-2.860001,-6.560028 -4.360001,-13.75 -4.07,-20.920013c0.330002,-5.959991 0.32,-12.029999 2.080002,-17.790009c2.220001,-6.079987 5.080002,-11.970001 9.040001,-17.119995c0.260002,9.429993 4.589996,18.080017 10.199997,25.450012c5.370003,6.699982 12.040009,12.389984 19.720001,16.269989c3.949997,1.660004 8.009995,3.080017 11.930008,4.839996c-4.180008,3.880005 -6.710007,9.75 -5.610001,15.470001c1.009995,7.73999 7.839996,12.980011 14.459991,16.070007c5.600006,2.029999 11.610001,2.660004 17.25,4.589996c3.430008,2.119995 6.470001,4.890015 10.229996,6.480011c10.890015,4.660004 23.51001,4.079987 34.51001,0.139984c3.880005,-1.089996 6.849991,-5.419983 11.23999,-4.059998c5.180008,1.410004 10.590012,1.570007 15.910004,1.940002c0.830002,1.630005 1.720001,3.230011 2.779999,4.730011c-0.119995,3.149994 0.820007,6.769989 -1.479996,9.389984c-2.160004,2.369995 -0.350006,5.730011 0.210007,8.410004c1.789993,6.170013 8.279999,9.140015 10.75,14.880005c2.070007,4.570007 5.179993,8.809998 9.47998,11.519989c3.890015,2.320007 9.51001,1.600006 12.060028,-2.380005c5.299988,-7.629974 2.289978,-17.799988 5.97998,-26.039978c3.029999,-8.149994 9.089996,-14.700012 15.619995,-20.25c9.480011,-7.320007 20.640015,-12.080017 31.940002,-15.820007c9.679993,-2.589996 19.600006,-4.220001 29.25,-6.880005c8.710022,-3.619995 17.720001,-6.589996 26.160004,-10.809998c7.01001,-4.410004 15.170013,-7.209991 20.980011,-13.309998c2.929993,-2.98999 6.399994,-5.470001 9.070007,-8.700012c2.509979,-5.319977 4.569977,-10.849976 6.939972,-16.23999c1.860016,-3.700012 0.720001,-7.910004 0.450012,-11.809998c-0.549988,-4.040009 -0.660004,-8.179993 -2.01001,-12.070007c17.450012,-1.369995 34.900024,-11.109985 42.339996,-27.440002c5.430023,-14.630005 0.880005,-31.549988 -8.899994,-43.269989c-6.160004,-7.199997 -13.940002,-12.990005 -22.829987,-16.339996c6.97998,-6.730011 13.959991,-13.520004 19.619995,-21.440002c4.209991,-5.210007 5.940002,-11.860001 7.01001,-18.339996l0,0l0,0l0,0z"/>
   <path id="svg_16" fill="#cccccc" fill-opacity="1.0" d="m225.740005,205.679993c4.860001,-1.689987 9.799988,2.490005 9.979996,7.440002c-7,7.160004 -14.100006,14.210007 -21.220001,21.25c-3.570007,-3.449997 -7.020004,-7.019989 -10.570007,-10.479996c6.080002,-7.240005 11.970001,-16.020004 21.810013,-18.210007l0,0l0,0l0,0z"/>
   <path id="svg_17" fill="#cccccc" fill-opacity="1.0" d="m116.010002,227.050003c3.720001,-2.729996 8.839996,-4.190002 13.249992,-2.229996c4.350006,1.169998 6.810013,6.289978 4.87999,10.409988c-2.189987,4.01001 -5.899979,6.949997 -8.499992,10.680008c-1.669998,3.5 -1.870003,8.440002 1.360001,11.119995c2.320015,1.980011 5.560005,0.350006 7.370003,-1.529999c7.950012,-8.320007 11.159988,-19.649994 16.740005,-29.470001c4.710007,3.059998 3.789993,9.029999 5.289993,13.630005c4.900009,5.220001 7.180008,12.23999 7.76001,19.26001c-0.980011,6.189972 -3.680008,12.589996 -9.12001,16.109985c-3.48999,2.610016 -7.459991,4.589996 -11.579987,5.98999c-7.170013,1.180023 -15.350021,1.420013 -21.590004,-2.879974c-11.090004,-6.190002 -17.730003,-19.690002 -15.510002,-32.240021c0.849998,-7.079987 3.489998,-14.689987 9.650002,-18.849991z"/>
   <path id="svg_18" fill="#cccccc" fill-opacity="1.0" d="m172.169998,244.940002c9.440002,-0.940002 16.770004,-7.559998 23.860001,-13.229996c3.449997,3.569992 6.979996,7.069992 10.550003,10.529999c-5.930008,8.25 -13.059998,15.699997 -17.479996,24.960007c-5.540009,-2.710022 -10.940002,-6.110016 -17.230011,-6.710022c0.100006,-5.189987 -0.119995,-10.37999 0.300003,-15.549988l0,0l0,0l0,0z"/>
   <path id="svg_19" fill="#cccccc" fill-opacity="1.0" d="m202.110001,271.190002c4.350006,-9.070007 9.710007,-17.75 16.690002,-25.040009c3.599991,5.960007 7.529999,11.720001 12.110001,16.990021c0.949997,1.029999 1.889999,2.079987 2.800003,3.159973c8.98999,8.790009 20.139999,17.240021 33.319992,17.160004c4.549988,-0.160004 8.959991,1.160004 13.51001,1.220001c-3.080017,11.190002 -9.070007,21.330017 -16.52002,30.160004c-14.319992,16.649994 -34.589996,26.550018 -54.87999,33.950012c-10.610001,-14.52002 -14.339996,-33.170013 -12.809998,-50.869995c0.139999,-9.170013 2.569992,-18.180023 5.779999,-26.730011l0,0l0,0l0,0z"/>
   <path id="svg_20" fill="#cccccc" fill-opacity="1.0" d="m424.100006,249.320007c1.089996,-0.5 2.309998,-1.790009 3.589996,-1.070007c9.600006,4.289993 18.549988,11.079987 23.540009,20.519989c1.449982,2.390015 1.389984,5.290009 1.97998,7.950012c-7.899994,-1.399994 -17.119995,-2.549988 -23.959991,2.609985c-5.940002,-6.019989 -14.589996,-9.470001 -23.059998,-8.529999c-2.869995,0.300018 -5.75,0.480011 -8.640015,0.450012c0.720001,-1.98999 1.290009,-4.200012 3.029999,-5.570007c7.190002,-6.329987 15.480011,-11.219986 23.52002,-16.359985z"/>
   <path id="svg_21" fill="#cccccc" fill-opacity="1.0" d="m310.190002,280.48999c12.160004,-3.959991 24.100006,-8.859985 36.720001,-11.23999c5.440002,-0.98999 11.639984,-0.019989 15.630005,4.109985c7.649994,6.430023 10.029999,16.880005 9.899994,26.460022c-1.769989,7.039978 -1.230011,14.949982 -5.630005,21.089996c-3.230011,5.040009 -5.269989,10.919983 -9.669983,15.139984c-5.26001,5.470001 -9.650024,11.960022 -16.170013,16.050018c-6.01001,3.959991 -11.470001,8.839996 -18.119995,11.720001c-6.940002,3.130005 -13.390015,7.630005 -20.970001,9.079987c-4.910004,1.059998 -9.76001,2.380005 -14.660004,3.470001c-16.200012,2.410004 -33.139999,0.450012 -48.080002,-6.399994c-8.009995,-3.440002 -15.220001,-8.480011 -22.039993,-13.850006c12.110001,-3.579987 23.929993,-8.389984 34.449997,-15.449982c7.430008,-4.350006 13.520004,-10.51001 19.529984,-16.580017c9.940002,-10.199982 16.360016,-23.309998 20.5,-36.820007c6.200012,-2.289978 12.330017,-4.75 18.610016,-6.779999z"/>
   <path id="svg_22" fill="#cccccc" fill-opacity="1.0" d="m169.380005,274.209991c5.269989,2.25 10.860001,3.610016 16.48999,4.610016c0.940002,0.019989 2.360001,0.699982 1.630005,1.889984c-1.169998,3.649994 -2.199997,7.399994 -2.130005,11.27002c-0.009995,9.679993 0.020004,19.369995 0,29.049988c-0.089996,5.76001 1.700012,11.339996 3.820007,16.630005c2.599991,6.429993 5.73999,12.639984 9.389999,18.549988c-3.020004,2.180023 -5.940002,4.570007 -9.300003,6.220001c-7.020004,3.529999 -14.25,7.27002 -22.259995,7.700012c-12.460007,1.350006 -25.150009,-3.410004 -34.26001,-11.860016c-15.579994,-14.059998 -22.989998,-37.069977 -17.279991,-57.410004c0.609993,-3.5 1.689995,-6.929993 3.619995,-9.939972c10.620003,3.439972 22.220009,2.339996 32.640007,-1.300018c7.049988,-3.529999 13.37999,-8.709991 17.639999,-15.410004l0,0l0,0l0,0z"/>
   <path id="svg_23" fill="#cccccc" fill-opacity="1.0" d="m400.709991,283.059998c4.01001,-0.51001 8.119995,-1.790009 12.140015,-0.600006c5.899994,1.170013 10.350006,5.830017 16.160004,7.26001c6.419983,0.299988 11.470001,-5.860016 18.019989,-4.790009c3.350006,0.420013 7.98999,0.970001 8.860016,4.990021c-0.650024,3.779999 -1.320007,7.899994 -4.180023,10.709991c-3.039978,4.419983 -7.889984,6.910004 -12.539978,9.269989c-6.180023,2.360016 -12.52002,4.649994 -19.210022,4.779999c-5.699982,1.130005 -11.459991,0 -16.910004,-1.72998c-6.779999,-2.380005 -14.559998,-4.980011 -18.169983,-11.720001c-2.540009,-4.360016 0.579987,-9.420013 3.669983,-12.589996c3.470001,-2.880005 7.790009,-4.610016 12.160004,-5.580017z"/>
   <path id="svg_24" fill="#cccccc" fill-opacity="1.0" d="m380.079987,316.339996c3.470001,1.089996 6.330017,3.51001 9.660004,4.950012c7.390015,4.019989 15.650024,6.169983 23.990021,6.970001c1.940002,7.98999 3.97998,16.759979 0.349976,24.589996c-3.97998,9.799988 -12.73999,16.399994 -21.259979,22.089996c-7.320007,4.339996 -15.110016,7.859985 -23.050018,10.899994c-13.169983,4.630005 -26.970001,6.940002 -40.449982,10.420013c-5.869995,1.569977 -11.210022,4.519989 -16.360016,7.669983c-2.459991,-7.769989 -1.589996,-16.109985 -0.190002,-23.98999c7.600006,-2.869995 15.059998,-6.089996 22.27002,-9.830017c15.399994,-9.309998 30.089996,-20.98999 39.029999,-36.919983c2.839996,-5.290009 4.459991,-11.080017 6.009979,-16.850006z"/>
   <path id="svg_25" fill="#cccccc" fill-opacity="1.0" d="m175.619995,379.059998c10.930008,-3.639984 20.740005,-9.820007 31,-14.929993c3,3.130005 6.169998,6.089996 9.200012,9.179993c0.699997,0.440002 1.279999,2 -0.150009,1.970001c-5.5,1.640015 -10.050003,5.399994 -15.539993,7.019989c-8.279999,0.710022 -16.650009,-0.720001 -24.51001,-3.23999z"/>
   <path id="svg_26" fill="#cccccc" fill-opacity="1.0" d="m205.059998,391.829987c7.949997,-3.059998 15.080002,-7.899994 22.729996,-11.569977c5.940002,3.169983 12.150009,5.97998 18.600021,7.949982c-0.289978,8.580017 -2.319992,17.089996 -5.210022,25.149994c-4.5,-1.029999 -9.229996,-4.049988 -13.809998,-1.799988c-6.209991,2.179993 -12.089996,5.290009 -18.440002,7.019989c-11.029999,-0.089996 -21.409988,-4.389984 -31.159988,-9.119995c-4.87999,-1.309998 -10.25,-1.389984 -14.519989,-4.429993c-4.360001,-2.880005 -7.639999,-8.01001 -6.919998,-13.410004c4.849976,-1.589996 9.87999,-3.549988 15.079987,-2.72998c3.009995,0.629974 6.029999,1.25 9.019989,2.009979c7.860001,2.610016 16.640015,3.490021 24.630005,0.929993z"/>
   <path id="svg_27" fill="#cccccc" fill-opacity="1.0" d="m295.359985,386.350006c1.730011,-2 4.560028,-1.089996 6.850006,-1.130005c-0.699982,6.299988 -0.209991,12.75 1.830017,18.790009c1.100037,2.819977 0.630005,6.220001 -1.850006,8.169983c-2.089996,1.830017 -6.149994,3.540009 -8.049988,0.580017c-2.940002,-4.600006 -2.850006,-10.440002 -2.230011,-15.670013c0.549988,-3.679901 0.519989,-8.019989 3.449982,-10.73999z"/>
   <path id="svg_28" fill="#cccccc" fill-opacity="1.0" d="m255.380005,390.470001c2.01001,-1.230011 4.089996,-2.670013 6.570007,-2.589996c7.399994,-0.089996 14.809998,0.019989 22.209991,-0.029999c-2.529999,10.549988 -2.880005,22.859985 4.440002,31.679993c-5.130005,5.279999 -8.550018,11.950012 -11.450012,18.640015c-2.75,6.419891 -0.25,13.619995 -2.959991,20.029999c-1.790009,0.47998 -3.580017,0.919983 -5.390015,1.289978c-2.129974,-4.299988 -3.949982,-8.759979 -6.209991,-12.98999c-1.75,-3.26001 -3.269989,-6.809998 -2.980011,-10.589996c0.380005,-6.330109 1.430023,-12.600098 2.280029,-18.880005c0.159973,-1.690002 0.549988,-3.470001 -0.140015,-5.089996c-2.149994,-1.390015 -4.540009,-2.350098 -6.820007,-3.48999c-0.979996,-5.910004 -1,-12.140015 0.450012,-17.980011z"/>
  </svg>
 </defs>
 <g>
  <title>Layer 1</title>
  <use xlink:href="#svg_1" id="svg_2" transform="matrix(0.290909081697464,0,0,0.290909081697464,0,0) " y="0" x="0"/>
 </g>
</svg>