<svg width="120" height="45" xmlns="http://www.w3.org/2000/svg" xmlns:xlink="http://www.w3.org/1999/xlink">
 <!-- Created with SVG-edit - http://svg-edit.googlecode.com/ -->
 <defs>
  <svg id="svg_1" width="8021.3335" height="3162.6667" viewBox="0 0 8021.3335 3162.6667">
   <metadata id="metadata8">image/svg+xml</metadata>
   <defs>
    <clipPath clipPathUnits="userSpaceOnUse" id="clipPath18">
     <path d="m0,760h6016v1612h-6016l0,-1612z" id="path16"/>
    </clipPath>
    <mask maskUnits="userSpaceOnUse" x="0" y="0" width="1" height="1" id="mask62">
     <g id="g72">
      <g clip-path="url(#clipPath50)" id="g70">
       <g id="g68">
        <g id="g66">
         <path fill="url(#radialGradient60)" d="m-32768,32767h65535v-65535h-65535l0,65535z" id="path64"/>
        </g>
       </g>
      </g>
     </g>
    </mask>
    <clipPath clipPathUnits="userSpaceOnUse" id="clipPath452">
     <path d="m0,2372h6016v-2372h-6016l0,2372z" id="path450"/>
    </clipPath>
   </defs>
   <g id="g10">
    <g id="g12">
     <g id="g14" clip-path="url(#clipPath18)">
      <g id="g20">
       <g id="g22">
        <path fill="url(#linearGradient32)" d="m0,2149.333496h8021.333008v-2149.333496h-8021.333008l0,2149.333496z" id="path34"/>
       </g>
      </g>
     </g>
    </g>
    <g id="g36">
     <g id="g38" clip-path="url(#clipPath42)">
      <g id="g44">
       <g id="g46"/>
       <g id="g74" mask="url(#mask62)">
        <g id="g76">
         <path fill="url(#radialGradient86)" d="m2992,1237.333374c0,656.850708 532.481445,1189.333374 1189.333008,1189.333374v0c656.850586,0 1189.333496,-532.482666 1189.333496,-1189.333374v0c0,-656.850525 -532.48291,-1189.333256 -1189.333496,-1189.333256v0c-656.851563,0 -1189.333008,532.482731 -1189.333008,1189.333256" id="path88"/>
        </g>
       </g>
      </g>
     </g>
    </g>
    <g id="g90">
     <g id="g92" clip-path="url(#clipPath96)">
      <g id="g98">
       <g id="g100"/>
       <g id="g420">
        <g opacity="0.39999" clip-path="url(#clipPath104)" id="g418">
         <g id="g296">
          <g id="g294">
           <g id="g292">
            <g id="g290">
             <path fill="url(#radialGradient118)" d="m4126.669922,1709.329956l-6546.429932,-2855.399902l1254.219971,-1144.380005l5292.209961,3999.779907l0,0z" id="path288"/>
            </g>
           </g>
          </g>
         </g>
         <g id="g306">
          <g id="g304">
           <g id="g302">
            <g id="g300">
             <path fill="url(#radialGradient132)" d="m-1165.540039,-2290.459717l5292.206543,3999.792969l-6546.430664,-2855.403809" id="path298"/>
            </g>
           </g>
          </g>
         </g>
         <g id="g316">
          <g id="g314">
           <g id="g312">
            <g id="g310">
             <path fill="url(#radialGradient146)" d="m-2456.416016,891.514709l6583.08252,817.818665l-7097.074707,800.364136" id="path308"/>
            </g>
           </g>
          </g>
         </g>
         <g id="g326">
          <g id="g324">
           <g id="g322">
            <g id="g320">
             <path fill="url(#radialGradient160)" d="m-1983.358643,4292.624023l6110.025635,-2583.290771l-5746.065186,4241.672607" id="path318"/>
            </g>
           </g>
          </g>
         </g>
         <g id="g336">
          <g id="g334">
           <g id="g332">
            <g id="g330">
             <path fill="url(#radialGradient174)" d="m126.874657,7001.538574l3999.791847,-5292.205078l-2855.403931,6546.429199" id="path328"/>
            </g>
           </g>
          </g>
         </g>
         <g id="g346">
          <g id="g344">
           <g id="g342">
            <g id="g340">
             <path fill="url(#radialGradient188)" d="m3308.8479,8292.413086l817.818604,-6583.07959l800.365234,7097.074707" id="path338"/>
            </g>
           </g>
          </g>
         </g>
         <g id="g356">
          <g id="g354">
           <g id="g352">
            <g id="g350">
             <path fill="url(#radialGradient202)" d="m6709.954102,7819.358398l-2583.287598,-6110.024902l4241.674316,5746.061035" id="path348"/>
            </g>
           </g>
          </g>
         </g>
         <g id="g366">
          <g id="g364">
           <g id="g362">
            <g id="g360">
             <path fill="url(#radialGradient216)" d="m9418.873047,5709.126465l-5292.206543,-3999.792969l6546.431152,2855.399902" id="path358"/>
            </g>
           </g>
          </g>
         </g>
         <g id="g376">
          <g id="g374">
           <g id="g372">
            <g id="g370">
             <path fill="url(#radialGradient230)" d="m10709.75,2527.1521l-6583.083496,-817.818726l7097.075684,-800.363892" id="path368"/>
            </g>
           </g>
          </g>
         </g>
         <g id="g386">
          <g id="g384">
           <g id="g382">
            <g id="g380">
             <path fill="url(#radialGradient244)" d="m10236.693359,-873.95459l-6110.026855,2583.287842l5746.064941,-4241.674316" id="path378"/>
            </g>
           </g>
          </g>
         </g>
         <g id="g396">
          <g id="g394">
           <g id="g392">
            <g id="g390">
             <path fill="url(#radialGradient258)" d="m8126.461426,-3582.870361l-3999.794922,5292.203613l2855.402344,-6546.429443" id="path388"/>
            </g>
           </g>
          </g>
         </g>
         <g id="g406">
          <g id="g404">
           <g id="g402">
            <g id="g400">
             <path fill="url(#radialGradient272)" d="m4944.486328,-4873.746582l-817.819824,6583.080078l-800.361328,-7097.076172" id="path398"/>
            </g>
           </g>
          </g>
         </g>
         <g id="g416">
          <g id="g414">
           <g id="g412">
            <g id="g410">
             <path fill="url(#radialGradient286)" d="m1543.380005,-4400.69043l2583.286499,6110.023926l-4241.668823,-5746.067383" id="path408"/>
            </g>
           </g>
          </g>
         </g>
        </g>
       </g>
      </g>
     </g>
    </g>
    <g id="g422">
     <g id="g424">
      <g id="g430">
       <g id="g432">
        <path fill="url(#radialGradient442)" d="m4774.669922,68.000099l-10.949707,350.012901c-14.550293,2.200012 -29.050293,5.666992 -46.390137,11.320007v0v20.893982l-61.439941,7.77301l-28.380371,1030.22998l-7.509766,5.099976v-352.890015c-45.330078,-22.359985 -160.25,-30.289917 -283.330078,-33.769897v0l-47.339844,24v95.099976l-69.330078,14.22998v372h-44v-177.329956h-16v-34.670044h-15.549805l-3.120117,-4h-8v4h-19.100098l-10.22998,4v31.77002l-5.330078,4.22998v90.890015l-5.339844,3.780029v24.219971l-13.330078,13.109985v24.22998l-5.330078,2.440063v92h-116v-165.340088c0,-13.329956 -6.669922,-13.329956 -6.669922,0v0h-4v-128.890015l-6.669922,-17.769897v-59.560059l-8,-4.439941v-11.780029l-22.560059,0.670044l-2.48999,-8.670044l-2.469971,12.219971l-93.810059,7.560059v269.099976l-3.889893,-3.660034l-4.110107,3.890015v109l-5.330078,5.670044v88h-9.339844v-21.340088h-20v-45.329956h-8.209961l-10.350098,-10.560059l-10.77002,10.560059h-28.439941l-11.560059,4v-21.329956h-38.669922v-49.109985l-16,-10.890015v-44h-10.660156v-13.340088h-14.669922v-10.659912h-28.209961l-6.459961,4v5.329956h-2.660156v-4h-1.109863l-22.670166,12.670044l-0.559814,7.5l-10.330078,5.159912v45.560059l-16,9.109985v56h-83.330078l-4.669922,5.329956h-6.669922v-27.329956l-36,-2v-19.109985l-5.330078,-2.219971v-30l-11.439941,-8l-11.22998,8.659912v26.670044l-6.660156,5.329956v18.670044h-14.669922v-2.670044h-24v-2.659912h-12v-8h-6.669922v-4h-8v2.659912h-4v-2.659912h-5.330078v4h-4v-4h-8v8h-9.330078v-33.340088h-82.669922v-168h-46.669922v-52h-34.660156c-6.419922,18.670044 -7,32 -5.339844,52v0h-6.660156v-4.439941l-46.669922,7.109985v250.670044h6.669922v38.659912h-5.559814l-2.670166,-51.219971l-7.77002,-24.780029h-2.669922v4h-2.669922v8h-2.660156v-17.329956h4v-4h-4v-8.670044l-5.339844,-0.659912v-9.560059l-4,-3.780029v-40.099976l-8,-7.900024v-17.559937l-4,-2.440063v-15.019897c2.669922,-0.960083 3.339844,-2.820068 3.339844,-4.980103v0c0,-3.130005 -2.379883,-5.659912 -5.5,-5.659912v0c-3.129883,0 -5.919922,2.529907 -5.919922,5.659912v0c0,2.160034 1.419922,4.02002 2.75,4.980103v0v15.689941l-4,2v17.77002l-6.669922,7.559937v-4.659912l-2.660156,0.659912v44l-2.669922,1.340088v12h-2.669922v-9.560059l-2.660156,2.890015v34.439941l-3.559814,-9.329956l-9.940186,33.450073l-2.5,42.769897h-12v4h-10.669922v-4h-14.669922v2.670044h-13.330078v-4h-48v-10.670044h-2.669922v9.340088l-22.660156,13.329956h-6.669922v9.329956h-9.330078v174.670044h-33.339844v-129.329956h-17.330078v-123.340088l-8.439941,-3.219971l0.439941,-40.109985h-14.669922v-12h-5.330078v-5.329956h-16v-13.109985l-4,-10.890015h-4.669922l-2,-4.670044c-0.209961,-19.359985 -31.420166,-19.189941 -31.219971,0.170044v0l-11.440186,13.829956v13.329956h-2.669922v-32h-26.669922v-8.219971l-4,-3.780029v-8l-1.330078,1.340088v6.890015l-5.330078,3.769897v6.230103l-25.339844,3.109985v-4h-4v26.099976l-2.660156,4.559937h-21.339844v-6.659912h-5.330078v5.329956h-33.110107l-22.889893,5.329956v76h-10.669922v-6.659912h-17.330078v6.659912h-6.669922v-134.659912h-2.660156v-14.670044l-5.339844,-6.670044h-24v-39.839966l-12,-13.48999h-108v4h-130.660156c0,-14.670044 -28,-14.670044 -28,0v0h-45.339844v88h-28v64h-16v8h-2.660156v17.329956h-1.339844v30.670044h-2.660156v53.329956h-2.669922v10.670044h-29.330078v20h-3.999878v37.329956h-6.670044v-214.659912h-52v-28h-35.329956l-24.670044,4v30.659912h-65.329956v-6.659912h-4v5.329956h-28.5l-20.840088,4v196h-10.659912v-16h-4v-12h-5.340088v-13.329956h-12v13.329956h-5.329956v12h-5.329956v16h-5.340088v24h-12v-20h-5.329956v-6.670044h-33.329956v-21.329956h-5.340088v-18.670044h-4v-170.659912h-60v-8h-4v8h-66.659912v-33.340088h-37.830078l-19.51001,4v29.340088h-8.659912l-36.670044,8v181.329956h8v54.670044h-21.329956v-14.670044h-36v-456h-16v-18.670044h-27.340088c-4.609985,-18.659912 -7.329956,-39.219971 -4.659912,-44v0v-2.659912h-23.830078l2.48999,-5.340088h-5.329956v-11.659912l6.170044,-6.51001l-46.170044,-24.160034l-111.920044,49.329956l4.880005,3.830078l-0.149902,6.329956l-24.810059,9.51001v17.160034l-34.670044,13.51001v22.659912l-14.659912,8v307.5l-10.670044,4.5v106.670044h-65.329956v-13.329956h-31.340027l-4.660034,-2.670044v-35.170044l-9.339966,-15.5h-9.830994l-11.499023,16v36h-6.666992v-12h-22.66803v12h-25.33197v-113.329956h-14.664978v-6.670044h-13.335022v-14.659912h-6.664978v-14.670044h-13.335022v-21.329956l-26.333008,-13.670044l-0.083008,-34.75l-34.916992,-12.920044v-41.73999l-2.666992,-2.26001v-25.329956h-1.333008v25.670044l-2.666992,2.329956v42.410034l-16.749023,11.919922l-9.334961,-6.409912l0.083984,-74.840088l-4.666016,-7.75v-26.839966l-1.335022,-0.97998l-1.33197,1.160034v27l-5.333008,7.659912v76h-32v18.670044h-18.666992v5.329956h-9.333008v24h-4v58.670044h-25.335022v32h-5.33197v121.329956h-21.333008v18l-5.33197,10h-20v6.670044h-46.66803v-16h-34.666992v16h-9.333008v-13.329956h-9.333984v-22.340088l-4,-15h-24v-31.659912l-16,-0.340088v-17.329956l-6.833008,-5.670044l-7.833008,5.670044v18.670044h-17.333984l-22.666016,46.659912v57.340088l-5.333984,5.329956v25.329956h-20v-31.659912l-8,-8.340088h-136v14.670044h-6.668015v50.670044h-130.664993v33.329956h-46.222702l-0.444,38.670044h-30.665298v75.999878h-46.668029v1040h8021.330108v-1040h-62.660156v-6.22998l-77.339844,-37.77002v-13.339844h-21.330078v-12h-81.330078v-4h-29.339844v4h-96v-12.000122h-41.330078v-41.329956h-16v-304.890015l-106.669922,19.560059v25.329956h-29.330078v13.329956h-12v242.670044h-29.330078v-224h-26.669922v-6.670044h-10.669922v-16.439941l-64.330078,-3.560059l-19.669922,5.340088v12h-28v124.439941l-22.660156,-7.109985v-115.560059l-37.339844,-39.109985v-8l-8.100098,-6.219971l-9.22998,6.219971v6.670044h-13.330078v-25.439941l-4,-3.890015v-6.670044l-21.339844,-6.670044v-15.099976l-27.220215,-5.339966l-31.439941,7.109985v11.109985l-5.339844,8.890015h-20v26.670044h-42.660156v-63.109985l-34.669922,-3.560059v-34.670044h-96v-14.659912h-88v21.329956l-13.330078,-2.670044h-64v6.670044h-10.669922v14.670044h6.669922v57.329956l-22.669922,32h-10.669922v27.560059l-45.330078,-3.560059v-13.329956h-16v-10.230103l-62.669922,-4.439941v-18.22998l-34.439941,-3l-2.890137,-14.77002h-5.330078v-17.109985l-1.339844,-1.560059h-7.540039l-3.120117,2.670044v15.109985l-5.339844,18.219971h-12v21.340088h-28v-17.340088h-26.660156v-29.329956h-28v10.670044h-18.669922v24h-37.330078v-30.440063l-27.109863,-2.900024l-20.890137,-9.329956v-6.670044h-17.339844v-82.659912h-37.330078v-4h-8v-8h-12v-4h-52v-26.670044h-2.669922v-25.329956h-16v-22.670044l-38.890137,-33.77002l-61.489746,-3.339966l-48.910156,4.439941l-40.040039,35.340088v22.659912h-12v-52.659912l-32,-3.340088v-5.329956h-24v5.329956l-45.330078,9.340088v16h-8v-32h-6.669922v5.329956h-18.669922v-6.670044h-6.660156v30.670044h-13.339844v5.329956h-13.330078v12h-4v16h-5.330078v36h-1.339844v122.670044l-64,2.670044v33.329956h-9.330078v4h-2.669922v-6.439941l-3.439941,-3.350098l-3.220215,3.119995v5.340088h-2.669922v-13.780029l-37.330078,-84.890015h-9.339844v-140h-21.330078v-56h-5.330078v-30.439941l-45.339844,-1.560059v-18.670044h-4.660156c-32.879883,-76 -144.879883,-72 -172.669922,1.340088v0h-5.330078v20h-9.339844v-312h-9.330078v-2.670044h-193.109863l-29.560059,9.329956v168h-17.330078v-21.559937l-111.879883,-68.209961l-110.790039,79.109985v9.099976l-1.330078,0.22998v9.109985l-5.22998,1.119995l-20.490234,-789.789978l-30.589844,-11.77301c3.510254,-5.373993 1.740234,-8.186981 -1.5,-12v0c2.760254,-4.773987 3.850098,-8.013977 -1.759766,-12.22699v0c5.119629,-6.826996 4.47998,-10.799988 -1.760254,-16v0c-27.419922,-3.867004 -48.580078,-5.333008 -68.109863,-4.546997v0l-9.22998,-347.893005l-2.660156,0l0,0.000099z" id="path444"/>
       </g>
      </g>
     </g>
    </g>
    <g id="g446">
     <g id="g448" clip-path="url(#clipPath452)">
      <g id="g454">
       <path fill="#FFFFFF" fill-rule="nonzero" d="m7958.666504,2122.666748v-6.222656l-77.333496,-37.777344v-13.333252h-21.333008v-12h-81.333496v-4h-29.333496v4h-96v-12.000122h-41.333008v-41.333252h-16v-304.889404l-106.666992,19.55603v25.333374h-29.333008v13.333252h-12v242.666748h-29.333496v-224h-26.666504v-6.666748h-10.666992v-16.44397l-64.333008,-3.55603l-19.666992,5.333374v12h-28v124.44397l-22.666504,-7.110596v-115.55603l-37.333496,-39.110718v-8l-8.111816,-6.222656l-9.221191,6.222656v6.666748h-13.333496v-25.444092l-4,-3.889282v-6.666626l-21.333496,-6.666748v-15.110596l-27.221191,-5.333374l-31.445313,7.110718v11.110596l-5.333496,8.889404h-20v26.666626h-42.666504v-63.110718l-34.666504,-3.555908v-34.666748h-96v-14.666626h-88v21.333374l-13.333496,-2.666748h-64v6.666748h-10.666504v14.666626h6.666504v57.333374l-22.666504,32h-10.666992v27.555908l-45.333008,-3.555908v-13.333374h-16v-10.222656l-62.666992,-4.44397v-18.222656l-34.439941,-3l-2.893066,-14.777344h-5.333496v-17.106689l-1.333496,-1.560059h-7.546387l-3.120117,2.666748v15.110596l-5.333496,18.222656h-12v21.333374h-28v-17.333374h-26.666504v-29.333252h-28v10.666626h-18.666504v24h-37.333496v-30.445313l-27.106445,-2.889404l-20.893555,-9.331909v-6.666748h-17.333496v-82.666626h-37.333008v-4h-8v-8h-12v-4h-52v-26.666626h-2.666992v-25.333374h-16v-22.667969l-38.879883,-33.777344l-61.506836,-3.333374l-48.90625,4.44397l-40.040039,35.334717v22.666626h-12v-52.666626l-32,-3.333374v-5.333252h-24v5.333252l-45.333496,9.333374v16h-8v-32h-6.666504v5.333374h-18.666992v-6.666748h-6.666504v30.666748h-13.333496v5.333252h-13.333008v12h-4v16h-5.333496v36h-1.333496v122.668091l-64,2.665283v33.333374h-9.333008v4h-2.666992v-6.444092l-3.439941,-3.33728l-3.226563,3.114624v5.333374h-2.666504v-13.777344l-37.333496,-84.889282h-9.333496v-140h-21.333008v-56h-5.333496v-30.444092l-45.333496,-1.555908v-18.666748h-4.65332c-32.893066,-76 -144.893066,-72 -172.679688,1.333374h-5.333496v20h-9.333496v-312h-9.333008v-2.666626h-193.106934l-29.560059,9.333252v168h-17.333008v-21.555908l-111.879883,-68.221436l-110.787109,79.110718v9.110718l-1.333008,0.222656v9.110596l-5.226563,1.112061l-20.493652,-789.782806l-30.586426,-11.773254c3.506348,-5.373383 1.733398,-8.186707 -1.506836,-12c2.759766,-4.773285 3.853516,-8.013367 -1.759766,-12.226746c5.132813,-6.82666 4.479492,-10.799957 -1.760254,-16c-27.413574,-3.879883 -48.573242,-5.333313 -68.106934,-4.546539l-9.226563,-347.893372h-2.666504l-10.946777,350.013336c-14.546875,2.200012 -29.053223,5.666656 -46.386719,11.319977v20.893402l-61.439941,7.773254l-28.386719,1030.222626l-7.506348,5.110596v-352.889282c-45.333496,-22.366699 -160.240234,-30.297363 -283.333496,-33.777344l-47.333496,24v95.111938l-69.333008,14.221436v372h-44v-177.333374h-16v-34.666626h-15.546875l-3.120117,-4h-8v4h-19.106445l-10.226563,4v31.777344l-5.333496,4.222656v90.887939l-5.333252,3.778687v24.222656l-13.333252,13.110718v24.222656l-5.333496,2.44397v92h-116v-165.333374c0,-13.333252 -6.666504,-13.333252 -6.666504,0h-4v-128.887939l-6.666748,-17.778687v-59.554688l-8,-4.445313v-11.777344l-22.559814,0.666626l-2.493652,-8.666626l-2.466309,12.222656l-93.813477,7.554688v269.113281l-3.893311,-3.669312l-4.106689,3.889404v108.998657l-5.333496,5.667969v88h-9.333252v-21.333374h-20v-45.333252h-8.213135l-10.34668,-10.557251l-10.773438,10.557251h-28.440186l-11.559814,4v-21.333252h-38.666748v-49.108032l-16,-10.891968v-44h-10.666748v-13.333374h-14.666504v-10.666626h-28.213379l-6.453369,4v5.333252h-2.666748v-4h-1.106689l-22.666748,12.668091l-0.559814,7.501221l-10.333252,5.16394v45.558838l-16,9.10791v56h-83.333496l-4.666504,5.333252h-6.666748v-27.330566l-36,-2.002686v-19.109375l-5.333252,-2.223999v-29.997314l-11.440186,-8l-11.226563,8.66394v26.669434l-6.666748,5.330566v18.666748h-14.666504v-2.666748h-24v-2.666626h-12v-8h-6.666748v-4h-8v2.666626h-4v-2.666626h-5.333252v4h-4v-4h-8v8h-9.333496v-33.333374h-82.666504v-168h-46.666748v-52h-34.666748c-6.41333,18.666748 -6.986572,32 -5.333252,52h-6.666748v-4.442627l-46.666504,7.109375v250.666626h6.666504v38.666626h-5.559814l-2.666748,-51.221191l-7.773438,-24.778809h-2.666504v4h-2.666748v8h-2.666748v-17.333252h4v-4h-4v-8.665405l-5.333252,-0.667969v-9.553345l-4,-3.780029v-40.110596l-8,-7.889404v-17.554565l-4,-2.445435v-15.027832c2.666748,-0.95752 3.333252,-2.812012 3.333252,-4.972168c0,-3.129272 -2.373291,-5.666626 -5.506348,-5.666626c-3.120117,0 -5.906982,2.537354 -5.906982,5.666626c0,2.160034 1.41333,4.014648 2.746826,4.972168v15.695923l-4,1.998657v17.778809l-6.666748,7.554565v-4.665283l-2.666748,0.665283v44.001343l-2.666504,1.332031v12h-2.666748v-9.554688l-2.666748,2.887939v34.445313l-3.559814,-9.333252l-9.946533,33.44519l-2.493652,42.776001h-12v4h-10.666504v-4h-14.666748v2.666748h-13.333252v-4h-48v-10.666748h-2.666748v9.333374l-22.666748,13.333374h-6.666504v9.333252h-9.333496v174.666748h-33.333252v-129.333374h-17.333252v-123.333374l-8.440186,-3.222656l0.440186,-40.110596h-14.666748v-12h-5.333252v-5.333374h-16v-13.110718l-4,-10.889282h-4.666748l-2,-4.666626c-0.213135,-19.359985 -31.426758,-19.193359 -31.226563,0.166626l-11.440186,13.833374v13.333252h-2.666504v-32h-26.666748v-8.222656l-4,-3.777344v-8l-1.333252,1.333374v6.889282l-5.333496,3.777344v6.222656l-25.333252,3.110718v-4h-4v26.110718l-2.666748,4.555908h-21.333252v-6.666626h-5.333252v5.333374h-33.106934l-22.893066,5.333252v76h-10.666748v-6.666626h-17.333252v6.666626h-6.666748v-134.666626h-2.666748v-14.666626l-5.333252,-6.666748h-24v-39.833252l-12,-13.5h-108v4h-130.666748c0,-14.666748 -28,-14.666748 -28,0h-45.333252v88h-28v64h-16v8h-2.666748v17.333252h-1.333252v30.666748h-2.666748v53.333252h-2.666504v10.666748h-29.333496v20h-4v37.333252h-6.666626v-214.666626h-52v-28h-35.333374l-24.666626,4v30.666626h-65.333374v-6.666626h-4v5.333374h-28.50647l-20.826904,4v196h-10.666626v-16h-4v-12h-5.333374v-13.333374h-12v13.333374h-5.333252v12h-5.333374v16h-5.333374v24h-12v-20h-5.333252v-6.666748h-33.333374v-21.333252h-5.333374v-18.666748h-4v-170.666626h-60v-8h-4v8h-66.666626v-33.333374h-37.839844l-19.49353,4v29.333374h-8.666626l-36.666626,8v181.333374h8v54.666626h-21.333374v-14.666626h-36v-456h-16v-18.666748h-27.333374c-4.613281,-18.666626 -7.333252,-39.229248 -4.666626,-44v-2.666626h-23.839844l2.50647,-5.333374h-5.333252v-11.666626l6.160156,-6.5l-46.160156,-24.166626l-111.919922,49.333252l4.880127,3.833374l-0.146973,6.333374l-24.81311,9.5v17.166626l-34.66687,13.5v22.666626l-14.666626,8v307.5l-10.666626,4.5v106.666748h-65.333374v-13.333374h-31.333252l-4.666687,-2.666626v-35.166748l-9.333313,-15.5h-9.839844l-11.493469,16v36h-6.666687v-12h-22.666687v12h-25.333313v-113.333252h-14.666687v-6.666748h-13.333313v-14.666626h-6.666687v-14.666626h-13.333313v-21.333374l-26.333313,-13.666626l-0.080078,-34.74939l-34.919922,-12.917358v-41.749268l-2.666687,-2.250732v-25.333252h-1.333313v25.666626l-2.666687,2.333374v42.417236l-16.746765,11.916016l-9.333313,-6.416016l0.080078,-74.833252l-4.666687,-7.750732v-26.833252l-1.333313,-1l-1.333313,1.166626v27l-5.333374,7.666626v76h-32v18.666748h-18.666626v5.333252h-9.333374v24h-4v58.666748h-25.333313v32h-5.333313v121.333252h-21.333374v18l-5.333313,10h-20v6.666748h-46.666687v-16h-34.666626v16h-9.333374v-13.333374h-9.333313v-22.333374l-4,-15h-23.999969v-31.666626l-16,-0.333374v-17.333252l-6.839844,-5.666748l-7.826813,5.666748v18.666626h-17.333344l-22.666656,46.666626v57.333374l-5.333344,5.333374v25.333252h-20v-31.666626l-8,-8.333374h-136v14.666748h-6.666656v50.666626h-130.666656v33.333374h-46.226563l-0.440109,38.666626h-30.666656v76.000122h-46.666661v1040h8021.333028v-1040l-62.666504,0l0,0z" id="path456"/>
      </g>
     </g>
    </g>
   </g>
  </svg>
 </defs>
 <g>
  <title>Layer 1</title>
  <use transform="matrix(0.019946807995438576,0,0,0.019946807995438576,0,0) " id="svg_2" xlink:href="#svg_1"/>
 </g>
</svg>